<?xml version="1.0" encoding="utf-8" standalone="no"?>
<!DOCTYPE svg PUBLIC "-//W3C//DTD SVG 1.1//EN"
  "http://www.w3.org/Graphics/SVG/1.1/DTD/svg11.dtd">
<!-- Created with matplotlib (https://matplotlib.org/) -->
<svg height="498.96pt" version="1.1" viewBox="0 0 921.6 498.96" width="921.6pt" xmlns="http://www.w3.org/2000/svg" xmlns:xlink="http://www.w3.org/1999/xlink">
 <defs>
  <style type="text/css">
*{stroke-linecap:butt;stroke-linejoin:round;}
  </style>
 </defs>
 <g id="figure_1">
  <g id="patch_1">
   <path d="M 0 498.96 
L 921.6 498.96 
L 921.6 0 
L 0 0 
z
" style="fill:#ffffff;"/>
  </g>
  <g id="axes_1">
   <g id="patch_2">
    <path d="M 115.2 444.0744 
L 829.44 444.0744 
L 829.44 59.8752 
L 115.2 59.8752 
z
" style="fill:#ffffff;"/>
   </g>
   <g id="matplotlib.axis_1">
    <g id="xtick_1">
     <g id="line2d_1">
      <path clip-path="url(#p87d3529c77)" d="M 204.857937 444.0744 
L 204.857937 59.8752 
" style="fill:none;stroke:#b0b0b0;stroke-linecap:square;stroke-width:0.8;"/>
     </g>
     <g id="line2d_2">
      <defs>
       <path d="M 0 0 
L 0 3.5 
" id="mba0156b4d0" style="stroke:#000000;stroke-width:0.8;"/>
      </defs>
      <g>
       <use style="stroke:#000000;stroke-width:0.8;" x="204.857937" xlink:href="#mba0156b4d0" y="444.0744"/>
      </g>
     </g>
     <g id="text_1">
      <!-- 2018-10 -->
      <defs>
       <path d="M 19.1875 8.296875 
L 53.609375 8.296875 
L 53.609375 0 
L 7.328125 0 
L 7.328125 8.296875 
Q 12.9375 14.109375 22.625 23.890625 
Q 32.328125 33.6875 34.8125 36.53125 
Q 39.546875 41.84375 41.421875 45.53125 
Q 43.3125 49.21875 43.3125 52.78125 
Q 43.3125 58.59375 39.234375 62.25 
Q 35.15625 65.921875 28.609375 65.921875 
Q 23.96875 65.921875 18.8125 64.3125 
Q 13.671875 62.703125 7.8125 59.421875 
L 7.8125 69.390625 
Q 13.765625 71.78125 18.9375 73 
Q 24.125 74.21875 28.421875 74.21875 
Q 39.75 74.21875 46.484375 68.546875 
Q 53.21875 62.890625 53.21875 53.421875 
Q 53.21875 48.921875 51.53125 44.890625 
Q 49.859375 40.875 45.40625 35.40625 
Q 44.1875 33.984375 37.640625 27.21875 
Q 31.109375 20.453125 19.1875 8.296875 
z
" id="DejaVuSans-50"/>
       <path d="M 31.78125 66.40625 
Q 24.171875 66.40625 20.328125 58.90625 
Q 16.5 51.421875 16.5 36.375 
Q 16.5 21.390625 20.328125 13.890625 
Q 24.171875 6.390625 31.78125 6.390625 
Q 39.453125 6.390625 43.28125 13.890625 
Q 47.125 21.390625 47.125 36.375 
Q 47.125 51.421875 43.28125 58.90625 
Q 39.453125 66.40625 31.78125 66.40625 
z
M 31.78125 74.21875 
Q 44.046875 74.21875 50.515625 64.515625 
Q 56.984375 54.828125 56.984375 36.375 
Q 56.984375 17.96875 50.515625 8.265625 
Q 44.046875 -1.421875 31.78125 -1.421875 
Q 19.53125 -1.421875 13.0625 8.265625 
Q 6.59375 17.96875 6.59375 36.375 
Q 6.59375 54.828125 13.0625 64.515625 
Q 19.53125 74.21875 31.78125 74.21875 
z
" id="DejaVuSans-48"/>
       <path d="M 12.40625 8.296875 
L 28.515625 8.296875 
L 28.515625 63.921875 
L 10.984375 60.40625 
L 10.984375 69.390625 
L 28.421875 72.90625 
L 38.28125 72.90625 
L 38.28125 8.296875 
L 54.390625 8.296875 
L 54.390625 0 
L 12.40625 0 
z
" id="DejaVuSans-49"/>
       <path d="M 31.78125 34.625 
Q 24.75 34.625 20.71875 30.859375 
Q 16.703125 27.09375 16.703125 20.515625 
Q 16.703125 13.921875 20.71875 10.15625 
Q 24.75 6.390625 31.78125 6.390625 
Q 38.8125 6.390625 42.859375 10.171875 
Q 46.921875 13.96875 46.921875 20.515625 
Q 46.921875 27.09375 42.890625 30.859375 
Q 38.875 34.625 31.78125 34.625 
z
M 21.921875 38.8125 
Q 15.578125 40.375 12.03125 44.71875 
Q 8.5 49.078125 8.5 55.328125 
Q 8.5 64.0625 14.71875 69.140625 
Q 20.953125 74.21875 31.78125 74.21875 
Q 42.671875 74.21875 48.875 69.140625 
Q 55.078125 64.0625 55.078125 55.328125 
Q 55.078125 49.078125 51.53125 44.71875 
Q 48 40.375 41.703125 38.8125 
Q 48.828125 37.15625 52.796875 32.3125 
Q 56.78125 27.484375 56.78125 20.515625 
Q 56.78125 9.90625 50.3125 4.234375 
Q 43.84375 -1.421875 31.78125 -1.421875 
Q 19.734375 -1.421875 13.25 4.234375 
Q 6.78125 9.90625 6.78125 20.515625 
Q 6.78125 27.484375 10.78125 32.3125 
Q 14.796875 37.15625 21.921875 38.8125 
z
M 18.3125 54.390625 
Q 18.3125 48.734375 21.84375 45.5625 
Q 25.390625 42.390625 31.78125 42.390625 
Q 38.140625 42.390625 41.71875 45.5625 
Q 45.3125 48.734375 45.3125 54.390625 
Q 45.3125 60.0625 41.71875 63.234375 
Q 38.140625 66.40625 31.78125 66.40625 
Q 25.390625 66.40625 21.84375 63.234375 
Q 18.3125 60.0625 18.3125 54.390625 
z
" id="DejaVuSans-56"/>
       <path d="M 4.890625 31.390625 
L 31.203125 31.390625 
L 31.203125 23.390625 
L 4.890625 23.390625 
z
" id="DejaVuSans-45"/>
      </defs>
      <g transform="translate(183.966531 458.672838)scale(0.1 -0.1)">
       <use xlink:href="#DejaVuSans-50"/>
       <use x="63.623047" xlink:href="#DejaVuSans-48"/>
       <use x="127.246094" xlink:href="#DejaVuSans-49"/>
       <use x="190.869141" xlink:href="#DejaVuSans-56"/>
       <use x="254.492188" xlink:href="#DejaVuSans-45"/>
       <use x="290.576172" xlink:href="#DejaVuSans-49"/>
       <use x="354.199219" xlink:href="#DejaVuSans-48"/>
      </g>
     </g>
    </g>
    <g id="xtick_2">
     <g id="line2d_3">
      <path clip-path="url(#p87d3529c77)" d="M 321.929861 444.0744 
L 321.929861 59.8752 
" style="fill:none;stroke:#b0b0b0;stroke-linecap:square;stroke-width:0.8;"/>
     </g>
     <g id="line2d_4">
      <g>
       <use style="stroke:#000000;stroke-width:0.8;" x="321.929861" xlink:href="#mba0156b4d0" y="444.0744"/>
      </g>
     </g>
     <g id="text_2">
      <!-- 2018-11 -->
      <g transform="translate(301.038454 458.672838)scale(0.1 -0.1)">
       <use xlink:href="#DejaVuSans-50"/>
       <use x="63.623047" xlink:href="#DejaVuSans-48"/>
       <use x="127.246094" xlink:href="#DejaVuSans-49"/>
       <use x="190.869141" xlink:href="#DejaVuSans-56"/>
       <use x="254.492188" xlink:href="#DejaVuSans-45"/>
       <use x="290.576172" xlink:href="#DejaVuSans-49"/>
       <use x="354.199219" xlink:href="#DejaVuSans-49"/>
      </g>
     </g>
    </g>
    <g id="xtick_3">
     <g id="line2d_5">
      <path clip-path="url(#p87d3529c77)" d="M 435.225271 444.0744 
L 435.225271 59.8752 
" style="fill:none;stroke:#b0b0b0;stroke-linecap:square;stroke-width:0.8;"/>
     </g>
     <g id="line2d_6">
      <g>
       <use style="stroke:#000000;stroke-width:0.8;" x="435.225271" xlink:href="#mba0156b4d0" y="444.0744"/>
      </g>
     </g>
     <g id="text_3">
      <!-- 2018-12 -->
      <g transform="translate(414.333864 458.672838)scale(0.1 -0.1)">
       <use xlink:href="#DejaVuSans-50"/>
       <use x="63.623047" xlink:href="#DejaVuSans-48"/>
       <use x="127.246094" xlink:href="#DejaVuSans-49"/>
       <use x="190.869141" xlink:href="#DejaVuSans-56"/>
       <use x="254.492188" xlink:href="#DejaVuSans-45"/>
       <use x="290.576172" xlink:href="#DejaVuSans-49"/>
       <use x="354.199219" xlink:href="#DejaVuSans-50"/>
      </g>
     </g>
    </g>
    <g id="xtick_4">
     <g id="line2d_7">
      <path clip-path="url(#p87d3529c77)" d="M 552.297194 444.0744 
L 552.297194 59.8752 
" style="fill:none;stroke:#b0b0b0;stroke-linecap:square;stroke-width:0.8;"/>
     </g>
     <g id="line2d_8">
      <g>
       <use style="stroke:#000000;stroke-width:0.8;" x="552.297194" xlink:href="#mba0156b4d0" y="444.0744"/>
      </g>
     </g>
     <g id="text_4">
      <!-- 2019-01 -->
      <defs>
       <path d="M 10.984375 1.515625 
L 10.984375 10.5 
Q 14.703125 8.734375 18.5 7.8125 
Q 22.3125 6.890625 25.984375 6.890625 
Q 35.75 6.890625 40.890625 13.453125 
Q 46.046875 20.015625 46.78125 33.40625 
Q 43.953125 29.203125 39.59375 26.953125 
Q 35.25 24.703125 29.984375 24.703125 
Q 19.046875 24.703125 12.671875 31.3125 
Q 6.296875 37.9375 6.296875 49.421875 
Q 6.296875 60.640625 12.9375 67.421875 
Q 19.578125 74.21875 30.609375 74.21875 
Q 43.265625 74.21875 49.921875 64.515625 
Q 56.59375 54.828125 56.59375 36.375 
Q 56.59375 19.140625 48.40625 8.859375 
Q 40.234375 -1.421875 26.421875 -1.421875 
Q 22.703125 -1.421875 18.890625 -0.6875 
Q 15.09375 0.046875 10.984375 1.515625 
z
M 30.609375 32.421875 
Q 37.25 32.421875 41.125 36.953125 
Q 45.015625 41.5 45.015625 49.421875 
Q 45.015625 57.28125 41.125 61.84375 
Q 37.25 66.40625 30.609375 66.40625 
Q 23.96875 66.40625 20.09375 61.84375 
Q 16.21875 57.28125 16.21875 49.421875 
Q 16.21875 41.5 20.09375 36.953125 
Q 23.96875 32.421875 30.609375 32.421875 
z
" id="DejaVuSans-57"/>
      </defs>
      <g transform="translate(531.405788 458.672838)scale(0.1 -0.1)">
       <use xlink:href="#DejaVuSans-50"/>
       <use x="63.623047" xlink:href="#DejaVuSans-48"/>
       <use x="127.246094" xlink:href="#DejaVuSans-49"/>
       <use x="190.869141" xlink:href="#DejaVuSans-57"/>
       <use x="254.492188" xlink:href="#DejaVuSans-45"/>
       <use x="290.576172" xlink:href="#DejaVuSans-48"/>
       <use x="354.199219" xlink:href="#DejaVuSans-49"/>
      </g>
     </g>
    </g>
    <g id="xtick_5">
     <g id="line2d_9">
      <path clip-path="url(#p87d3529c77)" d="M 669.369118 444.0744 
L 669.369118 59.8752 
" style="fill:none;stroke:#b0b0b0;stroke-linecap:square;stroke-width:0.8;"/>
     </g>
     <g id="line2d_10">
      <g>
       <use style="stroke:#000000;stroke-width:0.8;" x="669.369118" xlink:href="#mba0156b4d0" y="444.0744"/>
      </g>
     </g>
     <g id="text_5">
      <!-- 2019-02 -->
      <g transform="translate(648.477712 458.672838)scale(0.1 -0.1)">
       <use xlink:href="#DejaVuSans-50"/>
       <use x="63.623047" xlink:href="#DejaVuSans-48"/>
       <use x="127.246094" xlink:href="#DejaVuSans-49"/>
       <use x="190.869141" xlink:href="#DejaVuSans-57"/>
       <use x="254.492188" xlink:href="#DejaVuSans-45"/>
       <use x="290.576172" xlink:href="#DejaVuSans-48"/>
       <use x="354.199219" xlink:href="#DejaVuSans-50"/>
      </g>
     </g>
    </g>
    <g id="xtick_6">
     <g id="line2d_11">
      <path clip-path="url(#p87d3529c77)" d="M 775.111501 444.0744 
L 775.111501 59.8752 
" style="fill:none;stroke:#b0b0b0;stroke-linecap:square;stroke-width:0.8;"/>
     </g>
     <g id="line2d_12">
      <g>
       <use style="stroke:#000000;stroke-width:0.8;" x="775.111501" xlink:href="#mba0156b4d0" y="444.0744"/>
      </g>
     </g>
     <g id="text_6">
      <!-- 2019-03 -->
      <defs>
       <path d="M 40.578125 39.3125 
Q 47.65625 37.796875 51.625 33 
Q 55.609375 28.21875 55.609375 21.1875 
Q 55.609375 10.40625 48.1875 4.484375 
Q 40.765625 -1.421875 27.09375 -1.421875 
Q 22.515625 -1.421875 17.65625 -0.515625 
Q 12.796875 0.390625 7.625 2.203125 
L 7.625 11.71875 
Q 11.71875 9.328125 16.59375 8.109375 
Q 21.484375 6.890625 26.8125 6.890625 
Q 36.078125 6.890625 40.9375 10.546875 
Q 45.796875 14.203125 45.796875 21.1875 
Q 45.796875 27.640625 41.28125 31.265625 
Q 36.765625 34.90625 28.71875 34.90625 
L 20.21875 34.90625 
L 20.21875 43.015625 
L 29.109375 43.015625 
Q 36.375 43.015625 40.234375 45.921875 
Q 44.09375 48.828125 44.09375 54.296875 
Q 44.09375 59.90625 40.109375 62.90625 
Q 36.140625 65.921875 28.71875 65.921875 
Q 24.65625 65.921875 20.015625 65.03125 
Q 15.375 64.15625 9.8125 62.3125 
L 9.8125 71.09375 
Q 15.4375 72.65625 20.34375 73.4375 
Q 25.25 74.21875 29.59375 74.21875 
Q 40.828125 74.21875 47.359375 69.109375 
Q 53.90625 64.015625 53.90625 55.328125 
Q 53.90625 49.265625 50.4375 45.09375 
Q 46.96875 40.921875 40.578125 39.3125 
z
" id="DejaVuSans-51"/>
      </defs>
      <g transform="translate(754.220095 458.672838)scale(0.1 -0.1)">
       <use xlink:href="#DejaVuSans-50"/>
       <use x="63.623047" xlink:href="#DejaVuSans-48"/>
       <use x="127.246094" xlink:href="#DejaVuSans-49"/>
       <use x="190.869141" xlink:href="#DejaVuSans-57"/>
       <use x="254.492188" xlink:href="#DejaVuSans-45"/>
       <use x="290.576172" xlink:href="#DejaVuSans-48"/>
       <use x="354.199219" xlink:href="#DejaVuSans-51"/>
      </g>
     </g>
    </g>
   </g>
   <g id="matplotlib.axis_2">
    <g id="ytick_1">
     <g id="line2d_13">
      <path clip-path="url(#p87d3529c77)" d="M 115.2 444.0744 
L 829.44 444.0744 
" style="fill:none;stroke:#b0b0b0;stroke-linecap:square;stroke-width:0.8;"/>
     </g>
     <g id="line2d_14">
      <defs>
       <path d="M 0 0 
L -3.5 0 
" id="mbd633de4c6" style="stroke:#000000;stroke-width:0.8;"/>
      </defs>
      <g>
       <use style="stroke:#000000;stroke-width:0.8;" x="115.2" xlink:href="#mbd633de4c6" y="444.0744"/>
      </g>
     </g>
     <g id="text_7">
      <!-- 0 -->
      <g transform="translate(101.8375 447.873619)scale(0.1 -0.1)">
       <use xlink:href="#DejaVuSans-48"/>
      </g>
     </g>
    </g>
    <g id="ytick_2">
     <g id="line2d_15">
      <path clip-path="url(#p87d3529c77)" d="M 115.2 396.0495 
L 829.44 396.0495 
" style="fill:none;stroke:#b0b0b0;stroke-linecap:square;stroke-width:0.8;"/>
     </g>
     <g id="line2d_16">
      <g>
       <use style="stroke:#000000;stroke-width:0.8;" x="115.2" xlink:href="#mbd633de4c6" y="396.0495"/>
      </g>
     </g>
     <g id="text_8">
      <!-- 5 -->
      <defs>
       <path d="M 10.796875 72.90625 
L 49.515625 72.90625 
L 49.515625 64.59375 
L 19.828125 64.59375 
L 19.828125 46.734375 
Q 21.96875 47.46875 24.109375 47.828125 
Q 26.265625 48.1875 28.421875 48.1875 
Q 40.625 48.1875 47.75 41.5 
Q 54.890625 34.8125 54.890625 23.390625 
Q 54.890625 11.625 47.5625 5.09375 
Q 40.234375 -1.421875 26.90625 -1.421875 
Q 22.3125 -1.421875 17.546875 -0.640625 
Q 12.796875 0.140625 7.71875 1.703125 
L 7.71875 11.625 
Q 12.109375 9.234375 16.796875 8.0625 
Q 21.484375 6.890625 26.703125 6.890625 
Q 35.15625 6.890625 40.078125 11.328125 
Q 45.015625 15.765625 45.015625 23.390625 
Q 45.015625 31 40.078125 35.4375 
Q 35.15625 39.890625 26.703125 39.890625 
Q 22.75 39.890625 18.8125 39.015625 
Q 14.890625 38.140625 10.796875 36.28125 
z
" id="DejaVuSans-53"/>
      </defs>
      <g transform="translate(101.8375 399.848719)scale(0.1 -0.1)">
       <use xlink:href="#DejaVuSans-53"/>
      </g>
     </g>
    </g>
    <g id="ytick_3">
     <g id="line2d_17">
      <path clip-path="url(#p87d3529c77)" d="M 115.2 348.0246 
L 829.44 348.0246 
" style="fill:none;stroke:#b0b0b0;stroke-linecap:square;stroke-width:0.8;"/>
     </g>
     <g id="line2d_18">
      <g>
       <use style="stroke:#000000;stroke-width:0.8;" x="115.2" xlink:href="#mbd633de4c6" y="348.0246"/>
      </g>
     </g>
     <g id="text_9">
      <!-- 10 -->
      <g transform="translate(95.475 351.823819)scale(0.1 -0.1)">
       <use xlink:href="#DejaVuSans-49"/>
       <use x="63.623047" xlink:href="#DejaVuSans-48"/>
      </g>
     </g>
    </g>
    <g id="ytick_4">
     <g id="line2d_19">
      <path clip-path="url(#p87d3529c77)" d="M 115.2 299.9997 
L 829.44 299.9997 
" style="fill:none;stroke:#b0b0b0;stroke-linecap:square;stroke-width:0.8;"/>
     </g>
     <g id="line2d_20">
      <g>
       <use style="stroke:#000000;stroke-width:0.8;" x="115.2" xlink:href="#mbd633de4c6" y="299.9997"/>
      </g>
     </g>
     <g id="text_10">
      <!-- 15 -->
      <g transform="translate(95.475 303.798919)scale(0.1 -0.1)">
       <use xlink:href="#DejaVuSans-49"/>
       <use x="63.623047" xlink:href="#DejaVuSans-53"/>
      </g>
     </g>
    </g>
    <g id="ytick_5">
     <g id="line2d_21">
      <path clip-path="url(#p87d3529c77)" d="M 115.2 251.9748 
L 829.44 251.9748 
" style="fill:none;stroke:#b0b0b0;stroke-linecap:square;stroke-width:0.8;"/>
     </g>
     <g id="line2d_22">
      <g>
       <use style="stroke:#000000;stroke-width:0.8;" x="115.2" xlink:href="#mbd633de4c6" y="251.9748"/>
      </g>
     </g>
     <g id="text_11">
      <!-- 20 -->
      <g transform="translate(95.475 255.774019)scale(0.1 -0.1)">
       <use xlink:href="#DejaVuSans-50"/>
       <use x="63.623047" xlink:href="#DejaVuSans-48"/>
      </g>
     </g>
    </g>
    <g id="ytick_6">
     <g id="line2d_23">
      <path clip-path="url(#p87d3529c77)" d="M 115.2 203.9499 
L 829.44 203.9499 
" style="fill:none;stroke:#b0b0b0;stroke-linecap:square;stroke-width:0.8;"/>
     </g>
     <g id="line2d_24">
      <g>
       <use style="stroke:#000000;stroke-width:0.8;" x="115.2" xlink:href="#mbd633de4c6" y="203.9499"/>
      </g>
     </g>
     <g id="text_12">
      <!-- 25 -->
      <g transform="translate(95.475 207.749119)scale(0.1 -0.1)">
       <use xlink:href="#DejaVuSans-50"/>
       <use x="63.623047" xlink:href="#DejaVuSans-53"/>
      </g>
     </g>
    </g>
    <g id="ytick_7">
     <g id="line2d_25">
      <path clip-path="url(#p87d3529c77)" d="M 115.2 155.925 
L 829.44 155.925 
" style="fill:none;stroke:#b0b0b0;stroke-linecap:square;stroke-width:0.8;"/>
     </g>
     <g id="line2d_26">
      <g>
       <use style="stroke:#000000;stroke-width:0.8;" x="115.2" xlink:href="#mbd633de4c6" y="155.925"/>
      </g>
     </g>
     <g id="text_13">
      <!-- 30 -->
      <g transform="translate(95.475 159.724219)scale(0.1 -0.1)">
       <use xlink:href="#DejaVuSans-51"/>
       <use x="63.623047" xlink:href="#DejaVuSans-48"/>
      </g>
     </g>
    </g>
    <g id="ytick_8">
     <g id="line2d_27">
      <path clip-path="url(#p87d3529c77)" d="M 115.2 107.9001 
L 829.44 107.9001 
" style="fill:none;stroke:#b0b0b0;stroke-linecap:square;stroke-width:0.8;"/>
     </g>
     <g id="line2d_28">
      <g>
       <use style="stroke:#000000;stroke-width:0.8;" x="115.2" xlink:href="#mbd633de4c6" y="107.9001"/>
      </g>
     </g>
     <g id="text_14">
      <!-- 35 -->
      <g transform="translate(95.475 111.699319)scale(0.1 -0.1)">
       <use xlink:href="#DejaVuSans-51"/>
       <use x="63.623047" xlink:href="#DejaVuSans-53"/>
      </g>
     </g>
    </g>
    <g id="ytick_9">
     <g id="line2d_29">
      <path clip-path="url(#p87d3529c77)" d="M 115.2 59.8752 
L 829.44 59.8752 
" style="fill:none;stroke:#b0b0b0;stroke-linecap:square;stroke-width:0.8;"/>
     </g>
     <g id="line2d_30">
      <g>
       <use style="stroke:#000000;stroke-width:0.8;" x="115.2" xlink:href="#mbd633de4c6" y="59.8752"/>
      </g>
     </g>
     <g id="text_15">
      <!-- 40 -->
      <defs>
       <path d="M 37.796875 64.3125 
L 12.890625 25.390625 
L 37.796875 25.390625 
z
M 35.203125 72.90625 
L 47.609375 72.90625 
L 47.609375 25.390625 
L 58.015625 25.390625 
L 58.015625 17.1875 
L 47.609375 17.1875 
L 47.609375 0 
L 37.796875 0 
L 37.796875 17.1875 
L 4.890625 17.1875 
L 4.890625 26.703125 
z
" id="DejaVuSans-52"/>
      </defs>
      <g transform="translate(95.475 63.674419)scale(0.1 -0.1)">
       <use xlink:href="#DejaVuSans-52"/>
       <use x="63.623047" xlink:href="#DejaVuSans-48"/>
      </g>
     </g>
    </g>
   </g>
   <g id="line2d_31">
    <path clip-path="url(#p87d3529c77)" d="M -1 427.932244 
L 0.926199 428.226183 
L 4.702712 427.361735 
L 8.479226 424.576291 
L 19.808767 421.502697 
L 23.585281 424.76839 
L 27.361794 419.581701 
L 31.138308 424.96049 
L 34.914822 425.728888 
L 46.244363 426.689386 
L 50.020877 428.418283 
L 53.79739 426.785436 
L 57.573904 427.938034 
L 61.350418 428.706432 
L 72.679959 430.819528 
L 76.456472 430.435328 
L 80.232986 431.683976 
L 84.0095 430.051129 
L 87.786013 430.339279 
L 102.892068 429.57088 
L 110.445095 429.57088 
L 114.221609 428.322233 
L 125.55115 430.051129 
L 129.327664 431.587926 
L 151.986746 431.587926 
L 155.763259 434.853619 
L 167.0928 436.294366 
L 178.422341 434.853619 
L 182.198855 435.622018 
L 185.975369 435.141769 
L 189.751882 436.198316 
L 193.528396 436.006217 
L 204.857937 437.062765 
L 212.410964 437.062765 
L 216.187478 433.989171 
L 219.963992 433.989171 
L 231.293533 431.107677 
L 235.070046 434.46942 
L 238.84656 425.824938 
L 242.623074 421.022448 
L 246.399587 424.288141 
L 257.729128 424.096042 
L 261.505642 430.147179 
L 265.282156 429.955079 
L 269.058669 425.536789 
L 272.835183 426.305187 
L 284.164724 427.265685 
L 287.941238 419.773801 
L 291.717751 417.852805 
L 295.494265 418.717253 
L 299.270779 404.693982 
L 310.60032 407.575476 
L 314.376833 415.643659 
L 318.153347 424.288141 
L 321.929861 428.034083 
L 325.706374 427.265685 
L 337.035915 428.034083 
L 340.812429 431.491876 
L 344.588943 437.254864 
L 348.365456 436.966715 
L 352.14197 435.622018 
L 363.471511 430.147179 
L 367.248025 429.76298 
L 371.024538 430.147179 
L 374.801052 432.452374 
L 378.577566 435.237818 
L 389.907107 430.627428 
L 393.68362 424.096042 
L 397.460134 429.186681 
L 405.013161 428.706432 
L 416.342702 434.37337 
L 420.119216 436.102267 
L 423.89573 439.27191 
L 427.672243 438.119312 
L 431.448757 440.136358 
L 442.778298 441.865255 
L 446.554812 436.966715 
L 454.107839 431.395826 
L 457.884353 430.723478 
L 469.213894 434.949669 
L 472.990407 435.910167 
L 476.766921 439.560059 
L 480.543435 439.752159 
L 484.319948 437.062765 
L 495.649489 428.226183 
L 499.426003 426.401237 
L 503.202517 423.519743 
L 506.97903 411.033269 
L 510.755544 378.760536 
L 522.085085 327.277843 
L 529.638112 419.581701 
L 533.414626 428.610382 
L 537.19114 433.989171 
L 548.520681 443.97835 
L 548.520681 443.97835 
" style="fill:none;stroke:#1f77b4;stroke-linecap:square;stroke-opacity:0.75;"/>
   </g>
   <g id="line2d_32">
    <path clip-path="url(#p87d3529c77)" d="M -1 424.95663 
L 0.926199 425.152589 
L 4.702712 425.248639 
L 8.479226 420.06195 
L 19.808767 417.948854 
L 23.585281 421.790846 
L 27.361794 417.948854 
L 31.138308 422.655295 
L 34.914822 423.231593 
L 46.244363 424.288141 
L 53.79739 424.576291 
L 57.573904 424.384191 
L 61.350418 425.536789 
L 72.679959 427.457785 
L 76.456472 427.553834 
L 80.232986 428.610382 
L 84.0095 426.881486 
L 87.786013 426.305187 
L 102.892068 427.553834 
L 106.668582 426.977536 
L 110.445095 425.632838 
L 114.221609 425.344689 
L 125.55115 426.785436 
L 129.327664 428.418283 
L 133.104177 429.378781 
L 136.880691 431.011627 
L 140.657205 431.876075 
L 151.986746 430.723478 
L 155.763259 431.876075 
L 159.539773 432.740524 
L 163.316287 433.797071 
L 167.0928 433.797071 
L 178.422341 432.836573 
L 182.198855 433.316822 
L 185.975369 432.452374 
L 189.751882 433.508922 
L 193.528396 433.124723 
L 204.857937 434.66152 
L 208.634451 433.893121 
L 212.410964 434.46942 
L 216.187478 432.356324 
L 219.963992 430.627428 
L 231.293533 430.723478 
L 235.070046 430.915577 
L 238.84656 420.06195 
L 242.623074 408.824123 
L 246.399587 418.044904 
L 257.729128 418.621203 
L 261.505642 425.440739 
L 265.282156 426.689386 
L 269.058669 419.677751 
L 272.835183 421.406647 
L 284.164724 421.214548 
L 287.941238 419.005402 
L 291.717751 401.812488 
L 295.494265 415.739709 
L 299.270779 403.061135 
L 310.60032 400.94804 
L 314.376833 410.841169 
L 318.153347 417.372556 
L 321.929861 422.847394 
L 325.706374 420.06195 
L 337.035915 422.943444 
L 340.812429 426.017038 
L 344.588943 433.028673 
L 348.365456 433.028673 
L 352.14197 431.011627 
L 363.471511 423.615793 
L 367.248025 423.327643 
L 371.024538 420.734299 
L 374.801052 424.86444 
L 378.577566 428.514332 
L 389.907107 422.655295 
L 393.68362 414.298962 
L 397.460134 418.621203 
L 405.013161 415.739709 
L 416.342702 427.073585 
L 420.119216 428.514332 
L 423.89573 434.085221 
L 427.672243 432.644474 
L 431.448757 434.853619 
L 442.778298 438.311412 
L 446.554812 429.186681 
L 454.107839 428.322233 
L 457.884353 418.813303 
L 469.213894 423.807892 
L 472.990407 424.96049 
L 476.766921 427.938034 
L 480.543435 430.147179 
L 484.319948 423.615793 
L 495.649489 412.474016 
L 499.426003 409.208323 
L 503.202517 403.637434 
L 506.97903 388.845765 
L 510.755544 356.861182 
L 522.085085 306.531086 
L 529.638112 385.484022 
L 533.414626 391.919359 
L 537.19114 393.648255 
L 548.520681 411.225368 
L 556.073708 419.86985 
L 559.850222 395.377151 
L 563.626735 429.090631 
L 574.956276 434.27732 
L 578.73279 438.215362 
L 582.509304 440.424508 
L 586.285817 442.057354 
L 590.062331 443.306002 
L 601.391872 443.209952 
L 605.168386 443.690201 
L 612.721413 443.97835 
L 616.497927 443.97835 
L 616.497927 443.97835 
" style="fill:none;stroke:#ff7f0e;stroke-linecap:square;stroke-opacity:0.75;"/>
   </g>
   <g id="line2d_33">
    <path clip-path="url(#p87d3529c77)" d="M -1 414.824341 
L 0.926199 414.971311 
L 4.702712 415.06736 
L 8.479226 409.880671 
L 19.808767 407.287327 
L 23.585281 409.304372 
L 27.361794 405.75053 
L 31.138308 410.937219 
L 34.914822 412.377966 
L 53.79739 414.587111 
L 57.573904 413.530564 
L 61.350418 415.45156 
L 72.679959 418.140954 
L 76.456472 418.140954 
L 80.232986 419.389601 
L 84.0095 417.756755 
L 87.786013 417.852805 
L 102.892068 416.700207 
L 106.668582 416.219958 
L 110.445095 416.219958 
L 114.221609 413.914763 
L 125.55115 415.643659 
L 129.327664 417.372556 
L 136.880691 421.310597 
L 140.657205 422.559245 
L 151.986746 421.022448 
L 155.763259 422.271095 
L 159.539773 423.711842 
L 163.316287 425.344689 
L 167.0928 425.440739 
L 178.422341 423.807892 
L 182.198855 424.576291 
L 185.975369 424.576291 
L 189.751882 425.344689 
L 193.528396 424.384191 
L 204.857937 425.344689 
L 208.634451 425.344689 
L 212.410964 426.113087 
L 219.963992 419.86985 
L 231.293533 420.158 
L 235.070046 421.118498 
L 238.84656 405.55843 
L 242.623074 393.648255 
L 246.399587 404.693982 
L 257.729128 404.213733 
L 261.505642 410.937219 
L 265.282156 412.954265 
L 269.058669 404.982131 
L 272.835183 404.693982 
L 284.164724 406.230779 
L 287.941238 402.772986 
L 291.717751 382.506478 
L 295.494265 394.896902 
L 299.270779 381.44993 
L 310.60032 377.800038 
L 314.376833 387.405018 
L 318.153347 398.066546 
L 321.929861 403.541384 
L 325.706374 402.004588 
L 337.035915 404.405833 
L 340.812429 409.496472 
L 344.588943 419.485651 
L 348.365456 419.005402 
L 352.14197 413.818713 
L 363.471511 406.903127 
L 367.248025 403.349285 
L 371.024538 402.772986 
L 374.801052 404.117683 
L 378.577566 409.112273 
L 389.907107 400.94804 
L 393.68362 387.789217 
L 397.460134 394.512703 
L 405.013161 389.806263 
L 416.342702 403.637434 
L 420.119216 405.174231 
L 423.89573 415.835759 
L 427.672243 414.395012 
L 431.448757 416.412058 
L 442.778298 423.231593 
L 446.554812 409.112273 
L 454.107839 402.484837 
L 457.884353 392.495657 
L 469.213894 393.936404 
L 472.990407 398.066546 
L 476.766921 402.772986 
L 480.543435 400.65989 
L 484.319948 391.919359 
L 495.649489 376.263241 
L 499.426003 373.381747 
L 503.202517 367.810859 
L 506.97903 344.182608 
L 510.755544 322.475353 
L 522.085085 280.78974 
L 529.638112 348.985098 
L 533.414626 350.425845 
L 537.19114 353.307339 
L 548.520681 369.635805 
L 556.073708 376.83954 
L 559.850222 347.736451 
L 563.626735 386.828719 
L 574.956276 392.783807 
L 578.73279 401.332239 
L 582.509304 405.46238 
L 586.285817 408.920173 
L 590.062331 411.897717 
L 601.391872 410.745119 
L 605.168386 417.852805 
L 608.944899 418.909352 
L 612.721413 422.751344 
L 616.497927 426.977536 
L 631.603981 420.158 
L 635.380495 421.406647 
L 639.157009 423.519743 
L 642.933522 428.898532 
L 654.263063 425.920988 
L 658.039577 425.824938 
L 661.816091 432.068175 
L 665.592604 435.718067 
L 680.698659 438.407462 
L 684.475173 438.887711 
L 688.251686 438.887711 
L 692.0282 437.254864 
L 695.804714 438.407462 
L 707.134255 439.07981 
L 710.910768 440.520557 
L 714.687282 440.808707 
L 718.463796 440.424508 
L 722.240309 441.577105 
L 737.346364 442.249454 
L 741.122878 442.633653 
L 744.899391 442.537603 
L 748.675905 443.113902 
L 760.005446 442.729703 
L 767.558473 443.017852 
L 771.334987 442.921802 
L 775.111501 443.594151 
L 797.770583 443.594151 
L 801.547096 443.786251 
L 816.653151 443.97835 
L 827.982692 443.97835 
L 827.982692 443.97835 
" style="fill:none;stroke:#2ca02c;stroke-linecap:square;stroke-opacity:0.75;"/>
   </g>
   <g id="line2d_34">
    <path clip-path="url(#p87d3529c77)" d="M -1 398.162596 
L 4.702712 398.066546 
L 8.479226 394.512703 
L 19.808767 389.037865 
L 23.585281 393.264056 
L 27.361794 386.828719 
L 31.138308 394.032454 
L 34.914822 395.377151 
L 46.244363 395.377151 
L 50.020877 397.586297 
L 53.79739 397.586297 
L 57.573904 397.009998 
L 61.350418 399.123094 
L 72.679959 402.196687 
L 102.892068 402.196687 
L 106.668582 398.450745 
L 110.445095 396.2416 
L 114.221609 395.569251 
L 125.55115 397.106048 
L 129.327664 400.083592 
L 133.104177 401.332239 
L 136.880691 404.790032 
L 140.657205 404.790032 
L 151.986746 405.65448 
L 155.763259 406.807078 
L 159.539773 406.807078 
L 163.316287 410.168821 
L 167.0928 409.880671 
L 178.422341 407.575476 
L 185.975369 409.880671 
L 189.751882 410.36092 
L 193.528396 409.688572 
L 204.857937 411.225368 
L 208.634451 410.168821 
L 212.410964 410.168821 
L 216.187478 406.807078 
L 219.963992 402.772986 
L 231.293533 402.676936 
L 235.070046 403.253235 
L 238.84656 385.387972 
L 242.623074 370.788403 
L 246.399587 374.534345 
L 257.729128 374.534345 
L 261.505642 391.727259 
L 265.282156 389.326014 
L 269.058669 383.466976 
L 272.835183 382.506478 
L 284.164724 381.83413 
L 287.941238 374.534345 
L 291.717751 363.104419 
L 295.494265 367.42666 
L 299.270779 355.708584 
L 310.60032 346.968052 
L 314.376833 364.641215 
L 318.153347 377.319789 
L 321.929861 380.201283 
L 325.706374 376.263241 
L 337.035915 377.127689 
L 340.812429 384.139325 
L 344.588943 397.586297 
L 348.365456 397.586297 
L 352.14197 392.687757 
L 363.471511 383.082777 
L 367.248025 379.240785 
L 371.024538 369.923954 
L 374.801052 379.336835 
L 378.577566 383.563026 
L 389.907107 374.342245 
L 393.68362 359.454526 
L 397.460134 364.160966 
L 405.013161 363.296518 
L 416.342702 374.438295 
L 420.119216 375.398793 
L 423.89573 386.44452 
L 427.672243 389.326014 
L 431.448757 390.862811 
L 442.778298 399.219143 
L 446.554812 380.969681 
L 454.107839 374.630395 
L 457.884353 360.895273 
L 469.213894 364.449116 
L 472.990407 364.064917 
L 476.766921 369.443705 
L 480.543435 368.002958 
L 484.319948 355.708584 
L 495.649489 336.018375 
L 499.426003 337.843321 
L 503.202517 324.684499 
L 506.97903 303.937742 
L 510.755544 287.993475 
L 522.085085 247.748609 
L 529.638112 313.254572 
L 533.414626 300.479949 
L 537.19114 315.943967 
L 548.520681 325.164748 
L 556.073708 335.442076 
L 559.850222 308.548132 
L 563.626735 343.798409 
L 574.956276 354.267837 
L 578.73279 360.895273 
L 582.509304 365.121464 
L 586.285817 369.635805 
L 590.062331 371.84495 
L 601.391872 370.692353 
L 605.168386 380.585482 
L 608.944899 382.506478 
L 612.721413 386.44452 
L 616.497927 394.224554 
L 631.603981 379.144735 
L 635.380495 385.387972 
L 639.157009 389.326014 
L 642.933522 395.281102 
L 654.263063 386.63662 
L 658.039577 389.710213 
L 661.816091 400.371741 
L 665.592604 407.095227 
L 669.369118 408.343874 
L 680.698659 411.897717 
L 684.475173 414.298962 
L 688.251686 414.875261 
L 692.0282 409.784621 
L 707.134255 412.377966 
L 710.910768 417.660705 
L 714.687282 418.717253 
L 718.463796 417.468605 
L 722.240309 420.638249 
L 737.346364 423.231593 
L 741.122878 424.288141 
L 744.899391 422.559245 
L 748.675905 425.632838 
L 760.005446 425.824938 
L 763.78196 425.632838 
L 767.558473 425.728888 
L 771.334987 425.440739 
L 775.111501 427.938034 
L 786.441042 426.593336 
L 790.217555 426.881486 
L 797.770583 421.598747 
L 801.547096 421.310597 
L 812.876637 427.841984 
L 816.653151 429.85903 
L 820.429665 431.299777 
L 824.206178 431.876075 
L 827.982692 432.740524 
L 839.312233 433.508922 
L 843.088747 433.508922 
L 846.86526 432.932623 
L 850.641774 434.46942 
L 854.418288 427.841984 
L 865.747829 428.994581 
L 869.524342 432.068175 
L 873.300856 431.203727 
L 877.07737 432.836573 
L 880.853883 434.853619 
L 892.183424 436.582516 
L 895.959938 436.774615 
L 899.736452 436.774615 
L 903.512965 437.350914 
L 907.289479 438.215362 
L 922.6 437.537813 
L 922.6 437.537813 
" style="fill:none;stroke:#d62728;stroke-linecap:square;stroke-opacity:0.75;"/>
   </g>
   <g id="line2d_35">
    <path clip-path="url(#p87d3529c77)" d="M -1 384.139325 
L 8.479226 384.043275 
L 19.808767 374.726444 
L 23.585281 374.726444 
L 27.361794 373.285697 
L 31.138308 373.285697 
L 34.914822 381.065731 
L 46.244363 381.065731 
L 50.020877 384.043275 
L 53.79739 384.043275 
L 57.573904 382.602528 
L 61.350418 385.772171 
L 72.679959 388.557616 
L 76.456472 388.845765 
L 80.232986 388.845765 
L 84.0095 387.308968 
L 106.668582 387.308968 
L 110.445095 381.73808 
L 114.221609 380.681532 
L 125.55115 382.602528 
L 129.327664 382.602528 
L 133.104177 387.981317 
L 136.880691 387.981317 
L 140.657205 391.535159 
L 151.986746 390.958861 
L 155.763259 391.34306 
L 159.539773 394.704803 
L 163.316287 395.377151 
L 167.0928 396.2416 
L 178.422341 396.2416 
L 182.198855 395.569251 
L 204.857937 395.569251 
L 208.634451 395.8574 
L 212.410964 395.8574 
L 216.187478 390.382562 
L 219.963992 387.693167 
L 231.293533 387.693167 
L 235.070046 388.845765 
L 238.84656 370.884452 
L 242.623074 361.087373 
L 246.399587 355.612534 
L 257.729128 368.002958 
L 265.282156 377.127689 
L 269.058669 365.505664 
L 272.835183 368.963456 
L 284.164724 364.833315 
L 287.941238 361.375522 
L 291.717751 349.561397 
L 295.494265 350.425845 
L 299.270779 338.41962 
L 310.60032 335.346026 
L 314.376833 340.532716 
L 318.153347 358.205879 
L 321.929861 358.590078 
L 337.035915 358.590078 
L 340.812429 365.985913 
L 344.588943 377.319789 
L 348.365456 377.319789 
L 352.14197 373.189648 
L 363.471511 370.404203 
L 367.248025 370.404203 
L 371.024538 350.521895 
L 374.801052 352.63499 
L 378.577566 365.409614 
L 389.907107 350.329795 
L 393.68362 336.978873 
L 397.460134 344.374708 
L 405.013161 341.012965 
L 416.342702 352.92314 
L 420.119216 352.92314 
L 423.89573 365.697763 
L 427.672243 368.099008 
L 431.448757 368.099008 
L 442.778298 379.913134 
L 446.554812 362.52812 
L 454.107839 351.866592 
L 457.884353 335.249977 
L 469.213894 338.41962 
L 472.990407 346.872002 
L 476.766921 348.792998 
L 480.543435 344.374708 
L 484.319948 329.679088 
L 495.649489 307.779734 
L 499.426003 308.356033 
L 503.202517 301.248347 
L 506.97903 276.17935 
L 510.755544 269.647963 
L 522.085085 238.047579 
L 529.638112 280.405541 
L 533.414626 288.473724 
L 548.520681 302.016746 
L 556.073708 310.565178 
L 559.850222 281.269989 
L 563.626735 318.537311 
L 574.956276 324.780548 
L 578.73279 334.097379 
L 582.509304 340.628765 
L 586.285817 342.549761 
L 590.062331 343.606309 
L 601.391872 346.103604 
L 605.168386 354.555986 
L 608.944899 357.245381 
L 612.721413 361.471572 
L 616.497927 370.308154 
L 631.603981 356.284883 
L 635.380495 360.318974 
L 639.157009 363.296518 
L 642.933522 369.923954 
L 654.263063 363.008369 
L 658.039577 364.833315 
L 661.816091 376.64744 
L 665.592604 381.257831 
L 669.369118 383.851175 
L 680.698659 389.133914 
L 684.475173 392.111458 
L 688.251686 392.495657 
L 692.0282 386.54057 
L 695.804714 386.732669 
L 707.134255 388.461566 
L 710.910768 395.8574 
L 714.687282 396.625799 
L 718.463796 395.8574 
L 722.240309 400.563841 
L 737.346364 403.445335 
L 741.122878 403.733484 
L 744.899391 403.829534 
L 748.675905 407.191277 
L 760.005446 407.959675 
L 763.78196 405.55843 
L 767.558473 405.84658 
L 771.334987 406.422878 
L 775.111501 409.208323 
L 786.441042 406.711028 
L 790.217555 407.575476 
L 793.994069 403.733484 
L 797.770583 398.066546 
L 801.547096 394.128504 
L 812.876637 398.834944 
L 816.653151 409.208323 
L 820.429665 413.338464 
L 824.206178 413.434514 
L 827.982692 414.683161 
L 839.312233 416.219958 
L 843.088747 414.395012 
L 846.86526 415.931809 
L 850.641774 418.333054 
L 854.418288 408.632024 
L 865.747829 408.343874 
L 869.524342 412.185866 
L 873.300856 410.64907 
L 877.07737 412.666115 
L 880.853883 415.16341 
L 892.183424 420.06195 
L 895.959938 420.542199 
L 903.512965 420.25405 
L 907.289479 422.655295 
L 918.61902 422.847394 
L 922.395534 420.830348 
L 922.6 420.877151 
L 922.6 420.877151 
" style="fill:none;stroke:#9467bd;stroke-linecap:square;stroke-opacity:0.75;"/>
   </g>
   <g id="line2d_36">
    <path clip-path="url(#p87d3529c77)" d="M -1 370.890242 
L 0.926199 370.596303 
L 4.702712 370.596303 
L 8.479226 366.081962 
L 19.808767 360.607124 
L 23.585281 360.607124 
L 27.361794 360.030825 
L 31.138308 366.754311 
L 34.914822 366.370112 
L 46.244363 366.370112 
L 50.020877 372.03705 
L 53.79739 371.076552 
L 57.573904 372.03705 
L 61.350418 373.958046 
L 72.679959 376.93559 
L 76.456472 376.551391 
L 80.232986 376.551391 
L 84.0095 374.630395 
L 102.892068 374.630395 
L 106.668582 371.076552 
L 110.445095 369.827905 
L 125.55115 369.827905 
L 129.327664 373.477797 
L 133.104177 373.477797 
L 136.880691 378.760536 
L 140.657205 379.913134 
L 151.986746 379.336835 
L 155.763259 380.201283 
L 159.539773 380.201283 
L 163.316287 385.003773 
L 167.0928 385.387972 
L 178.422341 383.755126 
L 182.198855 383.755126 
L 185.975369 385.003773 
L 189.751882 385.003773 
L 193.528396 382.890677 
L 204.857937 382.890677 
L 208.634451 385.003773 
L 212.410964 386.828719 
L 216.187478 380.201283 
L 219.963992 373.958046 
L 231.293533 370.884452 
L 235.070046 370.884452 
L 238.84656 356.669082 
L 242.623074 351.770542 
L 246.399587 355.132285 
L 257.729128 354.267837 
L 261.505642 362.912319 
L 265.282156 363.680717 
L 269.058669 351.866592 
L 272.835183 352.73104 
L 284.164724 351.098194 
L 287.941238 346.775953 
L 291.717751 321.418805 
L 295.494265 335.057877 
L 299.270779 316.424216 
L 310.60032 315.751867 
L 314.376833 319.689909 
L 318.153347 343.31816 
L 321.929861 347.064102 
L 325.706374 341.589263 
L 337.035915 348.0246 
L 340.812429 352.63499 
L 344.588943 363.872817 
L 348.365456 368.195058 
L 352.14197 362.143921 
L 363.471511 349.465347 
L 367.248025 344.662857 
L 371.024538 339.284068 
L 374.801052 339.284068 
L 378.577566 349.465347 
L 389.907107 334.673678 
L 393.68362 319.30571 
L 397.460134 329.102789 
L 405.013161 319.30571 
L 416.342702 319.30571 
L 420.119216 337.651222 
L 423.89573 349.753496 
L 427.672243 349.561397 
L 431.448757 353.883638 
L 442.778298 364.160966 
L 446.554812 341.877413 
L 454.107839 322.091154 
L 457.884353 325.164748 
L 469.213894 314.983469 
L 472.990407 314.983469 
L 476.766921 334.097379 
L 480.543435 325.933146 
L 484.319948 310.949377 
L 495.649489 291.739417 
L 499.426003 290.39472 
L 503.202517 282.038387 
L 506.97903 263.788925 
L 510.755544 242.46587 
L 522.085085 217.877121 
L 529.638112 267.246718 
L 533.414626 266.862519 
L 537.19114 274.162304 
L 548.520681 274.162304 
L 556.073708 285.59223 
L 559.850222 269.359814 
L 563.626735 299.9997 
L 574.956276 309.124431 
L 578.73279 313.542722 
L 582.509304 321.130656 
L 586.285817 320.938556 
L 590.062331 323.82005 
L 601.391872 322.667453 
L 605.168386 334.577628 
L 608.944899 338.803819 
L 612.721413 338.32357 
L 616.497927 350.137696 
L 631.603981 334.577628 
L 635.380495 342.837911 
L 639.157009 344.566807 
L 642.933522 350.329795 
L 654.263063 338.707769 
L 658.039577 343.22211 
L 661.816091 355.708584 
L 665.592604 355.708584 
L 669.369118 364.737265 
L 680.698659 364.737265 
L 684.475173 373.765946 
L 688.251686 372.997548 
L 695.804714 361.279472 
L 707.134255 361.279472 
L 710.910768 376.64744 
L 714.687282 378.376337 
L 718.463796 376.359291 
L 722.240309 380.105233 
L 737.346364 385.291922 
L 741.122878 386.828719 
L 744.899391 383.755126 
L 748.675905 388.365516 
L 763.78196 388.365516 
L 767.558473 388.557616 
L 771.334987 388.557616 
L 775.111501 390.670711 
L 786.441042 388.845765 
L 790.217555 389.326014 
L 793.994069 385.484022 
L 797.770583 378.664486 
L 801.547096 378.664486 
L 812.876637 386.44452 
L 816.653151 391.43911 
L 820.429665 396.2416 
L 824.206178 396.2416 
L 827.982692 399.027044 
L 839.312233 399.411243 
L 843.088747 400.371741 
L 846.86526 398.642845 
L 850.641774 401.812488 
L 854.418288 390.094412 
L 865.747829 387.501068 
L 869.524342 395.089002 
L 873.300856 391.535159 
L 877.07737 394.512703 
L 880.853883 397.202098 
L 892.183424 403.541384 
L 899.736452 404.597932 
L 903.512965 404.597932 
L 907.289479 407.287327 
L 918.61902 408.055725 
L 922.395534 404.693982 
L 922.6 404.83439 
L 922.6 404.83439 
" style="fill:none;stroke:#8c564b;stroke-linecap:square;stroke-opacity:0.75;"/>
   </g>
   <g id="line2d_37">
    <path clip-path="url(#p87d3529c77)" d="M -1 366.274062 
L 4.702712 366.274062 
L 8.479226 360.030825 
L 19.808767 357.341431 
L 31.138308 357.341431 
L 34.914822 362.912319 
L 50.020877 362.912319 
L 53.79739 368.387158 
L 57.573904 367.33061 
L 61.350418 371.076552 
L 72.679959 371.652851 
L 76.456472 375.879042 
L 80.232986 375.206693 
L 129.327664 375.206693 
L 133.104177 373.573847 
L 140.657205 373.573847 
L 151.986746 374.822494 
L 155.763259 377.319789 
L 193.528396 377.319789 
L 204.857937 381.065731 
L 219.963992 381.065731 
L 231.293533 369.731855 
L 235.070046 369.731855 
L 238.84656 363.200468 
L 242.623074 336.978873 
L 246.399587 351.002144 
L 257.729128 350.906094 
L 261.505642 357.62958 
L 265.282156 362.33602 
L 269.058669 362.33602 
L 272.835183 353.883638 
L 284.164724 353.883638 
L 287.941238 343.22211 
L 295.494265 343.22211 
L 299.270779 328.334391 
L 310.60032 319.20966 
L 314.376833 319.20966 
L 318.153347 341.205064 
L 321.929861 341.205064 
L 325.706374 340.340616 
L 337.035915 340.916915 
L 340.812429 340.916915 
L 344.588943 364.064917 
L 348.365456 365.313564 
L 352.14197 365.313564 
L 363.471511 346.968052 
L 367.248025 348.696949 
L 371.024538 336.690724 
L 374.801052 340.532716 
L 378.577566 340.532716 
L 389.907107 331.984283 
L 393.68362 317.288664 
L 397.460134 317.288664 
L 405.013161 315.751867 
L 416.342702 329.198839 
L 420.119216 331.119835 
L 423.89573 331.119835 
L 427.672243 348.12065 
L 431.448757 348.792998 
L 442.778298 361.087373 
L 446.554812 357.53353 
L 454.107839 317.768913 
L 457.884353 311.141477 
L 469.213894 307.395535 
L 472.990407 312.005925 
L 476.766921 324.1082 
L 480.543435 326.029196 
L 484.319948 304.70614 
L 495.649489 304.70614 
L 499.426003 294.140662 
L 503.202517 273.201806 
L 506.97903 265.325722 
L 510.755544 240.833023 
L 522.085085 207.983992 
L 529.638112 264.941523 
L 533.414626 231.035944 
L 537.19114 270.224262 
L 548.520681 282.038387 
L 556.073708 288.089525 
L 559.850222 258.890386 
L 563.626735 295.581409 
L 574.956276 303.457493 
L 582.509304 317.096564 
L 586.285817 316.808415 
L 590.062331 319.882009 
L 601.391872 321.034606 
L 605.168386 328.71859 
L 608.944899 334.385528 
L 612.721413 334.193429 
L 616.497927 346.487803 
L 631.603981 332.080333 
L 635.380495 336.978873 
L 639.157009 339.284068 
L 642.933522 345.239156 
L 654.263063 334.481578 
L 658.039577 339.380118 
L 661.816091 348.0246 
L 665.592604 357.62958 
L 680.698659 362.62417 
L 684.475173 369.155556 
L 688.251686 368.291108 
L 692.0282 359.646626 
L 695.804714 356.765132 
L 707.134255 364.833315 
L 710.910768 372.997548 
L 714.687282 373.958046 
L 718.463796 371.556801 
L 722.240309 377.511889 
L 737.346364 379.336835 
L 741.122878 380.489432 
L 744.899391 380.489432 
L 748.675905 382.986727 
L 760.005446 387.693167 
L 763.78196 385.964271 
L 767.558473 385.964271 
L 771.334987 384.235375 
L 775.111501 388.365516 
L 786.441042 380.297333 
L 790.217555 385.484022 
L 793.994069 380.009183 
L 797.770583 373.285697 
L 801.547096 368.099008 
L 812.876637 383.082777 
L 816.653151 386.63662 
L 820.429665 392.111458 
L 824.206178 392.111458 
L 827.982692 393.648255 
L 839.312233 395.665301 
L 843.088747 395.281102 
L 846.86526 394.128504 
L 850.641774 397.778396 
L 854.418288 388.557616 
L 865.747829 385.964271 
L 869.524342 389.710213 
L 873.300856 387.116869 
L 877.07737 389.518114 
L 880.853883 394.032454 
L 892.183424 399.891492 
L 895.959938 400.563841 
L 899.736452 400.467791 
L 903.512965 400.85199 
L 907.289479 403.637434 
L 918.61902 404.309783 
L 922.395534 401.908538 
L 922.6 402.007343 
L 922.6 402.007343 
" style="fill:none;stroke:#e377c2;stroke-linecap:square;stroke-opacity:0.75;"/>
   </g>
   <g id="line2d_38">
    <path clip-path="url(#p87d3529c77)" d="M -1 357.5748 
L 0.926199 357.917729 
L 23.585281 357.917729 
L 27.361794 346.295704 
L 31.138308 354.171787 
L 34.914822 354.171787 
L 46.244363 357.72563 
L 50.020877 360.511074 
L 57.573904 360.511074 
L 61.350418 363.104419 
L 72.679959 444.0744 
L 87.786013 444.0744 
L 102.892068 363.104419 
L 140.657205 363.104419 
L 151.986746 367.714809 
L 163.316287 367.714809 
L 167.0928 372.997548 
L 178.422341 372.22915 
L 193.528396 372.22915 
L 204.857937 375.590893 
L 208.634451 375.590893 
L 212.410964 372.997548 
L 216.187478 372.997548 
L 219.963992 363.776767 
L 238.84656 363.776767 
L 242.623074 325.452897 
L 246.399587 325.452897 
L 257.729128 340.532716 
L 265.282156 340.532716 
L 269.058669 347.448301 
L 284.164724 347.448301 
L 287.941238 320.170158 
L 291.717751 317.192614 
L 295.494265 319.30571 
L 325.706374 319.30571 
L 337.035915 327.854142 
L 340.812429 327.854142 
L 344.588943 354.748086 
L 348.365456 358.013779 
L 389.907107 358.013779 
L 393.68362 306.338987 
L 405.013161 306.338987 
L 416.342702 319.20966 
L 423.89573 319.20966 
L 427.672243 334.289479 
L 431.448757 336.210475 
L 446.554812 336.210475 
L 454.107839 303.745642 
L 457.884353 303.841692 
L 480.543435 303.841692 
L 484.319948 298.943152 
L 495.649489 276.947748 
L 499.426003 283.671234 
L 503.202517 257.641738 
L 506.97903 244.098716 
L 510.755544 228.730748 
L 522.085085 207.983992 
L 529.638112 251.9748 
L 533.414626 257.929888 
L 537.19114 261.099531 
L 548.520681 265.421772 
L 556.073708 263.884975 
L 559.850222 248.228858 
L 563.626735 276.275399 
L 574.956276 293.948563 
L 578.73279 298.270804 
L 582.509304 303.841692 
L 586.285817 296.157708 
L 590.062331 306.338987 
L 601.391872 308.548132 
L 605.168386 318.345212 
L 608.944899 322.091154 
L 612.721413 321.322756 
L 616.497927 334.385528 
L 631.603981 316.424216 
L 635.380495 314.50322 
L 639.157009 324.684499 
L 642.933522 335.346026 
L 654.263063 325.260797 
L 658.039577 325.260797 
L 661.816091 330.639586 
L 665.592604 345.623355 
L 669.369118 346.679903 
L 680.698659 351.674492 
L 684.475173 358.013779 
L 688.251686 357.53353 
L 692.0282 348.985098 
L 695.804714 348.504849 
L 707.134255 352.63499 
L 710.910768 361.087373 
L 714.687282 362.912319 
L 718.463796 358.782178 
L 722.240309 365.121464 
L 737.346364 368.387158 
L 741.122878 368.387158 
L 744.899391 370.788403 
L 748.675905 372.03705 
L 760.005446 377.319789 
L 763.78196 373.669897 
L 767.558473 373.189648 
L 771.334987 373.189648 
L 775.111501 376.74349 
L 786.441042 372.613349 
L 790.217555 373.669897 
L 793.994069 367.23456 
L 797.770583 363.584668 
L 801.547096 357.62958 
L 812.876637 369.539755 
L 816.653151 373.861996 
L 820.429665 373.861996 
L 824.206178 377.607938 
L 827.982692 381.73808 
L 839.312233 382.506478 
L 843.088747 380.873632 
L 846.86526 383.563026 
L 850.641774 385.868221 
L 854.418288 380.681532 
L 873.300856 380.681532 
L 877.07737 375.879042 
L 880.853883 375.879042 
L 892.183424 387.020819 
L 895.959938 387.212918 
L 899.736452 388.749715 
L 903.512965 389.037865 
L 907.289479 392.207508 
L 922.6 392.207508 
L 922.6 392.207508 
" style="fill:none;stroke:#7f7f7f;stroke-linecap:square;stroke-opacity:0.75;"/>
   </g>
   <g id="line2d_39">
    <path clip-path="url(#p87d3529c77)" d="M -1 315.847917 
L 8.479226 315.847917 
L 19.808767 341.973463 
L 46.244363 341.973463 
L 50.020877 348.985098 
L 61.350418 348.985098 
L 72.679959 353.787588 
L 106.668582 353.787588 
L 110.445095 347.544351 
L 125.55115 347.544351 
L 129.327664 350.137696 
L 167.0928 350.137696 
L 178.422341 359.166377 
L 182.198855 360.991323 
L 204.857937 360.991323 
L 208.634451 361.471572 
L 257.729128 361.471572 
L 261.505642 338.899869 
L 299.270779 338.899869 
L 310.60032 295.00511 
L 314.376833 295.00511 
L 318.153347 316.328166 
L 321.929861 320.458307 
L 337.035915 320.458307 
L 340.812429 325.452897 
L 378.577566 325.452897 
L 389.907107 317.288664 
L 393.68362 298.078704 
L 397.460134 302.689094 
L 405.013161 302.689094 
L 416.342702 304.80219 
L 420.119216 308.163933 
L 423.89573 322.091154 
L 427.672243 322.091154 
L 431.448757 321.130656 
L 442.778298 338.899869 
L 469.213894 338.899869 
L 472.990407 296.445857 
L 476.766921 296.445857 
L 480.543435 294.524861 
L 484.319948 287.705326 
L 495.649489 258.698286 
L 499.426003 259.658784 
L 503.202517 269.455864 
L 506.97903 229.979396 
L 510.755544 224.792707 
L 522.085085 189.44638 
L 529.638112 238.527828 
L 533.414626 243.810567 
L 537.19114 249.765655 
L 548.520681 249.765655 
L 556.073708 253.703696 
L 559.850222 247.17231 
L 563.626735 261.291631 
L 574.956276 266.958569 
L 578.73279 279.829242 
L 582.509304 289.050023 
L 586.285817 291.163118 
L 601.391872 291.163118 
L 605.168386 301.440447 
L 608.944899 306.242937 
L 612.721413 308.163933 
L 616.497927 317.672863 
L 635.380495 317.672863 
L 639.157009 307.587634 
L 642.933522 319.11361 
L 654.263063 306.723186 
L 658.039577 310.853327 
L 661.816091 322.571403 
L 665.592604 328.62254 
L 669.369118 332.176383 
L 680.698659 335.538126 
L 684.475173 340.148516 
L 688.251686 341.301114 
L 692.0282 341.301114 
L 695.804714 326.029196 
L 707.134255 336.402574 
L 714.687282 347.064102 
L 718.463796 343.894459 
L 722.240309 348.408799 
L 737.346364 354.267837 
L 744.899391 354.267837 
L 748.675905 357.053281 
L 760.005446 360.511074 
L 763.78196 357.62958 
L 767.558473 355.132285 
L 771.334987 355.132285 
L 775.111501 360.511074 
L 786.441042 354.075737 
L 793.994069 354.075737 
L 797.770583 345.335206 
L 801.547096 345.335206 
L 812.876637 354.267837 
L 816.653151 354.267837 
L 820.429665 363.872817 
L 827.982692 363.776767 
L 839.312233 363.776767 
L 843.088747 370.692353 
L 850.641774 370.596303 
L 854.418288 360.030825 
L 865.747829 356.284883 
L 869.524342 360.799223 
L 873.300856 357.245381 
L 877.07737 360.511074 
L 880.853883 364.353066 
L 892.183424 371.652851 
L 895.959938 371.652851 
L 899.736452 372.901498 
L 903.512965 374.342245 
L 907.289479 377.03164 
L 922.6 377.127689 
L 922.6 377.127689 
" style="fill:none;stroke:#bcbd22;stroke-linecap:square;stroke-opacity:0.75;"/>
   </g>
   <g id="line2d_40">
    <path clip-path="url(#p87d3529c77)" d="M 167.0928 444.0744 
L 238.84656 444.0744 
L 242.623074 318.249162 
L 291.717751 318.249162 
L 295.494265 298.751053 
L 299.270779 285.208031 
L 310.60032 285.208031 
L 314.376833 288.473724 
L 510.755544 288.473724 
L 522.085085 176.383607 
L 529.638112 217.108723 
L 533.414626 217.108723 
L 537.19114 231.228043 
L 578.73279 231.228043 
L 582.509304 273.586005 
L 586.285817 274.834652 
L 590.062331 274.834652 
L 601.391872 279.348993 
L 605.168386 288.473724 
L 616.497927 288.473724 
L 631.603981 295.677459 
L 669.369118 295.677459 
L 680.698659 319.20966 
L 710.910768 319.20966 
L 714.687282 333.52108 
L 718.463796 330.735636 
L 744.899391 330.735636 
L 748.675905 342.453712 
L 760.005446 347.8325 
L 763.78196 342.453712 
L 771.334987 342.453712 
L 775.111501 347.448301 
L 816.653151 347.448301 
L 820.429665 347.8325 
L 824.206178 347.640401 
L 827.982692 347.640401 
L 839.312233 353.403389 
L 869.524342 353.403389 
L 873.300856 340.052467 
L 922.395534 340.052467 
L 922.6 341.274533 
L 922.6 341.274533 
" style="fill:none;stroke:#17becf;stroke-linecap:square;stroke-opacity:0.75;"/>
   </g>
   <g id="line2d_41">
    <path clip-path="url(#p87d3529c77)" d="M -1 323.620231 
L 0.926199 324.01215 
L 19.808767 324.01215 
L 23.585281 318.537311 
L 27.361794 318.537311 
L 31.138308 319.20966 
L 46.244363 319.20966 
L 50.020877 327.373893 
L 53.79739 327.373893 
L 57.573904 324.588449 
L 61.350418 328.81464 
L 72.679959 334.577628 
L 76.456472 334.577628 
L 80.232986 336.114425 
L 102.892068 336.114425 
L 106.668582 331.504034 
L 110.445095 328.81464 
L 114.221609 327.758092 
L 129.327664 327.758092 
L 133.104177 336.402574 
L 151.986746 336.402574 
L 155.763259 335.249977 
L 159.539773 335.249977 
L 163.316287 340.340616 
L 167.0928 340.340616 
L 178.422341 338.41962 
L 193.528396 338.41962 
L 204.857937 341.877413 
L 212.410964 341.877413 
L 216.187478 330.447487 
L 219.963992 330.447487 
L 235.070046 330.735636 
L 238.84656 330.735636 
L 242.623074 299.9997 
L 246.399587 297.598455 
L 257.729128 297.598455 
L 261.505642 317.288664 
L 265.282156 315.943967 
L 272.835183 315.943967 
L 284.164724 306.435037 
L 291.717751 306.435037 
L 295.494265 284.151483 
L 299.270779 271.18476 
L 310.60032 287.032977 
L 348.365456 287.032977 
L 352.14197 313.062473 
L 363.471511 313.062473 
L 367.248025 303.937742 
L 371.024538 304.514041 
L 374.801052 304.514041 
L 378.577566 299.615501 
L 389.907107 299.615501 
L 393.68362 268.303266 
L 405.013161 268.303266 
L 416.342702 279.733192 
L 420.119216 284.247533 
L 423.89573 298.078704 
L 431.448757 297.982654 
L 442.778298 312.486174 
L 446.554812 312.294074 
L 454.107839 271.472909 
L 457.884353 267.342768 
L 469.213894 248.901206 
L 472.990407 248.901206 
L 476.766921 278.388495 
L 480.543435 278.388495 
L 484.319948 257.737788 
L 495.649489 257.737788 
L 499.426003 238.431778 
L 503.202517 238.431778 
L 506.97903 206.543245 
L 510.755544 208.75239 
L 522.085085 161.687988 
L 529.638112 161.687988 
L 533.414626 187.717484 
L 537.19114 187.717484 
L 548.520681 225.080856 
L 556.073708 234.973985 
L 559.850222 208.75239 
L 563.626735 240.929073 
L 586.285817 240.929073 
L 590.062331 263.981025 
L 601.391872 263.020527 
L 605.168386 270.224262 
L 608.944899 278.196395 
L 612.721413 277.331947 
L 616.497927 289.914471 
L 631.603981 277.620097 
L 635.380495 273.489955 
L 639.157009 273.489955 
L 642.933522 287.321126 
L 654.263063 281.942338 
L 658.039577 281.942338 
L 661.816091 294.236712 
L 665.592604 299.039202 
L 669.369118 303.361443 
L 680.698659 308.644182 
L 684.475173 311.525676 
L 688.251686 311.525676 
L 692.0282 303.745642 
L 695.804714 298.751053 
L 707.134255 298.751053 
L 710.910768 314.40717 
L 714.687282 315.463718 
L 722.240309 315.463718 
L 737.346364 321.130656 
L 744.899391 321.130656 
L 748.675905 327.950192 
L 760.005446 331.119835 
L 763.78196 328.81464 
L 767.558473 327.085744 
L 786.441042 327.085744 
L 790.217555 328.81464 
L 793.994069 328.81464 
L 801.547096 309.892829 
L 812.876637 326.797594 
L 816.653151 330.447487 
L 820.429665 335.057877 
L 824.206178 335.057877 
L 827.982692 338.803819 
L 839.312233 338.803819 
L 843.088747 340.148516 
L 846.86526 338.899869 
L 850.641774 341.301114 
L 854.418288 329.679088 
L 865.747829 328.142291 
L 877.07737 328.142291 
L 880.853883 336.690724 
L 895.959938 336.690724 
L 899.736452 344.951006 
L 903.512965 346.103604 
L 907.289479 349.273247 
L 918.61902 349.369297 
L 922.395534 348.0246 
L 922.6 348.076603 
L 922.6 348.076603 
" style="fill:none;stroke:#1f77b4;stroke-dasharray:7.4,3.2;stroke-dashoffset:0;stroke-opacity:0.5;stroke-width:2;"/>
   </g>
   <g id="line2d_42">
    <path clip-path="url(#p87d3529c77)" d="M 178.422341 347.064102 
L 182.198855 338.41962 
L 208.634451 338.41962 
L 212.410964 340.724815 
L 216.187478 328.81464 
L 219.963992 328.81464 
L 231.293533 324.1082 
L 238.84656 324.1082 
L 242.623074 304.321941 
L 257.729128 304.321941 
L 261.505642 314.40717 
L 284.164724 314.40717 
L 287.941238 299.9997 
L 337.035915 299.9997 
L 340.812429 307.779734 
L 367.248025 307.779734 
L 371.024538 294.716961 
L 374.801052 294.716961 
L 378.577566 285.976429 
L 389.907107 294.716961 
L 393.68362 275.218852 
L 397.460134 444.0744 
L 405.013161 266.38227 
L 416.342702 266.38227 
L 423.89573 295.19721 
L 431.448757 295.19721 
L 442.778298 316.520266 
L 446.554812 316.520266 
L 454.107839 267.823017 
L 457.884353 268.591415 
L 469.213894 257.257539 
L 495.649489 257.257539 
L 499.426003 221.815163 
L 503.202517 221.815163 
L 506.97903 203.9499 
L 510.755544 194.34492 
L 522.085085 168.987773 
L 533.414626 168.987773 
L 537.19114 226.329503 
L 548.520681 220.950715 
L 556.073708 220.950715 
L 559.850222 201.836804 
L 563.626735 233.341139 
L 578.73279 233.341139 
L 582.509304 258.890386 
L 590.062331 258.890386 
L 601.391872 258.314087 
L 605.168386 270.512411 
L 612.721413 270.512411 
L 616.497927 286.264579 
L 631.603981 286.264579 
L 635.380495 273.297856 
L 639.157009 273.297856 
L 642.933522 281.942338 
L 654.263063 275.026752 
L 665.592604 275.026752 
L 669.369118 299.423401 
L 688.251686 299.423401 
L 692.0282 296.349808 
L 695.804714 291.739417 
L 707.134255 302.689094 
L 710.910768 302.881194 
L 714.687282 302.881194 
L 718.463796 311.525676 
L 741.122878 311.525676 
L 744.899391 319.20966 
L 748.675905 324.20425 
L 760.005446 325.068698 
L 786.441042 325.068698 
L 790.217555 326.893644 
L 850.641774 326.893644 
L 854.418288 328.81464 
L 869.524342 328.81464 
L 873.300856 320.074108 
L 880.853883 320.074108 
L 892.183424 339.188018 
L 895.959938 339.188018 
L 899.736452 340.820865 
L 903.512965 342.933961 
L 907.289479 346.103604 
L 918.61902 346.103604 
L 922.395534 342.933961 
L 922.6 343.001564 
L 922.6 343.001564 
" style="fill:none;stroke:#ff7f0e;stroke-dasharray:7.4,3.2;stroke-dashoffset:0;stroke-opacity:0.5;stroke-width:2;"/>
   </g>
   <g id="line2d_43">
    <path clip-path="url(#p87d3529c77)" d="M 744.899391 444.0744 
L 812.876637 444.0744 
L 816.653151 317.480764 
L 820.429665 317.480764 
L 824.206178 320.458307 
L 827.982692 324.780548 
L 843.088747 326.605495 
L 846.86526 324.972648 
L 850.641774 328.238341 
L 854.418288 317.288664 
L 865.747829 314.119021 
L 899.736452 314.119021 
L 903.512965 332.656632 
L 922.6 332.656632 
L 922.6 332.656632 
" style="fill:none;stroke:#2ca02c;stroke-dasharray:7.4,3.2;stroke-dashoffset:0;stroke-opacity:0.5;stroke-width:2;"/>
   </g>
   <g id="line2d_44">
    <path clip-path="url(#p87d3529c77)" d="M 0 0 
" style="fill:none;stroke:#d62728;stroke-dasharray:7.4,3.2;stroke-dashoffset:0;stroke-opacity:0.5;stroke-width:2;"/>
   </g>
   <g id="line2d_45">
    <path clip-path="url(#p87d3529c77)" d="M 0 0 
" style="fill:none;stroke:#9467bd;stroke-dasharray:7.4,3.2;stroke-dashoffset:0;stroke-opacity:0.5;stroke-width:2;"/>
   </g>
   <g id="line2d_46">
    <path clip-path="url(#p87d3529c77)" d="M 529.638112 131.144152 
L 533.414626 165.52998 
L 537.19114 184.73994 
L 548.520681 184.73994 
L 556.073708 183.587342 
L 559.850222 160.72749 
L 578.73279 160.72749 
L 582.509304 217.204772 
L 605.168386 217.204772 
L 608.944899 235.646334 
L 639.157009 235.646334 
L 642.933522 249.093306 
L 654.263063 234.685836 
L 661.816091 234.685836 
L 665.592604 251.9748 
L 695.804714 251.9748 
L 707.134255 256.77729 
L 710.910768 260.715332 
L 714.687282 269.263764 
L 737.346364 269.263764 
L 741.122878 278.868744 
L 744.899391 275.603051 
L 748.675905 275.603051 
L 760.005446 279.925292 
L 763.78196 277.908246 
L 790.217555 277.908246 
L 793.994069 278.868744 
L 797.770583 266.38227 
L 816.653151 266.38227 
L 820.429665 283.383085 
L 827.982692 283.383085 
L 839.312233 288.473724 
L 850.641774 288.473724 
L 854.418288 278.868744 
L 869.524342 278.868744 
L 873.300856 274.546503 
L 877.07737 274.546503 
L 880.853883 281.462089 
L 895.959938 281.462089 
L 899.736452 292.315716 
L 918.61902 292.315716 
L 922.6 296.209711 
L 922.6 296.209711 
" style="fill:none;stroke:#8c564b;stroke-dasharray:7.4,3.2;stroke-dashoffset:0;stroke-opacity:0.5;stroke-width:2;"/>
   </g>
   <g id="line2d_47">
    <path clip-path="url(#p87d3529c77)" d="M -1 339.468448 
L 0.926199 339.860367 
L 4.702712 335.826275 
L 8.479226 317.672863 
L 19.808767 302.112796 
L 23.585281 316.232116 
L 27.361794 303.457493 
L 31.138308 314.887419 
L 34.914822 322.667453 
L 46.244363 324.1082 
L 50.020877 320.554357 
L 53.79739 326.413395 
L 57.573904 324.876598 
L 61.350418 328.91069 
L 72.679959 327.277843 
L 76.456472 324.01215 
L 80.232986 326.413395 
L 84.0095 314.119021 
L 87.786013 320.554357 
L 102.892068 317.672863 
L 110.445095 303.361443 
L 114.221609 301.152298 
L 125.55115 308.067883 
L 129.327664 317.096564 
L 133.104177 317.864963 
L 136.880691 325.260797 
L 140.657205 328.142291 
L 151.986746 312.678274 
L 155.763259 321.226706 
L 159.539773 331.215885 
L 163.316287 330.735636 
L 167.0928 331.888234 
L 178.422341 326.893644 
L 182.198855 324.780548 
L 185.975369 320.266208 
L 189.751882 324.876598 
L 193.528396 327.662042 
L 204.857937 328.81464 
L 208.634451 328.334391 
L 212.410964 332.560582 
L 216.187478 307.491584 
L 219.963992 301.728596 
L 231.293533 293.372264 
L 235.070046 290.874969 
L 238.84656 223.544059 
L 242.623074 204.142 
L 246.399587 239.392276 
L 257.729128 239.488326 
L 261.505642 274.834652 
L 265.282156 276.947748 
L 269.058669 251.398501 
L 272.835183 253.031348 
L 284.164724 255.432593 
L 287.941238 245.155264 
L 291.717751 201.740755 
L 295.494265 211.441784 
L 299.270779 212.018083 
L 310.60032 206.831394 
L 314.376833 219.798117 
L 318.153347 240.160675 
L 321.929861 258.314087 
L 325.706374 256.68124 
L 337.035915 252.358999 
L 340.812429 252.839248 
L 344.588943 286.936927 
L 348.365456 283.479134 
L 352.14197 277.331947 
L 363.471511 247.652559 
L 367.248025 251.7827 
L 371.024538 239.968575 
L 374.801052 252.1669 
L 378.577566 269.840063 
L 389.907107 251.014302 
L 393.68362 228.15445 
L 397.460134 244.290816 
L 405.013161 237.37523 
L 416.342702 262.540278 
L 420.119216 261.38768 
L 423.89573 266.47832 
L 427.672243 263.596826 
L 431.448757 270.512411 
L 442.778298 286.168529 
L 446.554812 244.867115 
L 454.107839 240.544874 
L 457.884353 220.950715 
L 469.213894 226.617653 
L 472.990407 235.070035 
L 476.766921 237.951529 
L 480.543435 245.731563 
L 484.319948 236.318683 
L 495.649489 208.56029 
L 499.426003 198.379012 
L 503.202517 198.379012 
L 506.97903 171.485068 
L 510.755544 154.868452 
L 522.085085 97.622771 
L 529.638112 151.986958 
L 533.414626 156.309199 
L 537.19114 171.869267 
L 548.520681 199.915808 
L 556.073708 221.046764 
L 559.850222 199.627659 
L 563.626735 238.719928 
L 574.956276 238.527828 
L 578.73279 247.460459 
L 586.285817 256.77729 
L 590.062331 269.359814 
L 601.391872 260.907431 
L 605.168386 265.421772 
L 608.944899 261.195581 
L 612.721413 270.608461 
L 616.497927 273.105756 
L 631.603981 244.290816 
L 635.380495 256.58519 
L 639.157009 262.636328 
L 642.933522 276.755648 
L 654.263063 262.828427 
L 658.039577 260.331133 
L 661.816091 274.450453 
L 665.592604 284.919881 
L 669.369118 289.050023 
L 680.698659 292.988065 
L 684.475173 294.524861 
L 688.251686 296.349808 
L 692.0282 286.840877 
L 695.804714 293.084114 
L 707.134255 290.682869 
L 710.910768 295.869559 
L 714.687282 293.756463 
L 718.463796 288.281624 
L 722.240309 300.864148 
L 737.346364 301.152298 
L 741.122878 309.41258 
L 744.899391 305.186389 
L 748.675905 314.31112 
L 760.005446 301.440447 
L 763.78196 298.366853 
L 767.558473 302.881194 
L 771.334987 302.112796 
L 775.111501 313.734821 
L 786.441042 303.553543 
L 790.217555 302.496995 
L 793.994069 292.892015 
L 797.770583 284.727782 
L 801.547096 289.914471 
L 816.653151 311.813825 
L 820.429665 315.271618 
L 824.206178 314.40717 
L 827.982692 320.362258 
L 839.312233 318.249162 
L 843.088747 313.830871 
L 846.86526 310.469128 
L 850.641774 313.158523 
L 854.418288 285.78433 
L 865.747829 287.225077 
L 869.524342 303.073294 
L 873.300856 298.558953 
L 880.853883 312.390124 
L 892.183424 315.367668 
L 895.959938 315.751867 
L 899.736452 312.101975 
L 903.512965 313.638772 
L 907.289479 320.938556 
L 918.61902 317.480764 
L 922.395534 306.915286 
L 922.6 307.424913 
L 922.6 307.424913 
" style="fill:none;stroke:#000000;stroke-linecap:square;stroke-width:0.5;"/>
   </g>
   <g id="patch_3">
    <path d="M 115.2 444.0744 
L 115.2 59.8752 
" style="fill:none;stroke:#000000;stroke-linecap:square;stroke-linejoin:miter;stroke-width:0.8;"/>
   </g>
   <g id="patch_4">
    <path d="M 829.44 444.0744 
L 829.44 59.8752 
" style="fill:none;stroke:#000000;stroke-linecap:square;stroke-linejoin:miter;stroke-width:0.8;"/>
   </g>
   <g id="patch_5">
    <path d="M 115.2 444.0744 
L 829.44 444.0744 
" style="fill:none;stroke:#000000;stroke-linecap:square;stroke-linejoin:miter;stroke-width:0.8;"/>
   </g>
   <g id="patch_6">
    <path d="M 115.2 59.8752 
L 829.44 59.8752 
" style="fill:none;stroke:#000000;stroke-linecap:square;stroke-linejoin:miter;stroke-width:0.8;"/>
   </g>
   <g id="legend_1">
    <g id="patch_7">
     <path d="M 122.2 317.403325 
L 212.315625 317.403325 
Q 214.315625 317.403325 214.315625 315.403325 
L 214.315625 66.8752 
Q 214.315625 64.8752 212.315625 64.8752 
L 122.2 64.8752 
Q 120.2 64.8752 120.2 66.8752 
L 120.2 315.403325 
Q 120.2 317.403325 122.2 317.403325 
z
" style="fill:#ffffff;opacity:0.8;stroke:#cccccc;stroke-linejoin:miter;"/>
    </g>
    <g id="line2d_48">
     <path d="M 124.2 72.973638 
L 144.2 72.973638 
" style="fill:none;stroke:#1f77b4;stroke-linecap:square;stroke-opacity:0.75;"/>
    </g>
    <g id="line2d_49"/>
    <g id="text_16">
     <!-- 2018-12-31 -->
     <g transform="translate(152.2 76.473638)scale(0.1 -0.1)">
      <use xlink:href="#DejaVuSans-50"/>
      <use x="63.623047" xlink:href="#DejaVuSans-48"/>
      <use x="127.246094" xlink:href="#DejaVuSans-49"/>
      <use x="190.869141" xlink:href="#DejaVuSans-56"/>
      <use x="254.492188" xlink:href="#DejaVuSans-45"/>
      <use x="290.576172" xlink:href="#DejaVuSans-49"/>
      <use x="354.199219" xlink:href="#DejaVuSans-50"/>
      <use x="417.822266" xlink:href="#DejaVuSans-45"/>
      <use x="453.90625" xlink:href="#DejaVuSans-51"/>
      <use x="517.529297" xlink:href="#DejaVuSans-49"/>
     </g>
    </g>
    <g id="line2d_50">
     <path d="M 124.2 87.651763 
L 144.2 87.651763 
" style="fill:none;stroke:#ff7f0e;stroke-linecap:square;stroke-opacity:0.75;"/>
    </g>
    <g id="line2d_51"/>
    <g id="text_17">
     <!-- 2019-01-18 -->
     <g transform="translate(152.2 91.151763)scale(0.1 -0.1)">
      <use xlink:href="#DejaVuSans-50"/>
      <use x="63.623047" xlink:href="#DejaVuSans-48"/>
      <use x="127.246094" xlink:href="#DejaVuSans-49"/>
      <use x="190.869141" xlink:href="#DejaVuSans-57"/>
      <use x="254.492188" xlink:href="#DejaVuSans-45"/>
      <use x="290.576172" xlink:href="#DejaVuSans-48"/>
      <use x="354.199219" xlink:href="#DejaVuSans-49"/>
      <use x="417.822266" xlink:href="#DejaVuSans-45"/>
      <use x="453.90625" xlink:href="#DejaVuSans-49"/>
      <use x="517.529297" xlink:href="#DejaVuSans-56"/>
     </g>
    </g>
    <g id="line2d_52">
     <path d="M 124.2 102.329888 
L 144.2 102.329888 
" style="fill:none;stroke:#2ca02c;stroke-linecap:square;stroke-opacity:0.75;"/>
    </g>
    <g id="line2d_53"/>
    <g id="text_18">
     <!-- 2019-03-15 -->
     <g transform="translate(152.2 105.829888)scale(0.1 -0.1)">
      <use xlink:href="#DejaVuSans-50"/>
      <use x="63.623047" xlink:href="#DejaVuSans-48"/>
      <use x="127.246094" xlink:href="#DejaVuSans-49"/>
      <use x="190.869141" xlink:href="#DejaVuSans-57"/>
      <use x="254.492188" xlink:href="#DejaVuSans-45"/>
      <use x="290.576172" xlink:href="#DejaVuSans-48"/>
      <use x="354.199219" xlink:href="#DejaVuSans-51"/>
      <use x="417.822266" xlink:href="#DejaVuSans-45"/>
      <use x="453.90625" xlink:href="#DejaVuSans-49"/>
      <use x="517.529297" xlink:href="#DejaVuSans-53"/>
     </g>
    </g>
    <g id="line2d_54">
     <path d="M 124.2 117.008013 
L 144.2 117.008013 
" style="fill:none;stroke:#d62728;stroke-linecap:square;stroke-opacity:0.75;"/>
    </g>
    <g id="line2d_55"/>
    <g id="text_19">
     <!-- 2019-06-21 -->
     <defs>
      <path d="M 33.015625 40.375 
Q 26.375 40.375 22.484375 35.828125 
Q 18.609375 31.296875 18.609375 23.390625 
Q 18.609375 15.53125 22.484375 10.953125 
Q 26.375 6.390625 33.015625 6.390625 
Q 39.65625 6.390625 43.53125 10.953125 
Q 47.40625 15.53125 47.40625 23.390625 
Q 47.40625 31.296875 43.53125 35.828125 
Q 39.65625 40.375 33.015625 40.375 
z
M 52.59375 71.296875 
L 52.59375 62.3125 
Q 48.875 64.0625 45.09375 64.984375 
Q 41.3125 65.921875 37.59375 65.921875 
Q 27.828125 65.921875 22.671875 59.328125 
Q 17.53125 52.734375 16.796875 39.40625 
Q 19.671875 43.65625 24.015625 45.921875 
Q 28.375 48.1875 33.59375 48.1875 
Q 44.578125 48.1875 50.953125 41.515625 
Q 57.328125 34.859375 57.328125 23.390625 
Q 57.328125 12.15625 50.6875 5.359375 
Q 44.046875 -1.421875 33.015625 -1.421875 
Q 20.359375 -1.421875 13.671875 8.265625 
Q 6.984375 17.96875 6.984375 36.375 
Q 6.984375 53.65625 15.1875 63.9375 
Q 23.390625 74.21875 37.203125 74.21875 
Q 40.921875 74.21875 44.703125 73.484375 
Q 48.484375 72.75 52.59375 71.296875 
z
" id="DejaVuSans-54"/>
     </defs>
     <g transform="translate(152.2 120.508013)scale(0.1 -0.1)">
      <use xlink:href="#DejaVuSans-50"/>
      <use x="63.623047" xlink:href="#DejaVuSans-48"/>
      <use x="127.246094" xlink:href="#DejaVuSans-49"/>
      <use x="190.869141" xlink:href="#DejaVuSans-57"/>
      <use x="254.492188" xlink:href="#DejaVuSans-45"/>
      <use x="290.576172" xlink:href="#DejaVuSans-48"/>
      <use x="354.199219" xlink:href="#DejaVuSans-54"/>
      <use x="417.822266" xlink:href="#DejaVuSans-45"/>
      <use x="453.90625" xlink:href="#DejaVuSans-50"/>
      <use x="517.529297" xlink:href="#DejaVuSans-49"/>
     </g>
    </g>
    <g id="line2d_56">
     <path d="M 124.2 131.686138 
L 144.2 131.686138 
" style="fill:none;stroke:#9467bd;stroke-linecap:square;stroke-opacity:0.75;"/>
    </g>
    <g id="line2d_57"/>
    <g id="text_20">
     <!-- 2019-09-20 -->
     <g transform="translate(152.2 135.186138)scale(0.1 -0.1)">
      <use xlink:href="#DejaVuSans-50"/>
      <use x="63.623047" xlink:href="#DejaVuSans-48"/>
      <use x="127.246094" xlink:href="#DejaVuSans-49"/>
      <use x="190.869141" xlink:href="#DejaVuSans-57"/>
      <use x="254.492188" xlink:href="#DejaVuSans-45"/>
      <use x="290.576172" xlink:href="#DejaVuSans-48"/>
      <use x="354.199219" xlink:href="#DejaVuSans-57"/>
      <use x="417.822266" xlink:href="#DejaVuSans-45"/>
      <use x="453.90625" xlink:href="#DejaVuSans-50"/>
      <use x="517.529297" xlink:href="#DejaVuSans-48"/>
     </g>
    </g>
    <g id="line2d_58">
     <path d="M 124.2 146.364263 
L 144.2 146.364263 
" style="fill:none;stroke:#8c564b;stroke-linecap:square;stroke-opacity:0.75;"/>
    </g>
    <g id="line2d_59"/>
    <g id="text_21">
     <!-- 2019-12-20 -->
     <g transform="translate(152.2 149.864263)scale(0.1 -0.1)">
      <use xlink:href="#DejaVuSans-50"/>
      <use x="63.623047" xlink:href="#DejaVuSans-48"/>
      <use x="127.246094" xlink:href="#DejaVuSans-49"/>
      <use x="190.869141" xlink:href="#DejaVuSans-57"/>
      <use x="254.492188" xlink:href="#DejaVuSans-45"/>
      <use x="290.576172" xlink:href="#DejaVuSans-49"/>
      <use x="354.199219" xlink:href="#DejaVuSans-50"/>
      <use x="417.822266" xlink:href="#DejaVuSans-45"/>
      <use x="453.90625" xlink:href="#DejaVuSans-50"/>
      <use x="517.529297" xlink:href="#DejaVuSans-48"/>
     </g>
    </g>
    <g id="line2d_60">
     <path d="M 124.2 161.042388 
L 144.2 161.042388 
" style="fill:none;stroke:#e377c2;stroke-linecap:square;stroke-opacity:0.75;"/>
    </g>
    <g id="line2d_61"/>
    <g id="text_22">
     <!-- 2020-01-17 -->
     <defs>
      <path d="M 8.203125 72.90625 
L 55.078125 72.90625 
L 55.078125 68.703125 
L 28.609375 0 
L 18.3125 0 
L 43.21875 64.59375 
L 8.203125 64.59375 
z
" id="DejaVuSans-55"/>
     </defs>
     <g transform="translate(152.2 164.542388)scale(0.1 -0.1)">
      <use xlink:href="#DejaVuSans-50"/>
      <use x="63.623047" xlink:href="#DejaVuSans-48"/>
      <use x="127.246094" xlink:href="#DejaVuSans-50"/>
      <use x="190.869141" xlink:href="#DejaVuSans-48"/>
      <use x="254.492188" xlink:href="#DejaVuSans-45"/>
      <use x="290.576172" xlink:href="#DejaVuSans-48"/>
      <use x="354.199219" xlink:href="#DejaVuSans-49"/>
      <use x="417.822266" xlink:href="#DejaVuSans-45"/>
      <use x="453.90625" xlink:href="#DejaVuSans-49"/>
      <use x="517.529297" xlink:href="#DejaVuSans-55"/>
     </g>
    </g>
    <g id="line2d_62">
     <path d="M 124.2 175.720513 
L 144.2 175.720513 
" style="fill:none;stroke:#7f7f7f;stroke-linecap:square;stroke-opacity:0.75;"/>
    </g>
    <g id="line2d_63"/>
    <g id="text_23">
     <!-- 2020-03-20 -->
     <g transform="translate(152.2 179.220513)scale(0.1 -0.1)">
      <use xlink:href="#DejaVuSans-50"/>
      <use x="63.623047" xlink:href="#DejaVuSans-48"/>
      <use x="127.246094" xlink:href="#DejaVuSans-50"/>
      <use x="190.869141" xlink:href="#DejaVuSans-48"/>
      <use x="254.492188" xlink:href="#DejaVuSans-45"/>
      <use x="290.576172" xlink:href="#DejaVuSans-48"/>
      <use x="354.199219" xlink:href="#DejaVuSans-51"/>
      <use x="417.822266" xlink:href="#DejaVuSans-45"/>
      <use x="453.90625" xlink:href="#DejaVuSans-50"/>
      <use x="517.529297" xlink:href="#DejaVuSans-48"/>
     </g>
    </g>
    <g id="line2d_64">
     <path d="M 124.2 190.398638 
L 144.2 190.398638 
" style="fill:none;stroke:#bcbd22;stroke-linecap:square;stroke-opacity:0.75;"/>
    </g>
    <g id="line2d_65"/>
    <g id="text_24">
     <!-- 2020-06-19 -->
     <g transform="translate(152.2 193.898638)scale(0.1 -0.1)">
      <use xlink:href="#DejaVuSans-50"/>
      <use x="63.623047" xlink:href="#DejaVuSans-48"/>
      <use x="127.246094" xlink:href="#DejaVuSans-50"/>
      <use x="190.869141" xlink:href="#DejaVuSans-48"/>
      <use x="254.492188" xlink:href="#DejaVuSans-45"/>
      <use x="290.576172" xlink:href="#DejaVuSans-48"/>
      <use x="354.199219" xlink:href="#DejaVuSans-54"/>
      <use x="417.822266" xlink:href="#DejaVuSans-45"/>
      <use x="453.90625" xlink:href="#DejaVuSans-49"/>
      <use x="517.529297" xlink:href="#DejaVuSans-57"/>
     </g>
    </g>
    <g id="line2d_66">
     <path d="M 124.2 205.076763 
L 144.2 205.076763 
" style="fill:none;stroke:#17becf;stroke-linecap:square;stroke-opacity:0.75;"/>
    </g>
    <g id="line2d_67"/>
    <g id="text_25">
     <!-- 2020-09-18 -->
     <g transform="translate(152.2 208.576763)scale(0.1 -0.1)">
      <use xlink:href="#DejaVuSans-50"/>
      <use x="63.623047" xlink:href="#DejaVuSans-48"/>
      <use x="127.246094" xlink:href="#DejaVuSans-50"/>
      <use x="190.869141" xlink:href="#DejaVuSans-48"/>
      <use x="254.492188" xlink:href="#DejaVuSans-45"/>
      <use x="290.576172" xlink:href="#DejaVuSans-48"/>
      <use x="354.199219" xlink:href="#DejaVuSans-57"/>
      <use x="417.822266" xlink:href="#DejaVuSans-45"/>
      <use x="453.90625" xlink:href="#DejaVuSans-49"/>
      <use x="517.529297" xlink:href="#DejaVuSans-56"/>
     </g>
    </g>
    <g id="line2d_68">
     <path d="M 124.2 219.754888 
L 144.2 219.754888 
" style="fill:none;stroke:#1f77b4;stroke-dasharray:7.4,3.2;stroke-dashoffset:0;stroke-opacity:0.5;stroke-width:2;"/>
    </g>
    <g id="line2d_69"/>
    <g id="text_26">
     <!-- 2020-12-18 -->
     <g transform="translate(152.2 223.254888)scale(0.1 -0.1)">
      <use xlink:href="#DejaVuSans-50"/>
      <use x="63.623047" xlink:href="#DejaVuSans-48"/>
      <use x="127.246094" xlink:href="#DejaVuSans-50"/>
      <use x="190.869141" xlink:href="#DejaVuSans-48"/>
      <use x="254.492188" xlink:href="#DejaVuSans-45"/>
      <use x="290.576172" xlink:href="#DejaVuSans-49"/>
      <use x="354.199219" xlink:href="#DejaVuSans-50"/>
      <use x="417.822266" xlink:href="#DejaVuSans-45"/>
      <use x="453.90625" xlink:href="#DejaVuSans-49"/>
      <use x="517.529297" xlink:href="#DejaVuSans-56"/>
     </g>
    </g>
    <g id="line2d_70">
     <path d="M 124.2 234.433013 
L 144.2 234.433013 
" style="fill:none;stroke:#ff7f0e;stroke-dasharray:7.4,3.2;stroke-dashoffset:0;stroke-opacity:0.5;stroke-width:2;"/>
    </g>
    <g id="line2d_71"/>
    <g id="text_27">
     <!-- 2021-01-15 -->
     <g transform="translate(152.2 237.933013)scale(0.1 -0.1)">
      <use xlink:href="#DejaVuSans-50"/>
      <use x="63.623047" xlink:href="#DejaVuSans-48"/>
      <use x="127.246094" xlink:href="#DejaVuSans-50"/>
      <use x="190.869141" xlink:href="#DejaVuSans-49"/>
      <use x="254.492188" xlink:href="#DejaVuSans-45"/>
      <use x="290.576172" xlink:href="#DejaVuSans-48"/>
      <use x="354.199219" xlink:href="#DejaVuSans-49"/>
      <use x="417.822266" xlink:href="#DejaVuSans-45"/>
      <use x="453.90625" xlink:href="#DejaVuSans-49"/>
      <use x="517.529297" xlink:href="#DejaVuSans-53"/>
     </g>
    </g>
    <g id="line2d_72">
     <path d="M 124.2 249.111138 
L 144.2 249.111138 
" style="fill:none;stroke:#2ca02c;stroke-dasharray:7.4,3.2;stroke-dashoffset:0;stroke-opacity:0.5;stroke-width:2;"/>
    </g>
    <g id="line2d_73"/>
    <g id="text_28">
     <!-- 2021-03-19 -->
     <g transform="translate(152.2 252.611138)scale(0.1 -0.1)">
      <use xlink:href="#DejaVuSans-50"/>
      <use x="63.623047" xlink:href="#DejaVuSans-48"/>
      <use x="127.246094" xlink:href="#DejaVuSans-50"/>
      <use x="190.869141" xlink:href="#DejaVuSans-49"/>
      <use x="254.492188" xlink:href="#DejaVuSans-45"/>
      <use x="290.576172" xlink:href="#DejaVuSans-48"/>
      <use x="354.199219" xlink:href="#DejaVuSans-51"/>
      <use x="417.822266" xlink:href="#DejaVuSans-45"/>
      <use x="453.90625" xlink:href="#DejaVuSans-49"/>
      <use x="517.529297" xlink:href="#DejaVuSans-57"/>
     </g>
    </g>
    <g id="line2d_74">
     <path d="M 124.2 263.789263 
L 144.2 263.789263 
" style="fill:none;stroke:#d62728;stroke-dasharray:7.4,3.2;stroke-dashoffset:0;stroke-opacity:0.5;stroke-width:2;"/>
    </g>
    <g id="line2d_75"/>
    <g id="text_29">
     <!-- 2021-06-18 -->
     <g transform="translate(152.2 267.289263)scale(0.1 -0.1)">
      <use xlink:href="#DejaVuSans-50"/>
      <use x="63.623047" xlink:href="#DejaVuSans-48"/>
      <use x="127.246094" xlink:href="#DejaVuSans-50"/>
      <use x="190.869141" xlink:href="#DejaVuSans-49"/>
      <use x="254.492188" xlink:href="#DejaVuSans-45"/>
      <use x="290.576172" xlink:href="#DejaVuSans-48"/>
      <use x="354.199219" xlink:href="#DejaVuSans-54"/>
      <use x="417.822266" xlink:href="#DejaVuSans-45"/>
      <use x="453.90625" xlink:href="#DejaVuSans-49"/>
      <use x="517.529297" xlink:href="#DejaVuSans-56"/>
     </g>
    </g>
    <g id="line2d_76">
     <path d="M 124.2 278.467387 
L 144.2 278.467387 
" style="fill:none;stroke:#9467bd;stroke-dasharray:7.4,3.2;stroke-dashoffset:0;stroke-opacity:0.5;stroke-width:2;"/>
    </g>
    <g id="line2d_77"/>
    <g id="text_30">
     <!-- 2021-09-17 -->
     <g transform="translate(152.2 281.967387)scale(0.1 -0.1)">
      <use xlink:href="#DejaVuSans-50"/>
      <use x="63.623047" xlink:href="#DejaVuSans-48"/>
      <use x="127.246094" xlink:href="#DejaVuSans-50"/>
      <use x="190.869141" xlink:href="#DejaVuSans-49"/>
      <use x="254.492188" xlink:href="#DejaVuSans-45"/>
      <use x="290.576172" xlink:href="#DejaVuSans-48"/>
      <use x="354.199219" xlink:href="#DejaVuSans-57"/>
      <use x="417.822266" xlink:href="#DejaVuSans-45"/>
      <use x="453.90625" xlink:href="#DejaVuSans-49"/>
      <use x="517.529297" xlink:href="#DejaVuSans-55"/>
     </g>
    </g>
    <g id="line2d_78">
     <path d="M 124.2 293.145512 
L 144.2 293.145512 
" style="fill:none;stroke:#8c564b;stroke-dasharray:7.4,3.2;stroke-dashoffset:0;stroke-opacity:0.5;stroke-width:2;"/>
    </g>
    <g id="line2d_79"/>
    <g id="text_31">
     <!-- 2021-12-17 -->
     <g transform="translate(152.2 296.645512)scale(0.1 -0.1)">
      <use xlink:href="#DejaVuSans-50"/>
      <use x="63.623047" xlink:href="#DejaVuSans-48"/>
      <use x="127.246094" xlink:href="#DejaVuSans-50"/>
      <use x="190.869141" xlink:href="#DejaVuSans-49"/>
      <use x="254.492188" xlink:href="#DejaVuSans-45"/>
      <use x="290.576172" xlink:href="#DejaVuSans-49"/>
      <use x="354.199219" xlink:href="#DejaVuSans-50"/>
      <use x="417.822266" xlink:href="#DejaVuSans-45"/>
      <use x="453.90625" xlink:href="#DejaVuSans-49"/>
      <use x="517.529297" xlink:href="#DejaVuSans-55"/>
     </g>
    </g>
    <g id="line2d_80">
     <path d="M 124.2 307.823638 
L 144.2 307.823638 
" style="fill:none;stroke:#000000;stroke-linecap:square;stroke-width:0.5;"/>
    </g>
    <g id="line2d_81"/>
    <g id="text_32">
     <!-- vix -->
     <defs>
      <path d="M 2.984375 54.6875 
L 12.5 54.6875 
L 29.59375 8.796875 
L 46.6875 54.6875 
L 56.203125 54.6875 
L 35.6875 0 
L 23.484375 0 
z
" id="DejaVuSans-118"/>
      <path d="M 9.421875 54.6875 
L 18.40625 54.6875 
L 18.40625 0 
L 9.421875 0 
z
M 9.421875 75.984375 
L 18.40625 75.984375 
L 18.40625 64.59375 
L 9.421875 64.59375 
z
" id="DejaVuSans-105"/>
      <path d="M 54.890625 54.6875 
L 35.109375 28.078125 
L 55.90625 0 
L 45.3125 0 
L 29.390625 21.484375 
L 13.484375 0 
L 2.875 0 
L 24.125 28.609375 
L 4.6875 54.6875 
L 15.28125 54.6875 
L 29.78125 35.203125 
L 44.28125 54.6875 
z
" id="DejaVuSans-120"/>
     </defs>
     <g transform="translate(152.2 311.323638)scale(0.1 -0.1)">
      <use xlink:href="#DejaVuSans-118"/>
      <use x="59.179688" xlink:href="#DejaVuSans-105"/>
      <use x="86.962891" xlink:href="#DejaVuSans-120"/>
     </g>
    </g>
   </g>
  </g>
 </g>
 <defs>
  <clipPath id="p87d3529c77">
   <rect height="384.1992" width="714.24" x="115.2" y="59.8752"/>
  </clipPath>
 </defs>
</svg>
