<?xml version="1.0" encoding="utf-8" standalone="no"?>
<!DOCTYPE svg PUBLIC "-//W3C//DTD SVG 1.1//EN"
  "http://www.w3.org/Graphics/SVG/1.1/DTD/svg11.dtd">
<!-- Created with matplotlib (https://matplotlib.org/) -->
<svg height="498.96pt" version="1.1" viewBox="0 0 921.6 498.96" width="921.6pt" xmlns="http://www.w3.org/2000/svg" xmlns:xlink="http://www.w3.org/1999/xlink">
 <defs>
  <style type="text/css">
*{stroke-linecap:butt;stroke-linejoin:round;}
  </style>
 </defs>
 <g id="figure_1">
  <g id="patch_1">
   <path d="M 0 498.96 
L 921.6 498.96 
L 921.6 0 
L 0 0 
z
" style="fill:#ffffff;"/>
  </g>
  <g id="axes_1">
   <g id="patch_2">
    <path d="M 115.2 444.0744 
L 829.44 444.0744 
L 829.44 59.8752 
L 115.2 59.8752 
z
" style="fill:#ffffff;"/>
   </g>
   <g id="matplotlib.axis_1">
    <g id="xtick_1">
     <g id="line2d_1">
      <path clip-path="url(#pc85f35c749)" d="M 204.857937 444.0744 
L 204.857937 59.8752 
" style="fill:none;stroke:#b0b0b0;stroke-linecap:square;stroke-width:0.8;"/>
     </g>
     <g id="line2d_2">
      <defs>
       <path d="M 0 0 
L 0 3.5 
" id="m8fb1139fe5" style="stroke:#000000;stroke-width:0.8;"/>
      </defs>
      <g>
       <use style="stroke:#000000;stroke-width:0.8;" x="204.857937" xlink:href="#m8fb1139fe5" y="444.0744"/>
      </g>
     </g>
     <g id="text_1">
      <!-- 2018-10 -->
      <defs>
       <path d="M 19.1875 8.296875 
L 53.609375 8.296875 
L 53.609375 0 
L 7.328125 0 
L 7.328125 8.296875 
Q 12.9375 14.109375 22.625 23.890625 
Q 32.328125 33.6875 34.8125 36.53125 
Q 39.546875 41.84375 41.421875 45.53125 
Q 43.3125 49.21875 43.3125 52.78125 
Q 43.3125 58.59375 39.234375 62.25 
Q 35.15625 65.921875 28.609375 65.921875 
Q 23.96875 65.921875 18.8125 64.3125 
Q 13.671875 62.703125 7.8125 59.421875 
L 7.8125 69.390625 
Q 13.765625 71.78125 18.9375 73 
Q 24.125 74.21875 28.421875 74.21875 
Q 39.75 74.21875 46.484375 68.546875 
Q 53.21875 62.890625 53.21875 53.421875 
Q 53.21875 48.921875 51.53125 44.890625 
Q 49.859375 40.875 45.40625 35.40625 
Q 44.1875 33.984375 37.640625 27.21875 
Q 31.109375 20.453125 19.1875 8.296875 
z
" id="DejaVuSans-50"/>
       <path d="M 31.78125 66.40625 
Q 24.171875 66.40625 20.328125 58.90625 
Q 16.5 51.421875 16.5 36.375 
Q 16.5 21.390625 20.328125 13.890625 
Q 24.171875 6.390625 31.78125 6.390625 
Q 39.453125 6.390625 43.28125 13.890625 
Q 47.125 21.390625 47.125 36.375 
Q 47.125 51.421875 43.28125 58.90625 
Q 39.453125 66.40625 31.78125 66.40625 
z
M 31.78125 74.21875 
Q 44.046875 74.21875 50.515625 64.515625 
Q 56.984375 54.828125 56.984375 36.375 
Q 56.984375 17.96875 50.515625 8.265625 
Q 44.046875 -1.421875 31.78125 -1.421875 
Q 19.53125 -1.421875 13.0625 8.265625 
Q 6.59375 17.96875 6.59375 36.375 
Q 6.59375 54.828125 13.0625 64.515625 
Q 19.53125 74.21875 31.78125 74.21875 
z
" id="DejaVuSans-48"/>
       <path d="M 12.40625 8.296875 
L 28.515625 8.296875 
L 28.515625 63.921875 
L 10.984375 60.40625 
L 10.984375 69.390625 
L 28.421875 72.90625 
L 38.28125 72.90625 
L 38.28125 8.296875 
L 54.390625 8.296875 
L 54.390625 0 
L 12.40625 0 
z
" id="DejaVuSans-49"/>
       <path d="M 31.78125 34.625 
Q 24.75 34.625 20.71875 30.859375 
Q 16.703125 27.09375 16.703125 20.515625 
Q 16.703125 13.921875 20.71875 10.15625 
Q 24.75 6.390625 31.78125 6.390625 
Q 38.8125 6.390625 42.859375 10.171875 
Q 46.921875 13.96875 46.921875 20.515625 
Q 46.921875 27.09375 42.890625 30.859375 
Q 38.875 34.625 31.78125 34.625 
z
M 21.921875 38.8125 
Q 15.578125 40.375 12.03125 44.71875 
Q 8.5 49.078125 8.5 55.328125 
Q 8.5 64.0625 14.71875 69.140625 
Q 20.953125 74.21875 31.78125 74.21875 
Q 42.671875 74.21875 48.875 69.140625 
Q 55.078125 64.0625 55.078125 55.328125 
Q 55.078125 49.078125 51.53125 44.71875 
Q 48 40.375 41.703125 38.8125 
Q 48.828125 37.15625 52.796875 32.3125 
Q 56.78125 27.484375 56.78125 20.515625 
Q 56.78125 9.90625 50.3125 4.234375 
Q 43.84375 -1.421875 31.78125 -1.421875 
Q 19.734375 -1.421875 13.25 4.234375 
Q 6.78125 9.90625 6.78125 20.515625 
Q 6.78125 27.484375 10.78125 32.3125 
Q 14.796875 37.15625 21.921875 38.8125 
z
M 18.3125 54.390625 
Q 18.3125 48.734375 21.84375 45.5625 
Q 25.390625 42.390625 31.78125 42.390625 
Q 38.140625 42.390625 41.71875 45.5625 
Q 45.3125 48.734375 45.3125 54.390625 
Q 45.3125 60.0625 41.71875 63.234375 
Q 38.140625 66.40625 31.78125 66.40625 
Q 25.390625 66.40625 21.84375 63.234375 
Q 18.3125 60.0625 18.3125 54.390625 
z
" id="DejaVuSans-56"/>
       <path d="M 4.890625 31.390625 
L 31.203125 31.390625 
L 31.203125 23.390625 
L 4.890625 23.390625 
z
" id="DejaVuSans-45"/>
      </defs>
      <g transform="translate(183.966531 458.672838)scale(0.1 -0.1)">
       <use xlink:href="#DejaVuSans-50"/>
       <use x="63.623047" xlink:href="#DejaVuSans-48"/>
       <use x="127.246094" xlink:href="#DejaVuSans-49"/>
       <use x="190.869141" xlink:href="#DejaVuSans-56"/>
       <use x="254.492188" xlink:href="#DejaVuSans-45"/>
       <use x="290.576172" xlink:href="#DejaVuSans-49"/>
       <use x="354.199219" xlink:href="#DejaVuSans-48"/>
      </g>
     </g>
    </g>
    <g id="xtick_2">
     <g id="line2d_3">
      <path clip-path="url(#pc85f35c749)" d="M 321.929861 444.0744 
L 321.929861 59.8752 
" style="fill:none;stroke:#b0b0b0;stroke-linecap:square;stroke-width:0.8;"/>
     </g>
     <g id="line2d_4">
      <g>
       <use style="stroke:#000000;stroke-width:0.8;" x="321.929861" xlink:href="#m8fb1139fe5" y="444.0744"/>
      </g>
     </g>
     <g id="text_2">
      <!-- 2018-11 -->
      <g transform="translate(301.038454 458.672838)scale(0.1 -0.1)">
       <use xlink:href="#DejaVuSans-50"/>
       <use x="63.623047" xlink:href="#DejaVuSans-48"/>
       <use x="127.246094" xlink:href="#DejaVuSans-49"/>
       <use x="190.869141" xlink:href="#DejaVuSans-56"/>
       <use x="254.492188" xlink:href="#DejaVuSans-45"/>
       <use x="290.576172" xlink:href="#DejaVuSans-49"/>
       <use x="354.199219" xlink:href="#DejaVuSans-49"/>
      </g>
     </g>
    </g>
    <g id="xtick_3">
     <g id="line2d_5">
      <path clip-path="url(#pc85f35c749)" d="M 435.225271 444.0744 
L 435.225271 59.8752 
" style="fill:none;stroke:#b0b0b0;stroke-linecap:square;stroke-width:0.8;"/>
     </g>
     <g id="line2d_6">
      <g>
       <use style="stroke:#000000;stroke-width:0.8;" x="435.225271" xlink:href="#m8fb1139fe5" y="444.0744"/>
      </g>
     </g>
     <g id="text_3">
      <!-- 2018-12 -->
      <g transform="translate(414.333864 458.672838)scale(0.1 -0.1)">
       <use xlink:href="#DejaVuSans-50"/>
       <use x="63.623047" xlink:href="#DejaVuSans-48"/>
       <use x="127.246094" xlink:href="#DejaVuSans-49"/>
       <use x="190.869141" xlink:href="#DejaVuSans-56"/>
       <use x="254.492188" xlink:href="#DejaVuSans-45"/>
       <use x="290.576172" xlink:href="#DejaVuSans-49"/>
       <use x="354.199219" xlink:href="#DejaVuSans-50"/>
      </g>
     </g>
    </g>
    <g id="xtick_4">
     <g id="line2d_7">
      <path clip-path="url(#pc85f35c749)" d="M 552.297194 444.0744 
L 552.297194 59.8752 
" style="fill:none;stroke:#b0b0b0;stroke-linecap:square;stroke-width:0.8;"/>
     </g>
     <g id="line2d_8">
      <g>
       <use style="stroke:#000000;stroke-width:0.8;" x="552.297194" xlink:href="#m8fb1139fe5" y="444.0744"/>
      </g>
     </g>
     <g id="text_4">
      <!-- 2019-01 -->
      <defs>
       <path d="M 10.984375 1.515625 
L 10.984375 10.5 
Q 14.703125 8.734375 18.5 7.8125 
Q 22.3125 6.890625 25.984375 6.890625 
Q 35.75 6.890625 40.890625 13.453125 
Q 46.046875 20.015625 46.78125 33.40625 
Q 43.953125 29.203125 39.59375 26.953125 
Q 35.25 24.703125 29.984375 24.703125 
Q 19.046875 24.703125 12.671875 31.3125 
Q 6.296875 37.9375 6.296875 49.421875 
Q 6.296875 60.640625 12.9375 67.421875 
Q 19.578125 74.21875 30.609375 74.21875 
Q 43.265625 74.21875 49.921875 64.515625 
Q 56.59375 54.828125 56.59375 36.375 
Q 56.59375 19.140625 48.40625 8.859375 
Q 40.234375 -1.421875 26.421875 -1.421875 
Q 22.703125 -1.421875 18.890625 -0.6875 
Q 15.09375 0.046875 10.984375 1.515625 
z
M 30.609375 32.421875 
Q 37.25 32.421875 41.125 36.953125 
Q 45.015625 41.5 45.015625 49.421875 
Q 45.015625 57.28125 41.125 61.84375 
Q 37.25 66.40625 30.609375 66.40625 
Q 23.96875 66.40625 20.09375 61.84375 
Q 16.21875 57.28125 16.21875 49.421875 
Q 16.21875 41.5 20.09375 36.953125 
Q 23.96875 32.421875 30.609375 32.421875 
z
" id="DejaVuSans-57"/>
      </defs>
      <g transform="translate(531.405788 458.672838)scale(0.1 -0.1)">
       <use xlink:href="#DejaVuSans-50"/>
       <use x="63.623047" xlink:href="#DejaVuSans-48"/>
       <use x="127.246094" xlink:href="#DejaVuSans-49"/>
       <use x="190.869141" xlink:href="#DejaVuSans-57"/>
       <use x="254.492188" xlink:href="#DejaVuSans-45"/>
       <use x="290.576172" xlink:href="#DejaVuSans-48"/>
       <use x="354.199219" xlink:href="#DejaVuSans-49"/>
      </g>
     </g>
    </g>
    <g id="xtick_5">
     <g id="line2d_9">
      <path clip-path="url(#pc85f35c749)" d="M 669.369118 444.0744 
L 669.369118 59.8752 
" style="fill:none;stroke:#b0b0b0;stroke-linecap:square;stroke-width:0.8;"/>
     </g>
     <g id="line2d_10">
      <g>
       <use style="stroke:#000000;stroke-width:0.8;" x="669.369118" xlink:href="#m8fb1139fe5" y="444.0744"/>
      </g>
     </g>
     <g id="text_5">
      <!-- 2019-02 -->
      <g transform="translate(648.477712 458.672838)scale(0.1 -0.1)">
       <use xlink:href="#DejaVuSans-50"/>
       <use x="63.623047" xlink:href="#DejaVuSans-48"/>
       <use x="127.246094" xlink:href="#DejaVuSans-49"/>
       <use x="190.869141" xlink:href="#DejaVuSans-57"/>
       <use x="254.492188" xlink:href="#DejaVuSans-45"/>
       <use x="290.576172" xlink:href="#DejaVuSans-48"/>
       <use x="354.199219" xlink:href="#DejaVuSans-50"/>
      </g>
     </g>
    </g>
    <g id="xtick_6">
     <g id="line2d_11">
      <path clip-path="url(#pc85f35c749)" d="M 775.111501 444.0744 
L 775.111501 59.8752 
" style="fill:none;stroke:#b0b0b0;stroke-linecap:square;stroke-width:0.8;"/>
     </g>
     <g id="line2d_12">
      <g>
       <use style="stroke:#000000;stroke-width:0.8;" x="775.111501" xlink:href="#m8fb1139fe5" y="444.0744"/>
      </g>
     </g>
     <g id="text_6">
      <!-- 2019-03 -->
      <defs>
       <path d="M 40.578125 39.3125 
Q 47.65625 37.796875 51.625 33 
Q 55.609375 28.21875 55.609375 21.1875 
Q 55.609375 10.40625 48.1875 4.484375 
Q 40.765625 -1.421875 27.09375 -1.421875 
Q 22.515625 -1.421875 17.65625 -0.515625 
Q 12.796875 0.390625 7.625 2.203125 
L 7.625 11.71875 
Q 11.71875 9.328125 16.59375 8.109375 
Q 21.484375 6.890625 26.8125 6.890625 
Q 36.078125 6.890625 40.9375 10.546875 
Q 45.796875 14.203125 45.796875 21.1875 
Q 45.796875 27.640625 41.28125 31.265625 
Q 36.765625 34.90625 28.71875 34.90625 
L 20.21875 34.90625 
L 20.21875 43.015625 
L 29.109375 43.015625 
Q 36.375 43.015625 40.234375 45.921875 
Q 44.09375 48.828125 44.09375 54.296875 
Q 44.09375 59.90625 40.109375 62.90625 
Q 36.140625 65.921875 28.71875 65.921875 
Q 24.65625 65.921875 20.015625 65.03125 
Q 15.375 64.15625 9.8125 62.3125 
L 9.8125 71.09375 
Q 15.4375 72.65625 20.34375 73.4375 
Q 25.25 74.21875 29.59375 74.21875 
Q 40.828125 74.21875 47.359375 69.109375 
Q 53.90625 64.015625 53.90625 55.328125 
Q 53.90625 49.265625 50.4375 45.09375 
Q 46.96875 40.921875 40.578125 39.3125 
z
" id="DejaVuSans-51"/>
      </defs>
      <g transform="translate(754.220095 458.672838)scale(0.1 -0.1)">
       <use xlink:href="#DejaVuSans-50"/>
       <use x="63.623047" xlink:href="#DejaVuSans-48"/>
       <use x="127.246094" xlink:href="#DejaVuSans-49"/>
       <use x="190.869141" xlink:href="#DejaVuSans-57"/>
       <use x="254.492188" xlink:href="#DejaVuSans-45"/>
       <use x="290.576172" xlink:href="#DejaVuSans-48"/>
       <use x="354.199219" xlink:href="#DejaVuSans-51"/>
      </g>
     </g>
    </g>
   </g>
   <g id="matplotlib.axis_2">
    <g id="ytick_1">
     <g id="line2d_13">
      <path clip-path="url(#pc85f35c749)" d="M 115.2 444.009928 
L 829.44 444.009928 
" style="fill:none;stroke:#b0b0b0;stroke-linecap:square;stroke-width:0.8;"/>
     </g>
     <g id="line2d_14">
      <defs>
       <path d="M 0 0 
L -3.5 0 
" id="mb6b20d74fd" style="stroke:#000000;stroke-width:0.8;"/>
      </defs>
      <g>
       <use style="stroke:#000000;stroke-width:0.8;" x="115.2" xlink:href="#mb6b20d74fd" y="444.009928"/>
      </g>
     </g>
     <g id="text_7">
      <!-- −1.0 -->
      <defs>
       <path d="M 10.59375 35.5 
L 73.1875 35.5 
L 73.1875 27.203125 
L 10.59375 27.203125 
z
" id="DejaVuSans-8722"/>
       <path d="M 10.6875 12.40625 
L 21 12.40625 
L 21 0 
L 10.6875 0 
z
" id="DejaVuSans-46"/>
      </defs>
      <g transform="translate(83.917187 447.809147)scale(0.1 -0.1)">
       <use xlink:href="#DejaVuSans-8722"/>
       <use x="83.789062" xlink:href="#DejaVuSans-49"/>
       <use x="147.412109" xlink:href="#DejaVuSans-46"/>
       <use x="179.199219" xlink:href="#DejaVuSans-48"/>
      </g>
     </g>
    </g>
    <g id="ytick_2">
     <g id="line2d_15">
      <path clip-path="url(#pc85f35c749)" d="M 115.2 389.225968 
L 829.44 389.225968 
" style="fill:none;stroke:#b0b0b0;stroke-linecap:square;stroke-width:0.8;"/>
     </g>
     <g id="line2d_16">
      <g>
       <use style="stroke:#000000;stroke-width:0.8;" x="115.2" xlink:href="#mb6b20d74fd" y="389.225968"/>
      </g>
     </g>
     <g id="text_8">
      <!-- −0.5 -->
      <defs>
       <path d="M 10.796875 72.90625 
L 49.515625 72.90625 
L 49.515625 64.59375 
L 19.828125 64.59375 
L 19.828125 46.734375 
Q 21.96875 47.46875 24.109375 47.828125 
Q 26.265625 48.1875 28.421875 48.1875 
Q 40.625 48.1875 47.75 41.5 
Q 54.890625 34.8125 54.890625 23.390625 
Q 54.890625 11.625 47.5625 5.09375 
Q 40.234375 -1.421875 26.90625 -1.421875 
Q 22.3125 -1.421875 17.546875 -0.640625 
Q 12.796875 0.140625 7.71875 1.703125 
L 7.71875 11.625 
Q 12.109375 9.234375 16.796875 8.0625 
Q 21.484375 6.890625 26.703125 6.890625 
Q 35.15625 6.890625 40.078125 11.328125 
Q 45.015625 15.765625 45.015625 23.390625 
Q 45.015625 31 40.078125 35.4375 
Q 35.15625 39.890625 26.703125 39.890625 
Q 22.75 39.890625 18.8125 39.015625 
Q 14.890625 38.140625 10.796875 36.28125 
z
" id="DejaVuSans-53"/>
      </defs>
      <g transform="translate(83.917187 393.025187)scale(0.1 -0.1)">
       <use xlink:href="#DejaVuSans-8722"/>
       <use x="83.789062" xlink:href="#DejaVuSans-48"/>
       <use x="147.412109" xlink:href="#DejaVuSans-46"/>
       <use x="179.199219" xlink:href="#DejaVuSans-53"/>
      </g>
     </g>
    </g>
    <g id="ytick_3">
     <g id="line2d_17">
      <path clip-path="url(#pc85f35c749)" d="M 115.2 334.442008 
L 829.44 334.442008 
" style="fill:none;stroke:#b0b0b0;stroke-linecap:square;stroke-width:0.8;"/>
     </g>
     <g id="line2d_18">
      <g>
       <use style="stroke:#000000;stroke-width:0.8;" x="115.2" xlink:href="#mb6b20d74fd" y="334.442008"/>
      </g>
     </g>
     <g id="text_9">
      <!-- 0.0 -->
      <g transform="translate(92.296875 338.241227)scale(0.1 -0.1)">
       <use xlink:href="#DejaVuSans-48"/>
       <use x="63.623047" xlink:href="#DejaVuSans-46"/>
       <use x="95.410156" xlink:href="#DejaVuSans-48"/>
      </g>
     </g>
    </g>
    <g id="ytick_4">
     <g id="line2d_19">
      <path clip-path="url(#pc85f35c749)" d="M 115.2 279.658048 
L 829.44 279.658048 
" style="fill:none;stroke:#b0b0b0;stroke-linecap:square;stroke-width:0.8;"/>
     </g>
     <g id="line2d_20">
      <g>
       <use style="stroke:#000000;stroke-width:0.8;" x="115.2" xlink:href="#mb6b20d74fd" y="279.658048"/>
      </g>
     </g>
     <g id="text_10">
      <!-- 0.5 -->
      <g transform="translate(92.296875 283.457267)scale(0.1 -0.1)">
       <use xlink:href="#DejaVuSans-48"/>
       <use x="63.623047" xlink:href="#DejaVuSans-46"/>
       <use x="95.410156" xlink:href="#DejaVuSans-53"/>
      </g>
     </g>
    </g>
    <g id="ytick_5">
     <g id="line2d_21">
      <path clip-path="url(#pc85f35c749)" d="M 115.2 224.874088 
L 829.44 224.874088 
" style="fill:none;stroke:#b0b0b0;stroke-linecap:square;stroke-width:0.8;"/>
     </g>
     <g id="line2d_22">
      <g>
       <use style="stroke:#000000;stroke-width:0.8;" x="115.2" xlink:href="#mb6b20d74fd" y="224.874088"/>
      </g>
     </g>
     <g id="text_11">
      <!-- 1.0 -->
      <g transform="translate(92.296875 228.673307)scale(0.1 -0.1)">
       <use xlink:href="#DejaVuSans-49"/>
       <use x="63.623047" xlink:href="#DejaVuSans-46"/>
       <use x="95.410156" xlink:href="#DejaVuSans-48"/>
      </g>
     </g>
    </g>
    <g id="ytick_6">
     <g id="line2d_23">
      <path clip-path="url(#pc85f35c749)" d="M 115.2 170.090128 
L 829.44 170.090128 
" style="fill:none;stroke:#b0b0b0;stroke-linecap:square;stroke-width:0.8;"/>
     </g>
     <g id="line2d_24">
      <g>
       <use style="stroke:#000000;stroke-width:0.8;" x="115.2" xlink:href="#mb6b20d74fd" y="170.090128"/>
      </g>
     </g>
     <g id="text_12">
      <!-- 1.5 -->
      <g transform="translate(92.296875 173.889347)scale(0.1 -0.1)">
       <use xlink:href="#DejaVuSans-49"/>
       <use x="63.623047" xlink:href="#DejaVuSans-46"/>
       <use x="95.410156" xlink:href="#DejaVuSans-53"/>
      </g>
     </g>
    </g>
    <g id="ytick_7">
     <g id="line2d_25">
      <path clip-path="url(#pc85f35c749)" d="M 115.2 115.306168 
L 829.44 115.306168 
" style="fill:none;stroke:#b0b0b0;stroke-linecap:square;stroke-width:0.8;"/>
     </g>
     <g id="line2d_26">
      <g>
       <use style="stroke:#000000;stroke-width:0.8;" x="115.2" xlink:href="#mb6b20d74fd" y="115.306168"/>
      </g>
     </g>
     <g id="text_13">
      <!-- 2.0 -->
      <g transform="translate(92.296875 119.105387)scale(0.1 -0.1)">
       <use xlink:href="#DejaVuSans-50"/>
       <use x="63.623047" xlink:href="#DejaVuSans-46"/>
       <use x="95.410156" xlink:href="#DejaVuSans-48"/>
      </g>
     </g>
    </g>
    <g id="ytick_8">
     <g id="line2d_27">
      <path clip-path="url(#pc85f35c749)" d="M 115.2 60.522208 
L 829.44 60.522208 
" style="fill:none;stroke:#b0b0b0;stroke-linecap:square;stroke-width:0.8;"/>
     </g>
     <g id="line2d_28">
      <g>
       <use style="stroke:#000000;stroke-width:0.8;" x="115.2" xlink:href="#mb6b20d74fd" y="60.522208"/>
      </g>
     </g>
     <g id="text_14">
      <!-- 2.5 -->
      <g transform="translate(92.296875 64.321427)scale(0.1 -0.1)">
       <use xlink:href="#DejaVuSans-50"/>
       <use x="63.623047" xlink:href="#DejaVuSans-46"/>
       <use x="95.410156" xlink:href="#DejaVuSans-53"/>
      </g>
     </g>
    </g>
   </g>
   <g id="line2d_29">
    <path clip-path="url(#pc85f35c749)" d="M -1 350.841152 
L 0.926199 338.286496 
L 4.702712 328.465576 
L 8.479226 316.180688 
L 19.808767 317.170218 
L 23.585281 350.294388 
L 27.361794 305.00585 
L 31.138308 358.503983 
L 34.914822 338.846749 
L 46.244363 340.178548 
L 50.020877 345.338265 
L 53.79739 323.014679 
L 57.573904 341.746536 
L 61.350418 339.659528 
L 72.679959 349.507597 
L 76.456472 331.266126 
L 80.232986 344.472874 
L 84.0095 320.002825 
L 87.786013 336.693404 
L 102.892068 328.312334 
L 106.668582 334.442008 
L 110.445095 334.442008 
L 114.221609 325.009008 
L 125.55115 346.467755 
L 129.327664 346.449451 
L 133.104177 334.442008 
L 151.986746 334.442008 
L 155.763259 363.098233 
L 159.539773 340.14867 
L 163.316287 339.25818 
L 167.0928 341.998416 
L 178.422341 314.151652 
L 182.198855 343.572668 
L 185.975369 328.216558 
L 189.751882 347.401654 
L 193.528396 331.76962 
L 204.857937 348.790188 
L 208.634451 334.442008 
L 212.410964 334.442008 
L 216.187478 286.412235 
L 219.963992 334.442008 
L 231.293533 303.136888 
L 235.070046 362.848506 
L 238.84656 235.83088 
L 242.623074 305.608345 
L 246.399587 349.96413 
L 257.729128 333.378242 
L 261.505642 367.628445 
L 265.282156 332.930726 
L 269.058669 300.155448 
L 272.835183 338.983683 
L 284.164724 340.364598 
L 287.941238 285.606021 
L 291.717751 325.780512 
L 295.494265 338.054137 
L 299.270779 273.847628 
L 310.60032 342.459173 
L 314.376833 358.662285 
L 318.153347 367.756578 
L 321.929861 355.185449 
L 325.706374 329.193245 
L 337.035915 339.450827 
L 340.812429 358.06144 
L 344.588943 384.625788 
L 348.365456 329.812378 
L 352.14197 313.712942 
L 363.471511 263.471878 
L 367.248025 331.419445 
L 371.024538 337.383429 
L 374.801052 352.577388 
L 378.577566 360.702088 
L 389.907107 277.276137 
L 393.68362 281.223304 
L 397.460134 362.360757 
L 405.013161 330.907559 
L 416.342702 374.845178 
L 420.119216 353.968964 
L 423.89573 378.005157 
L 427.672243 308.145707 
L 431.448757 371.553723 
L 442.778298 382.544997 
L 446.554812 91.487055 
L 457.884353 328.631588 
L 469.213894 369.125378 
L 472.990407 345.975473 
L 476.766921 383.425313 
L 480.543435 339.104473 
L 484.319948 266.266413 
L 495.649489 196.35641 
L 499.426003 321.825096 
L 503.202517 316.577673 
L 506.97903 267.882057 
L 510.755544 227.422179 
L 522.085085 248.076706 
L 529.638112 421.033103 
L 533.414626 374.831751 
L 537.19114 372.552589 
L 548.520681 442.966424 
L 548.520681 442.966424 
" style="fill:none;stroke:#1f77b4;stroke-linecap:square;stroke-opacity:0.75;"/>
   </g>
   <g id="line2d_30">
    <path clip-path="url(#pc85f35c749)" d="M -1 339.868316 
L 0.926199 336.622464 
L 4.702712 334.99819 
L 8.479226 304.254928 
L 19.808767 324.800031 
L 23.585281 350.554937 
L 27.361794 315.550987 
L 31.138308 354.180347 
L 34.914822 337.390024 
L 46.244363 339.996142 
L 50.020877 335.505774 
L 53.79739 334.979106 
L 57.573904 333.362521 
L 61.350418 340.85574 
L 72.679959 345.796197 
L 76.456472 335.075349 
L 80.232986 341.449259 
L 84.0095 322.192178 
L 87.786013 330.76934 
L 102.892068 342.141375 
L 106.668582 330.619871 
L 110.445095 325.824306 
L 114.221609 332.730009 
L 125.55115 342.87031 
L 129.327664 344.790089 
L 133.104177 341.163966 
L 136.880691 346.616221 
L 140.657205 341.692826 
L 151.986746 324.089134 
L 155.763259 343.901109 
L 159.539773 342.206664 
L 163.316287 344.655967 
L 167.0928 334.442008 
L 178.422341 324.202015 
L 182.198855 339.124398 
L 185.975369 325.637443 
L 189.751882 344.402728 
L 193.528396 330.45772 
L 204.857937 349.819962 
L 208.634451 325.497688 
L 212.410964 340.643966 
L 216.187478 310.337066 
L 219.963992 318.276249 
L 231.293533 335.224636 
L 235.070046 336.018525 
L 238.84656 244.068468 
L 242.623074 283.164221 
L 246.399587 363.102826 
L 257.729128 336.867866 
L 261.505642 363.797941 
L 265.282156 341.784188 
L 269.058669 290.251631 
L 272.835183 342.206664 
L 284.164724 333.513466 
L 287.941238 323.853512 
L 291.717751 259.297726 
L 295.494265 370.549618 
L 299.270779 285.415007 
L 310.60032 328.796822 
L 314.376833 359.576742 
L 318.153347 355.975588 
L 321.929861 356.907373 
L 325.706374 320.064317 
L 337.035915 347.590158 
L 340.812429 350.37916 
L 344.588943 376.986998 
L 348.365456 334.442008 
L 352.14197 314.433953 
L 363.471511 272.40723 
L 367.248025 332.898798 
L 371.024538 320.746018 
L 374.801052 353.83057 
L 378.577566 355.259913 
L 389.907107 293.184952 
L 393.68362 291.695779 
L 397.460134 350.347029 
L 405.013161 322.038093 
L 416.342702 378.269176 
L 420.119216 343.727425 
L 423.89573 373.670029 
L 427.672243 318.638943 
L 431.448757 355.619001 
L 442.778298 375.529978 
L 446.554812 160.959468 
L 454.107839 328.08 
L 457.884353 268.300398 
L 469.213894 356.105627 
L 472.990407 340.673359 
L 476.766921 351.510377 
L 480.543435 349.442378 
L 484.319948 283.058432 
L 495.649489 274.771216 
L 499.426003 323.118879 
L 503.202517 316.935288 
L 506.97903 294.362531 
L 510.755544 270.987891 
L 522.085085 271.211182 
L 529.638112 397.336443 
L 533.414626 346.476517 
L 537.19114 338.074094 
L 548.520681 372.634254 
L 556.073708 363.275671 
L 559.850222 223.569708 
L 563.626735 410.296722 
L 574.956276 372.369365 
L 578.73279 378.484015 
L 582.509304 375.754502 
L 586.285817 383.459235 
L 590.062331 402.269768 
L 601.391872 320.746018 
L 605.168386 395.313075 
L 608.944899 389.225968 
L 612.721413 389.225968 
L 616.497927 334.442008 
L 616.497927 334.442008 
" style="fill:none;stroke:#ff7f0e;stroke-linecap:square;stroke-opacity:0.75;"/>
   </g>
   <g id="line2d_31">
    <path clip-path="url(#pc85f35c749)" d="M -1 337.745196 
L 0.926199 335.516203 
L 4.702712 334.803618 
L 8.479226 314.850393 
L 19.808767 326.132081 
L 23.585281 340.449649 
L 27.361794 323.243077 
L 31.138308 349.270749 
L 34.914822 339.205831 
L 46.244363 339.090344 
L 50.020877 335.828944 
L 53.79739 336.197904 
L 57.573904 330.516122 
L 61.350418 341.333072 
L 72.679959 344.73698 
L 76.456472 334.442008 
L 80.232986 339.7175 
L 84.0095 327.194325 
L 87.786013 334.841891 
L 102.892068 329.625836 
L 106.668582 332.519764 
L 110.445095 334.442008 
L 114.221609 325.374318 
L 125.55115 340.722972 
L 129.327664 341.104922 
L 133.104177 342.324592 
L 136.880691 343.360327 
L 140.657205 340.452063 
L 151.986746 326.615728 
L 155.763259 340.376937 
L 159.539773 341.682179 
L 163.316287 343.228115 
L 167.0928 335.003895 
L 178.422341 324.840695 
L 182.198855 338.596242 
L 185.975369 334.442008 
L 189.751882 338.759956 
L 193.528396 328.82314 
L 204.857937 339.786785 
L 208.634451 334.442008 
L 212.410964 338.937102 
L 216.187478 315.692417 
L 219.963992 317.931773 
L 231.293533 335.746388 
L 235.070046 338.842326 
L 238.84656 260.174213 
L 242.623074 300.560656 
L 246.399587 358.4426 
L 257.729128 333.105814 
L 261.505642 352.923344 
L 265.282156 341.11136 
L 269.058669 306.373683 
L 272.835183 333.634382 
L 284.164724 338.717829 
L 287.941238 324.430726 
L 291.717751 280.677284 
L 295.494265 356.492338 
L 299.270779 304.48203 
L 310.60032 328.056148 
L 314.376833 350.321417 
L 318.153347 355.055634 
L 321.929861 347.480362 
L 325.706374 330.287774 
L 337.035915 340.695885 
L 340.812429 348.502782 
L 344.588943 366.094963 
L 348.365456 332.30201 
L 352.14197 311.772783 
L 363.471511 309.397912 
L 367.248025 323.966522 
L 371.024538 332.891519 
L 374.801052 338.009336 
L 378.577566 348.137998 
L 389.907107 308.856093 
L 393.68362 301.010371 
L 397.460134 347.530326 
L 405.013161 324.037302 
L 416.342702 362.367283 
L 420.119216 338.606109 
L 423.89573 364.471734 
L 427.672243 328.851808 
L 431.448757 341.888371 
L 442.778298 361.453544 
L 446.554812 260.218578 
L 454.107839 313.672265 
L 457.884353 308.125464 
L 469.213894 337.502564 
L 472.990407 343.467718 
L 476.766921 345.650417 
L 484.319948 312.38298 
L 495.649489 301.551454 
L 499.426003 329.786147 
L 503.202517 325.80758 
L 506.97903 300.495272 
L 510.755544 310.632056 
L 522.085085 296.88081 
L 529.638112 380.202728 
L 533.414626 336.102128 
L 537.19114 337.813329 
L 548.520681 354.152639 
L 556.073708 345.045355 
L 559.850222 287.014751 
L 563.626735 378.902769 
L 574.956276 345.840013 
L 578.73279 352.703328 
L 582.509304 345.02947 
L 586.285817 344.254061 
L 590.062331 343.722351 
L 601.391872 330.517187 
L 605.168386 357.808077 
L 608.944899 338.856833 
L 612.721413 351.169935 
L 616.497927 356.158172 
L 631.603981 290.73795 
L 635.380495 340.162421 
L 639.157009 344.655967 
L 642.933522 363.113987 
L 654.263063 312.944505 
L 658.039577 333.862284 
L 661.816091 371.92577 
L 665.592604 367.750656 
L 669.369118 343.257818 
L 680.698659 363.203587 
L 684.475173 343.727425 
L 688.251686 334.442008 
L 692.0282 299.948404 
L 695.804714 352.96053 
L 707.134255 347.441592 
L 710.910768 366.048139 
L 714.687282 343.325893 
L 718.463796 321.551664 
L 722.240309 369.042404 
L 737.346364 363.941063 
L 741.122878 357.508939 
L 744.899391 327.13748 
L 748.675905 375.529978 
L 760.005446 290.61484 
L 763.78196 350.094568 
L 767.558473 343.572668 
L 771.334987 324.481288 
L 775.111501 398.356628 
L 786.441042 334.442008 
L 790.217555 356.355592 
L 793.994069 307.050028 
L 797.770583 334.442008 
L 801.547096 378.269176 
L 812.876637 407.487288 
L 816.653151 334.442008 
L 827.982692 334.442008 
L 827.982692 334.442008 
" style="fill:none;stroke:#2ca02c;stroke-linecap:square;stroke-opacity:0.75;"/>
   </g>
   <g id="line2d_32">
    <path clip-path="url(#pc85f35c749)" d="M -1 341.933807 
L 0.926199 334.442008 
L 4.702712 334.212786 
L 8.479226 325.978515 
L 19.808767 322.338575 
L 23.585281 342.8556 
L 27.361794 320.564786 
L 31.138308 348.229917 
L 34.914822 337.386252 
L 46.244363 334.442008 
L 50.020877 339.412545 
L 53.79739 334.442008 
L 57.573904 333.083728 
L 61.350418 339.361384 
L 72.679959 341.933832 
L 76.456472 334.442008 
L 102.892068 334.442008 
L 106.668582 324.641208 
L 110.445095 329.136614 
L 114.221609 332.901897 
L 125.55115 337.913467 
L 129.327664 341.388032 
L 133.104177 337.552014 
L 136.880691 343.30593 
L 140.657205 334.442008 
L 155.763259 337.729046 
L 159.539773 334.442008 
L 163.316287 344.325712 
L 167.0928 333.510836 
L 178.422341 327.055407 
L 182.198855 337.902048 
L 185.975369 338.014875 
L 189.751882 335.980883 
L 193.528396 332.256893 
L 204.857937 339.338898 
L 208.634451 330.917894 
L 212.410964 334.442008 
L 216.187478 323.578333 
L 219.963992 322.581563 
L 231.293533 334.187199 
L 235.070046 335.967315 
L 238.84656 286.48993 
L 242.623074 307.184522 
L 246.399587 340.042465 
L 257.729128 334.442008 
L 261.505642 361.531314 
L 265.282156 329.415957 
L 269.058669 322.716318 
L 272.835183 332.705591 
L 284.164724 333.245478 
L 287.941238 321.591449 
L 291.717751 316.432916 
L 295.494265 340.290829 
L 299.270779 317.691023 
L 310.60032 323.604312 
L 314.376833 354.383153 
L 318.153347 351.930479 
L 321.929861 339.171559 
L 325.706374 327.686693 
L 337.035915 335.838766 
L 340.812429 345.917558 
L 344.588943 359.024554 
L 348.365456 334.442008 
L 352.14197 322.896628 
L 363.471511 313.962023 
L 367.248025 327.540092 
L 371.024538 318.696692 
L 374.801052 348.350889 
L 378.577566 341.59481 
L 389.907107 317.745944 
L 393.68362 311.049408 
L 397.460134 340.536024 
L 405.013161 333.256778 
L 416.342702 349.554825 
L 420.119216 335.95329 
L 423.89573 352.06482 
L 427.672243 339.920404 
L 431.448757 337.517599 
L 442.778298 351.648523 
L 446.554812 289.864053 
L 454.107839 323.435185 
L 457.884353 312.770898 
L 469.213894 339.123316 
L 472.990407 333.913333 
L 476.766921 341.807919 
L 480.543435 332.326797 
L 484.319948 316.734061 
L 495.649489 310.027417 
L 499.426003 336.292488 
L 503.202517 320.869852 
L 506.97903 315.402048 
L 510.755544 321.975747 
L 522.085085 306.190341 
L 529.638112 371.000384 
L 533.414626 323.742644 
L 537.19114 346.24163 
L 548.520681 342.326956 
L 556.073708 343.911933 
L 559.850222 307.31644 
L 563.626735 362.940539 
L 574.956276 345.881571 
L 578.73279 342.527769 
L 582.509304 340.008969 
L 586.285817 340.70684 
L 590.062331 337.693701 
L 601.391872 332.693584 
L 605.168386 349.213599 
L 608.944899 337.757225 
L 612.721413 341.450252 
L 616.497927 349.233677 
L 631.603981 301.297184 
L 635.380495 344.977385 
L 639.157009 341.794356 
L 642.933522 346.359922 
L 654.263063 315.030369 
L 658.039577 340.305174 
L 661.816091 355.92971 
L 665.592604 351.298611 
L 669.369118 338.141704 
L 680.698659 345.339893 
L 684.475173 342.618718 
L 688.251686 336.562677 
L 692.0282 315.339706 
L 695.804714 336.590399 
L 707.134255 340.703032 
L 710.910768 352.703328 
L 714.687282 338.824725 
L 718.463796 329.046618 
L 722.240309 347.495226 
L 737.346364 346.566327 
L 741.122878 339.996142 
L 744.899391 324.868112 
L 748.675905 350.094568 
L 760.005446 335.58334 
L 763.78196 333.288661 
L 767.558473 335.012674 
L 771.334987 332.721046 
L 775.111501 349.126368 
L 786.441042 325.311348 
L 790.217555 336.248073 
L 793.994069 317.302892 
L 797.770583 320.15054 
L 801.547096 333.037291 
L 812.876637 365.879217 
L 816.653151 348.056957 
L 820.429665 345.546865 
L 824.206178 339.384922 
L 827.982692 342.206664 
L 839.312233 341.870342 
L 843.088747 334.442008 
L 846.86526 328.465576 
L 850.641774 349.554825 
L 854.418288 258.840143 
L 865.747829 342.221979 
L 869.524342 356.774323 
L 873.300856 326.553118 
L 877.07737 348.342416 
L 880.853883 354.108045 
L 892.183424 354.985993 
L 895.959938 337.251442 
L 899.736452 334.442008 
L 903.512965 343.092107 
L 907.289479 348.529312 
L 918.61902 325.461031 
L 922.395534 331.121768 
L 922.6 331.214293 
L 922.6 331.214293 
" style="fill:none;stroke:#d62728;stroke-linecap:square;stroke-opacity:0.75;"/>
   </g>
   <g id="line2d_33">
    <path clip-path="url(#pc85f35c749)" d="M -1 336.677399 
L 0.926199 334.442008 
L 4.702712 334.266418 
L 8.479226 334.442008 
L 19.808767 317.437067 
L 23.585281 334.442008 
L 27.361794 332.165666 
L 31.138308 334.442008 
L 34.914822 346.484072 
L 46.244363 334.442008 
L 50.020877 339.61976 
L 53.79739 334.442008 
L 57.573904 331.812378 
L 61.350418 340.091604 
L 72.679959 339.676719 
L 76.456472 335.0107 
L 80.232986 334.442008 
L 84.0095 331.393162 
L 87.786013 334.442008 
L 106.668582 334.442008 
L 110.445095 323.68915 
L 114.221609 332.584925 
L 125.55115 337.762248 
L 129.327664 334.442008 
L 133.104177 344.029201 
L 136.880691 334.442008 
L 140.657205 341.383811 
L 151.986746 333.240166 
L 155.763259 335.234543 
L 159.539773 341.427212 
L 163.316287 335.934178 
L 167.0928 336.387001 
L 178.422341 334.442008 
L 182.198855 332.901897 
L 185.975369 334.442008 
L 204.857937 334.442008 
L 208.634451 335.092907 
L 212.410964 334.442008 
L 216.187478 322.001029 
L 219.963992 328.953812 
L 231.293533 334.442008 
L 235.070046 336.681897 
L 238.84656 298.808615 
L 242.623074 319.775436 
L 246.399587 327.213569 
L 257.729128 349.788655 
L 261.505642 340.944145 
L 265.282156 341.501418 
L 269.058669 315.420891 
L 272.835183 339.264068 
L 284.164724 328.417174 
L 287.941238 329.660862 
L 291.717751 318.789448 
L 295.494265 335.444154 
L 299.270779 320.394839 
L 310.60032 331.254578 
L 314.376833 339.668746 
L 318.153347 353.143768 
L 321.929861 334.932245 
L 325.706374 334.442008 
L 337.035915 334.442008 
L 340.812429 343.92148 
L 344.588943 350.344855 
L 348.365456 334.442008 
L 352.14197 327.662986 
L 363.471511 330.136494 
L 367.248025 334.442008 
L 371.024538 304.871526 
L 374.801052 336.916848 
L 378.577566 349.749291 
L 389.907107 313.438145 
L 393.68362 318.83756 
L 397.460134 342.008582 
L 405.013161 330.747521 
L 416.342702 347.104098 
L 420.119216 334.442008 
L 423.89573 349.797681 
L 427.672243 337.798868 
L 431.448757 334.442008 
L 442.778298 351.47975 
L 446.554812 304.753694 
L 454.107839 320.116874 
L 457.884353 314.696956 
L 469.213894 337.633307 
L 472.990407 343.207442 
L 476.766921 336.607382 
L 480.543435 329.361238 
L 484.319948 318.291823 
L 495.649489 313.466789 
L 499.426003 334.905297 
L 503.202517 328.703844 
L 506.97903 315.210517 
L 510.755544 330.17964 
L 522.085085 314.591873 
L 529.638112 356.968559 
L 533.414626 339.843243 
L 537.19114 336.809216 
L 548.520681 341.769579 
L 556.073708 341.035345 
L 559.850222 310.400126 
L 563.626735 359.523042 
L 574.956276 339.891063 
L 578.73279 342.999245 
L 582.509304 340.949098 
L 586.285817 336.476695 
L 590.062331 335.582261 
L 601.391872 337.165494 
L 605.168386 343.894927 
L 608.944899 337.733748 
L 612.721413 339.77496 
L 616.497927 346.163227 
L 631.603981 313.61269 
L 635.380495 339.476858 
L 639.157009 338.337198 
L 642.933522 343.431528 
L 654.263063 324.223238 
L 658.039577 336.908584 
L 661.816091 350.777589 
L 665.592604 341.933832 
L 669.369118 338.965454 
L 680.698659 344.053229 
L 684.475173 340.38013 
L 688.251686 335.252122 
L 692.0282 321.791708 
L 695.804714 334.807844 
L 707.134255 337.745563 
L 710.910768 349.013217 
L 714.687282 336.18811 
L 718.463796 332.667629 
L 722.240309 345.136885 
L 737.346364 341.698162 
L 741.122878 335.219085 
L 744.899391 334.702884 
L 748.675905 343.59446 
L 760.005446 336.724673 
L 763.78196 327.156907 
L 767.558473 335.261718 
L 771.334987 336.093786 
L 775.111501 342.547798 
L 786.441042 326.594168 
L 790.217555 336.976998 
L 793.994069 322.908543 
L 797.770583 319.050324 
L 801.547096 325.063543 
L 812.876637 344.766677 
L 816.653151 359.565862 
L 820.429665 347.421128 
L 824.206178 334.784408 
L 827.982692 338.907158 
L 839.312233 340.17105 
L 843.088747 327.26342 
L 846.86526 340.115428 
L 850.641774 343.790807 
L 854.418288 293.14962 
L 865.747829 333.551212 
L 869.524342 346.223505 
L 873.300856 329.161626 
L 877.07737 341.053865 
L 880.853883 343.15383 
L 892.183424 353.006672 
L 895.959938 336.633366 
L 899.736452 333.994792 
L 903.512965 333.551212 
L 907.289479 345.487161 
L 918.61902 335.42468 
L 922.395534 324.030577 
L 922.6 324.814885 
L 922.6 324.814885 
" style="fill:none;stroke:#9467bd;stroke-linecap:square;stroke-opacity:0.75;"/>
   </g>
   <g id="line2d_34">
    <path clip-path="url(#pc85f35c749)" d="M -1 336.210582 
L 0.926199 333.575858 
L 4.702712 334.442008 
L 8.479226 327.710384 
L 19.808767 326.750664 
L 23.585281 334.442008 
L 27.361794 333.685498 
L 31.138308 343.207442 
L 34.914822 333.897571 
L 46.244363 334.442008 
L 50.020877 342.432746 
L 53.79739 332.981102 
L 57.573904 335.883691 
L 61.350418 337.363819 
L 72.679959 339.094892 
L 76.456472 333.81501 
L 80.232986 334.442008 
L 84.0095 331.324855 
L 87.786013 334.442008 
L 102.892068 334.442008 
L 106.668582 328.834798 
L 110.445095 332.56782 
L 114.221609 334.442008 
L 125.55115 334.442008 
L 129.327664 339.828271 
L 133.104177 334.442008 
L 136.880691 342.640968 
L 140.657205 336.37556 
L 151.986746 333.457865 
L 155.763259 335.905081 
L 159.539773 334.442008 
L 163.316287 342.680197 
L 167.0928 335.154645 
L 178.422341 331.393473 
L 182.198855 334.442008 
L 185.975369 336.710134 
L 189.751882 334.442008 
L 193.528396 330.522505 
L 204.857937 334.442008 
L 208.634451 338.226143 
L 212.410964 337.827033 
L 216.187478 321.757131 
L 231.293533 329.639031 
L 235.070046 334.442008 
L 238.84656 313.1611 
L 242.623074 328.301388 
L 246.399587 338.432515 
L 257.729128 333.377093 
L 261.505642 344.988653 
L 265.282156 335.479337 
L 269.058669 318.340629 
L 272.835183 335.469207 
L 284.164724 332.483381 
L 287.941238 329.348458 
L 291.717751 305.887288 
L 295.494265 346.625755 
L 299.270779 315.714099 
L 310.60032 333.864901 
L 314.376833 337.804497 
L 318.153347 355.255682 
L 321.929861 338.515553 
L 325.706374 328.258472 
L 337.035915 341.322093 
L 340.812429 339.701268 
L 344.588943 347.907813 
L 348.365456 340.346866 
L 352.14197 325.704313 
L 363.471511 317.486597 
L 367.248025 328.880185 
L 371.024538 328.513695 
L 374.801052 334.442008 
L 378.577566 345.08747 
L 389.907107 317.311592 
L 393.68362 319.050553 
L 397.460134 343.045494 
L 405.013161 325.105393 
L 416.342702 334.442008 
L 420.119216 350.552457 
L 423.89573 346.901898 
L 427.672243 334.218855 
L 431.448757 339.452736 
L 442.778298 346.927383 
L 446.554812 303.889415 
L 454.107839 313.22867 
L 457.884353 337.202774 
L 469.213894 325.060587 
L 472.990407 334.442008 
L 476.766921 350.665234 
L 480.543435 326.308145 
L 484.319948 320.545589 
L 495.649489 318.631341 
L 499.426003 333.474826 
L 503.202517 328.484252 
L 506.97903 322.101815 
L 510.755544 321.482989 
L 522.085085 321.078793 
L 529.638112 358.356195 
L 533.414626 334.203946 
L 537.19114 338.955375 
L 548.520681 334.442008 
L 556.073708 341.812603 
L 559.850222 323.219597 
L 563.626735 353.657053 
L 574.956276 341.38131 
L 578.73279 338.029285 
L 582.509304 340.811298 
L 586.285817 334.270808 
L 590.062331 337.006 
L 601.391872 333.391836 
L 605.168386 345.19076 
L 608.944899 338.670945 
L 612.721413 333.942154 
L 616.497927 346.682566 
L 631.603981 316.292721 
L 635.380495 342.707658 
L 639.157009 336.313187 
L 642.933522 340.78764 
L 654.263063 320.85828 
L 658.039577 339.136349 
L 661.816091 348.00756 
L 665.592604 334.442008 
L 669.369118 345.636991 
L 680.698659 334.442008 
L 684.475173 346.910996 
L 688.251686 333.244544 
L 692.0282 325.558123 
L 695.804714 325.950494 
L 707.134255 334.442008 
L 710.910768 354.779441 
L 714.687282 337.251442 
L 718.463796 331.078081 
L 722.240309 340.503212 
L 737.346364 343.325893 
L 741.122878 337.306529 
L 744.899391 328.559167 
L 748.675905 342.816626 
L 760.005446 334.442008 
L 763.78196 334.442008 
L 767.558473 334.819828 
L 771.334987 334.442008 
L 775.111501 338.612413 
L 786.441042 330.697781 
L 790.217555 335.394773 
L 793.994069 326.753031 
L 797.770583 321.689021 
L 801.547096 334.442008 
L 812.876637 347.474316 
L 816.653151 343.937894 
L 820.429665 344.439081 
L 824.206178 334.442008 
L 827.982692 340.822469 
L 839.312233 335.376489 
L 843.088747 336.798307 
L 846.86526 330.107453 
L 850.641774 342.086281 
L 854.418288 304.061812 
L 865.747829 329.178069 
L 869.524342 349.137875 
L 873.300856 326.492963 
L 877.07737 340.651524 
L 880.853883 340.387554 
L 892.183424 349.26062 
L 895.959938 335.999846 
L 899.736452 335.75893 
L 903.512965 334.442008 
L 907.289479 341.906489 
L 918.61902 336.730633 
L 922.395534 324.215669 
L 922.6 325.159994 
L 922.6 325.159994 
" style="fill:none;stroke:#8c564b;stroke-linecap:square;stroke-opacity:0.75;"/>
   </g>
   <g id="line2d_35">
    <path clip-path="url(#pc85f35c749)" d="M -1 334.852925 
L 0.926199 334.442008 
L 4.702712 334.442008 
L 8.479226 325.649521 
L 19.808767 330.935835 
L 23.585281 334.442008 
L 31.138308 334.442008 
L 34.914822 341.479593 
L 46.244363 334.442008 
L 50.020877 334.442008 
L 53.79739 341.83298 
L 57.573904 332.912507 
L 61.350418 339.790129 
L 72.679959 335.307018 
L 76.456472 340.835892 
L 80.232986 333.361761 
L 84.0095 334.442008 
L 129.327664 334.442008 
L 133.104177 331.844163 
L 136.880691 334.442008 
L 140.657205 334.442008 
L 151.986746 336.382584 
L 155.763259 338.39314 
L 159.539773 334.442008 
L 193.528396 334.442008 
L 204.857937 340.590424 
L 208.634451 334.442008 
L 219.963992 334.442008 
L 231.293533 314.733144 
L 235.070046 334.442008 
L 238.84656 324.815886 
L 242.623074 298.917017 
L 246.399587 348.789018 
L 257.729128 334.328935 
L 261.505642 342.348971 
L 265.282156 340.407373 
L 269.058669 334.442008 
L 272.835183 323.111835 
L 284.164724 334.442008 
L 287.941238 321.48989 
L 291.717751 334.442008 
L 295.494265 334.442008 
L 299.270779 318.267696 
L 310.60032 325.803873 
L 314.376833 334.442008 
L 318.153347 353.742819 
L 321.929861 334.442008 
L 325.706374 333.521269 
L 337.035915 335.050719 
L 340.812429 334.442008 
L 344.588943 359.028478 
L 348.365456 336.151952 
L 352.14197 334.442008 
L 363.471511 308.9207 
L 367.248025 336.392772 
L 371.024538 320.64947 
L 374.801052 338.362148 
L 378.577566 334.442008 
L 389.907107 325.396048 
L 393.68362 320.077062 
L 397.460134 334.442008 
L 405.013161 333.113912 
L 416.342702 345.923676 
L 420.119216 336.274247 
L 423.89573 334.442008 
L 427.672243 350.933098 
L 431.448757 335.209751 
L 442.778298 348.579804 
L 446.554812 329.749863 
L 454.107839 284.096704 
L 457.884353 328.692817 
L 469.213894 331.354473 
L 472.990407 338.137904 
L 476.766921 344.482414 
L 480.543435 336.196498 
L 484.319948 314.650244 
L 495.649489 334.442008 
L 499.426003 326.135687 
L 503.202517 319.140402 
L 506.97903 329.39166 
L 510.755544 319.428671 
L 522.085085 316.733015 
L 529.638112 360.875603 
L 533.414626 313.703415 
L 537.19114 354.596973 
L 548.520681 341.887784 
L 556.073708 338.533756 
L 559.850222 313.931757 
L 563.626735 356.151005 
L 574.956276 340.253502 
L 578.73279 339.680911 
L 582.509304 340.101183 
L 586.285817 334.193367 
L 590.062331 337.088177 
L 601.391872 335.45888 
L 605.168386 341.284657 
L 608.944899 339.824612 
L 612.721413 334.25012 
L 616.497927 346.701356 
L 631.603981 318.265642 
L 635.380495 339.23443 
L 639.157009 336.800421 
L 642.933522 340.668599 
L 654.263063 322.516248 
L 658.039577 339.339435 
L 661.816091 343.4889 
L 665.592604 345.3988 
L 669.369118 336.024656 
L 680.698659 339.259538 
L 684.475173 343.228115 
L 688.251686 333.177763 
L 692.0282 321.943766 
L 695.804714 330.702489 
L 707.134255 344.567096 
L 710.910768 345.730824 
L 714.687282 335.922656 
L 718.463796 330.689682 
L 722.240309 343.439639 
L 737.346364 337.446035 
L 741.122878 336.392772 
L 744.899391 334.442008 
L 748.675905 338.74528 
L 760.005446 342.883562 
L 763.78196 331.082174 
L 767.558473 334.442008 
L 771.334987 331.182136 
L 775.111501 342.004481 
L 786.441042 318.573551 
L 790.217555 343.352652 
L 793.994069 324.203694 
L 797.770583 322.943126 
L 801.547096 326.413965 
L 812.876637 356.050852 
L 816.653151 340.826281 
L 820.429665 344.885773 
L 824.206178 334.442008 
L 827.982692 337.682464 
L 839.312233 338.824725 
L 843.088747 333.572421 
L 846.86526 331.853789 
L 850.641774 342.448894 
L 854.418288 312.619352 
L 865.747829 329.323783 
L 869.524342 341.505064 
L 873.300856 329.21527 
L 877.07737 339.061229 
L 880.853883 343.508368 
L 892.183424 347.270498 
L 895.959938 336.109346 
L 899.736452 334.200136 
L 903.512965 335.407364 
L 907.289479 341.503052 
L 918.61902 336.263802 
L 922.395534 327.825588 
L 922.6 328.440556 
L 922.6 328.440556 
" style="fill:none;stroke:#e377c2;stroke-linecap:square;stroke-opacity:0.75;"/>
   </g>
   <g id="line2d_36">
    <path clip-path="url(#pc85f35c749)" d="M -1 335.829605 
L 0.926199 335.290432 
L 4.702712 334.442008 
L 23.585281 334.442008 
L 27.361794 319.661943 
L 31.138308 343.267715 
L 34.914822 334.442008 
L 46.244363 338.773219 
L 50.020877 337.976457 
L 53.79739 334.442008 
L 57.573904 334.442008 
L 61.350418 337.842392 
L 72.679959 444.009928 
M 106.668582 334.442008 
L 140.657205 334.442008 
L 151.986746 340.680751 
L 155.763259 334.442008 
L 163.316287 334.442008 
L 167.0928 342.022179 
L 178.422341 333.25749 
L 182.198855 334.442008 
L 193.528396 334.442008 
L 204.857937 339.568849 
L 208.634451 334.442008 
L 212.410964 330.292872 
L 216.187478 334.442008 
L 219.963992 320.227791 
L 231.293533 334.442008 
L 238.84656 334.442008 
L 242.623074 282.148228 
L 246.399587 334.442008 
L 257.729128 348.370885 
L 261.505642 334.442008 
L 265.282156 334.442008 
L 269.058669 341.760088 
L 272.835183 334.442008 
L 284.164724 334.442008 
L 287.941238 303.510309 
L 291.717751 331.80898 
L 295.494265 336.266758 
L 299.270779 334.442008 
L 325.706374 334.442008 
L 337.035915 341.948971 
L 340.812429 334.442008 
L 344.588943 359.796568 
L 348.365456 338.447717 
L 352.14197 334.442008 
L 389.907107 334.442008 
L 393.68362 268.652342 
L 397.460134 334.442008 
L 405.013161 334.442008 
L 416.342702 344.680572 
L 420.119216 334.442008 
L 423.89573 334.442008 
L 427.672243 347.674441 
L 431.448757 336.359207 
L 442.778298 334.442008 
L 446.554812 334.442008 
L 454.107839 301.464308 
L 457.884353 334.517003 
L 480.543435 334.442008 
L 484.319948 330.614635 
L 495.649489 317.836413 
L 499.426003 338.849913 
L 503.202517 316.661825 
L 506.97903 326.482669 
L 510.755544 326.021803 
L 522.085085 323.885955 
L 529.638112 354.857837 
L 533.414626 337.838614 
L 537.19114 336.307716 
L 548.520681 337.030227 
L 556.073708 333.499488 
L 559.850222 324.921981 
L 563.626735 350.132951 
L 574.956276 345.982075 
L 578.73279 337.596555 
L 582.509304 338.628398 
L 586.285817 328.438286 
L 590.062331 341.983696 
L 601.391872 336.199374 
L 605.168386 342.362581 
L 608.944899 337.706446 
L 612.721413 333.751816 
L 616.497927 346.101818 
L 631.603981 316.500501 
L 635.380495 332.79313 
L 639.157009 343.051496 
L 642.933522 344.226432 
L 654.263063 324.278906 
L 658.039577 334.442008 
L 661.816091 339.402237 
L 665.592604 348.914993 
L 669.369118 335.617859 
L 680.698659 340.060876 
L 684.475173 341.959142 
L 688.251686 333.83058 
L 692.0282 323.618984 
L 695.804714 333.888635 
L 707.134255 339.177104 
L 710.910768 344.570135 
L 714.687282 336.851488 
L 718.463796 328.866362 
L 722.240309 342.58557 
L 737.346364 338.974014 
L 741.122878 334.442008 
L 744.899391 337.918148 
L 748.675905 336.308827 
L 760.005446 342.476989 
L 763.78196 328.451244 
L 767.558473 333.694614 
L 771.334987 334.442008 
L 775.111501 339.935251 
L 786.441042 327.721009 
L 790.217555 336.061964 
L 793.994069 324.426932 
L 797.770583 329.237532 
L 801.547096 326.335551 
L 812.876637 349.538033 
L 816.653151 340.795818 
L 820.429665 334.442008 
L 824.206178 340.287629 
L 827.982692 341.250419 
L 839.312233 335.792614 
L 843.088747 331.536151 
L 846.86526 339.104473 
L 850.641774 338.616024 
L 854.418288 324.67853 
L 865.747829 334.442008 
L 873.300856 334.442008 
L 877.07737 326.141408 
L 880.853883 334.442008 
L 892.183424 352.343246 
L 895.959938 334.810924 
L 899.736452 337.403303 
L 903.512965 335.012674 
L 907.289479 340.752202 
L 918.61902 334.442008 
L 922.6 334.442008 
L 922.6 334.442008 
" style="fill:none;stroke:#7f7f7f;stroke-linecap:square;stroke-opacity:0.75;"/>
   </g>
   <g id="line2d_37">
    <path clip-path="url(#pc85f35c749)" d="M -1 334.442008 
L 8.479226 334.442008 
L 19.808767 356.765959 
L 23.585281 334.442008 
L 46.244363 334.442008 
L 50.020877 341.966428 
L 53.79739 334.442008 
L 61.350418 334.442008 
L 72.679959 339.975741 
L 76.456472 334.442008 
L 106.668582 334.442008 
L 110.445095 326.865503 
L 114.221609 334.442008 
L 125.55115 334.442008 
L 129.327664 337.385624 
L 133.104177 334.442008 
L 167.0928 334.442008 
L 178.422341 344.973076 
L 182.198855 336.796975 
L 185.975369 334.442008 
L 204.857937 334.442008 
L 208.634451 335.075349 
L 212.410964 334.442008 
L 257.729128 334.442008 
L 261.505642 304.501937 
L 265.282156 334.442008 
L 299.270779 334.442008 
L 310.60032 288.713661 
L 314.376833 334.442008 
L 318.153347 350.114739 
L 321.929861 337.984429 
L 325.706374 334.442008 
L 337.035915 334.442008 
L 340.812429 338.868995 
L 344.588943 334.442008 
L 378.577566 334.442008 
L 389.907107 326.900896 
L 393.68362 317.840808 
L 397.460134 337.902048 
L 405.013161 334.442008 
L 416.342702 336.079572 
L 420.119216 337.086751 
L 423.89573 345.669816 
L 427.672243 334.442008 
L 431.448757 333.579268 
L 442.778298 350.277996 
L 446.554812 334.442008 
L 469.213894 334.442008 
L 472.990407 290.214592 
L 476.766921 334.442008 
L 480.543435 333.016271 
L 484.319948 329.445655 
L 495.649489 314.116755 
L 499.426003 335.009717 
L 503.202517 340.262804 
L 506.97903 309.671703 
L 510.755544 331.787603 
L 522.085085 316.7806 
L 529.638112 355.562041 
L 533.414626 337.258006 
L 537.19114 337.700143 
L 548.520681 334.442008 
L 556.073708 336.662613 
L 559.850222 330.682866 
L 563.626735 342.29883 
L 574.956276 337.839017 
L 578.73279 342.404102 
L 582.509304 340.593189 
L 586.285817 335.935499 
L 590.062331 334.442008 
L 601.391872 334.442008 
L 605.168386 341.806184 
L 608.944899 338.131164 
L 612.721413 335.969087 
L 616.497927 342.107891 
L 631.603981 334.442008 
L 635.380495 334.442008 
L 639.157009 325.699887 
L 642.933522 343.694753 
L 654.263063 323.577856 
L 658.039577 337.736708 
L 661.816091 344.079561 
L 665.592604 339.89875 
L 669.369118 337.814731 
L 680.698659 337.733748 
L 684.475173 339.096221 
L 688.251686 335.657179 
L 692.0282 334.442008 
L 695.804714 318.16042 
L 707.134255 344.070434 
L 710.910768 339.915517 
L 714.687282 340.100445 
L 718.463796 330.862066 
L 722.240309 339.379393 
L 737.346364 341.152493 
L 741.122878 334.442008 
L 744.899391 334.442008 
L 748.675905 337.840371 
L 760.005446 338.7957 
L 763.78196 330.663804 
L 767.558473 331.276713 
L 771.334987 334.442008 
L 775.111501 341.068146 
L 786.441042 326.004019 
L 790.217555 334.442008 
L 793.994069 334.442008 
L 797.770583 323.80094 
L 801.547096 334.442008 
L 812.876637 344.354281 
L 816.653151 334.442008 
L 820.429665 346.160502 
L 824.206178 334.310789 
L 827.982692 334.442008 
L 839.312233 334.442008 
L 843.088747 343.87848 
L 846.86526 334.442008 
L 850.641774 334.298594 
L 854.418288 318.687144 
L 865.747829 329.558409 
L 869.524342 340.076245 
L 873.300856 329.766099 
L 877.07737 338.562925 
L 880.853883 339.479614 
L 892.183424 344.474733 
L 895.959938 334.442008 
L 899.736452 336.33111 
L 903.512965 336.659982 
L 907.289479 338.667768 
L 918.61902 334.598982 
L 922.6 334.442008 
L 922.6 334.442008 
" style="fill:none;stroke:#bcbd22;stroke-linecap:square;stroke-opacity:0.75;"/>
   </g>
   <g id="line2d_38">
    <path clip-path="url(#pc85f35c749)" d="M 246.399587 334.442008 
L 291.717751 334.442008 
L 295.494265 317.463162 
L 299.270779 324.231118 
L 310.60032 334.442008 
L 314.376833 336.694311 
L 318.153347 334.442008 
L 510.755544 334.442008 
L 522.085085 255.512525 
L 529.638112 351.111114 
L 533.414626 334.442008 
L 537.19114 341.258125 
L 548.520681 334.442008 
L 578.73279 334.442008 
L 582.509304 356.246815 
L 586.285817 335.244477 
L 590.062331 334.442008 
L 601.391872 337.364648 
L 605.168386 340.511368 
L 608.944899 334.442008 
L 616.497927 334.442008 
L 631.603981 339.514597 
L 635.380495 334.442008 
L 669.369118 334.442008 
L 680.698659 351.816856 
L 684.475173 334.442008 
L 710.910768 334.442008 
L 714.687282 347.000177 
L 718.463796 331.681391 
L 722.240309 334.442008 
L 744.899391 334.442008 
L 748.675905 345.770217 
L 760.005446 340.241444 
L 763.78196 328.318452 
L 767.558473 334.442008 
L 771.334987 334.442008 
L 775.111501 339.827199 
L 786.441042 334.442008 
L 816.653151 334.442008 
L 820.429665 334.877666 
L 824.206178 334.22331 
L 827.982692 334.442008 
L 839.312233 340.989892 
L 843.088747 334.442008 
L 869.524342 334.442008 
L 873.300856 318.308596 
L 877.07737 334.442008 
L 922.395534 334.442008 
L 922.6 335.729229 
L 922.6 335.729229 
" style="fill:none;stroke:#17becf;stroke-linecap:square;stroke-opacity:0.75;"/>
   </g>
   <g id="line2d_39">
    <path clip-path="url(#pc85f35c749)" d="M -1 335.180367 
L 0.926199 335.138783 
L 4.702712 334.442008 
L 19.808767 334.442008 
L 23.585281 329.445711 
L 27.361794 334.442008 
L 31.138308 335.028829 
L 34.914822 334.442008 
L 46.244363 334.442008 
L 50.020877 341.606064 
L 53.79739 334.442008 
L 57.573904 331.826807 
L 61.350418 338.317401 
L 72.679959 339.920404 
L 76.456472 334.442008 
L 80.232986 335.979803 
L 84.0095 334.442008 
L 102.892068 334.442008 
L 106.668582 329.762951 
L 110.445095 331.824344 
L 114.221609 333.437635 
L 125.55115 334.442008 
L 129.327664 334.442008 
L 133.104177 342.584958 
L 136.880691 334.442008 
L 151.986746 334.442008 
L 155.763259 333.269113 
L 159.539773 334.442008 
L 163.316287 339.567427 
L 167.0928 334.442008 
L 178.422341 332.412972 
L 182.198855 334.442008 
L 193.528396 334.442008 
L 204.857937 338.027867 
L 208.634451 334.442008 
L 212.410964 334.442008 
L 216.187478 322.187701 
L 219.963992 334.442008 
L 231.293533 334.719864 
L 235.070046 334.442008 
L 238.84656 334.442008 
L 242.623074 304.728674 
L 246.399587 332.615876 
L 257.729128 334.442008 
L 261.505642 349.17081 
L 265.282156 333.279924 
L 269.058669 334.442008 
L 272.835183 334.442008 
L 284.164724 326.310656 
L 287.941238 334.442008 
L 291.717751 334.442008 
L 295.494265 316.703168 
L 299.270779 325.558123 
L 310.60032 344.485734 
L 314.376833 334.442008 
L 348.365456 334.442008 
L 352.14197 352.602807 
L 363.471511 334.442008 
L 367.248025 326.810811 
L 371.024538 334.892596 
L 374.801052 334.442008 
L 378.577566 330.596197 
L 389.907107 334.442008 
L 393.68362 310.692579 
L 397.460134 334.442008 
L 405.013161 334.442008 
L 416.342702 341.566916 
L 420.119216 337.451764 
L 423.89573 343.923847 
L 427.672243 334.442008 
L 431.448757 334.369924 
L 442.778298 345.31956 
L 446.554812 334.282055 
L 454.107839 300.501508 
L 457.884353 331.820182 
L 469.213894 323.008834 
L 472.990407 334.442008 
L 476.766921 350.995823 
L 480.543435 334.442008 
L 484.319948 320.785717 
L 495.649489 334.442008 
L 499.426003 323.089868 
L 503.202517 334.442008 
L 506.97903 317.45156 
L 510.755544 335.461038 
L 522.085085 312.528424 
L 529.638112 334.442008 
L 533.414626 344.541636 
L 537.19114 334.442008 
L 548.520681 350.411255 
L 556.073708 339.391787 
L 559.850222 320.701979 
L 563.626735 349.423744 
L 574.956276 334.442008 
L 586.285817 334.442008 
L 590.062331 346.875247 
L 601.391872 333.857646 
L 605.168386 338.801474 
L 608.944899 339.466393 
L 612.721413 333.871011 
L 616.497927 342.710094 
L 631.603981 325.703881 
L 635.380495 331.723358 
L 639.157009 334.442008 
L 642.933522 343.325893 
L 654.263063 330.682324 
L 658.039577 334.442008 
L 661.816091 342.750476 
L 665.592604 337.9538 
L 669.369118 337.707277 
L 680.698659 338.555479 
L 684.475173 336.77324 
L 688.251686 334.442008 
L 692.0282 328.010847 
L 695.804714 330.54226 
L 707.134255 334.442008 
L 710.910768 346.246087 
L 714.687282 335.334784 
L 718.463796 334.442008 
L 722.240309 334.442008 
L 737.346364 339.26987 
L 741.122878 334.442008 
L 744.899391 334.442008 
L 748.675905 340.519604 
L 760.005446 337.432696 
L 763.78196 332.205928 
L 767.558473 332.798489 
L 771.334987 334.442008 
L 786.441042 334.442008 
L 790.217555 336.061238 
L 793.994069 334.442008 
L 797.770583 325.311348 
L 801.547096 326.266556 
L 812.876637 348.24584 
L 816.653151 337.851984 
L 820.429665 338.887706 
L 824.206178 334.442008 
L 827.982692 338.206897 
L 839.312233 334.442008 
L 843.088747 335.841598 
L 846.86526 333.125573 
L 850.641774 336.943559 
L 854.418288 322.051617 
L 865.747829 332.970063 
L 869.524342 334.442008 
L 877.07737 334.442008 
L 880.853883 342.521167 
L 892.183424 334.442008 
L 895.959938 334.442008 
L 899.736452 342.87031 
L 903.512965 335.716054 
L 907.289479 337.986852 
L 918.61902 334.553019 
L 922.395534 332.886277 
L 922.6 333.029828 
L 922.6 333.029828 
" style="fill:none;stroke:#1f77b4;stroke-dasharray:7.4,3.2;stroke-dashoffset:0;stroke-opacity:0.5;stroke-width:2;"/>
   </g>
   <g id="line2d_40">
    <path clip-path="url(#pc85f35c749)" d="M 182.198855 324.67853 
L 185.975369 334.442008 
L 208.634451 334.442008 
L 212.410964 336.832581 
L 216.187478 321.815222 
L 219.963992 334.442008 
L 231.293533 329.967985 
L 235.070046 334.442008 
L 238.84656 334.442008 
L 242.623074 316.370758 
L 246.399587 334.442008 
L 257.729128 334.442008 
L 261.505642 342.348971 
L 265.282156 334.442008 
L 284.164724 334.442008 
L 287.941238 322.267795 
L 291.717751 334.442008 
L 337.035915 334.442008 
L 340.812429 340.358676 
L 344.588943 334.442008 
L 367.248025 334.442008 
L 371.024538 323.940784 
L 374.801052 334.442008 
L 378.577566 328.029995 
L 389.907107 340.49953 
L 393.68362 320.138286 
L 397.460134 444.009928 
M 416.342702 334.442008 
L 420.119216 343.385119 
L 423.89573 344.050966 
L 427.672243 334.442008 
L 431.448757 334.442008 
L 442.778298 350.134962 
L 446.554812 334.442008 
L 454.107839 292.611484 
L 457.884353 334.919688 
L 469.213894 327.365372 
L 472.990407 334.442008 
L 495.649489 334.442008 
L 499.426003 313.655086 
L 503.202517 334.442008 
L 506.97903 325.634906 
L 510.755544 330.059291 
L 522.085085 323.31665 
L 529.638112 334.442008 
L 533.414626 334.442008 
L 537.19114 357.28141 
L 548.520681 331.735434 
L 556.073708 334.442008 
L 559.850222 325.055862 
L 563.626735 348.69192 
L 574.956276 334.442008 
L 578.73279 334.442008 
L 582.509304 347.725995 
L 586.285817 334.442008 
L 590.062331 334.442008 
L 601.391872 334.101029 
L 605.168386 341.637006 
L 608.944899 334.442008 
L 612.721413 334.442008 
L 616.497927 344.386191 
L 631.603981 334.442008 
L 635.380495 325.439166 
L 639.157009 334.442008 
L 642.933522 339.988191 
L 654.263063 329.768495 
L 658.039577 334.442008 
L 665.592604 334.442008 
L 669.369118 350.254651 
L 680.698659 334.442008 
L 688.251686 334.442008 
L 692.0282 332.113872 
L 695.804714 331.022463 
L 707.134255 342.317634 
L 710.910768 334.590877 
L 714.687282 334.442008 
L 718.463796 341.150248 
L 722.240309 334.442008 
L 741.122878 334.442008 
L 744.899391 340.793771 
L 748.675905 338.824725 
L 760.005446 335.232161 
L 763.78196 334.442008 
L 786.441042 334.442008 
L 790.217555 336.122226 
L 793.994069 334.442008 
L 850.641774 334.442008 
L 854.418288 336.238203 
L 865.747829 334.442008 
L 869.524342 334.442008 
L 873.300856 326.133107 
L 877.07737 334.442008 
L 880.853883 334.442008 
L 892.183424 351.331254 
L 895.959938 334.442008 
L 899.736452 336.147736 
L 903.512965 336.684328 
L 907.289479 337.87576 
L 918.61902 334.442008 
L 922.395534 330.897164 
L 922.6 331.162324 
L 922.6 331.162324 
" style="fill:none;stroke:#ff7f0e;stroke-dasharray:7.4,3.2;stroke-dashoffset:0;stroke-opacity:0.5;stroke-width:2;"/>
   </g>
   <g id="line2d_41">
    <path clip-path="url(#pc85f35c749)" d="M 820.429665 334.442008 
L 824.206178 337.019099 
L 827.982692 338.273054 
L 839.312233 335.765292 
L 843.088747 334.799198 
L 846.86526 332.918987 
L 850.641774 337.44629 
L 854.418288 324.084841 
L 865.747829 331.70281 
L 869.524342 334.442008 
L 899.736452 334.442008 
L 903.512965 350.07143 
L 907.289479 334.442008 
L 922.6 334.442008 
L 922.6 334.442008 
" style="fill:none;stroke:#2ca02c;stroke-dasharray:7.4,3.2;stroke-dashoffset:0;stroke-opacity:0.5;stroke-width:2;"/>
   </g>
   <g id="line2d_42">
    <path clip-path="url(#pc85f35c749)" d="M 0 0 
" style="fill:none;stroke:#d62728;stroke-dasharray:7.4,3.2;stroke-dashoffset:0;stroke-opacity:0.5;stroke-width:2;"/>
   </g>
   <g id="line2d_43">
    <path clip-path="url(#pc85f35c749)" d="M 0 0 
" style="fill:none;stroke:#9467bd;stroke-dasharray:7.4,3.2;stroke-dashoffset:0;stroke-opacity:0.5;stroke-width:2;"/>
   </g>
   <g id="line2d_44">
    <path clip-path="url(#pc85f35c749)" d="M 533.414626 346.4817 
L 537.19114 341.998416 
L 548.520681 334.442008 
L 556.073708 333.955039 
L 559.850222 324.826534 
L 563.626735 334.442008 
L 578.73279 334.442008 
L 582.509304 356.281309 
L 586.285817 334.442008 
L 605.168386 334.442008 
L 608.944899 343.34846 
L 612.721413 334.442008 
L 639.157009 334.442008 
L 642.933522 341.510906 
L 654.263063 326.345856 
L 658.039577 334.442008 
L 661.816091 334.442008 
L 665.592604 343.4889 
L 669.369118 334.442008 
L 695.804714 334.442008 
L 707.134255 337.181206 
L 710.910768 336.745744 
L 714.687282 339.550203 
L 718.463796 334.442008 
L 737.346364 334.442008 
L 741.122878 340.462223 
L 744.899391 332.276131 
L 748.675905 334.442008 
L 760.005446 337.253044 
L 763.78196 333.09565 
L 767.558473 334.442008 
L 790.217555 334.442008 
L 793.994069 335.075349 
L 797.770583 326.160712 
L 801.547096 334.442008 
L 816.653151 334.442008 
L 820.429665 344.924993 
L 824.206178 334.442008 
L 827.982692 334.442008 
L 839.312233 337.913078 
L 843.088747 334.442008 
L 850.641774 334.442008 
L 854.418288 327.678556 
L 865.747829 334.442008 
L 869.524342 334.442008 
L 873.300856 331.575405 
L 877.07737 334.442008 
L 880.853883 338.911634 
L 892.183424 334.442008 
L 895.959938 334.442008 
L 899.736452 341.755165 
L 903.512965 334.442008 
L 918.61902 334.442008 
L 922.395534 337.215879 
L 922.6 337.104218 
L 922.6 337.104218 
" style="fill:none;stroke:#8c564b;stroke-dasharray:7.4,3.2;stroke-dashoffset:0;stroke-opacity:0.5;stroke-width:2;"/>
   </g>
   <g id="line2d_45">
    <path clip-path="url(#pc85f35c749)" d="M -1 336.520896 
L 0.926199 335.243969 
L 4.702712 330.200669 
L 8.479226 316.067264 
L 19.808767 320.954164 
L 23.585281 345.339494 
L 27.361794 323.493448 
L 31.138308 343.348144 
L 34.914822 341.040522 
L 46.244363 335.74226 
L 50.020877 331.196201 
L 53.79739 339.639242 
L 57.573904 333.010917 
L 61.350418 338.150189 
L 72.679959 332.888501 
L 76.456472 331.378431 
L 80.232986 336.633366 
L 84.0095 322.993278 
L 87.786013 339.867766 
L 102.892068 331.885991 
L 106.668582 328.197636 
L 110.445095 328.613089 
L 114.221609 332.721829 
L 125.55115 339.743682 
L 129.327664 341.715585 
L 133.104177 335.105051 
L 136.880691 340.862655 
L 140.657205 337.099274 
L 151.986746 319.8269 
L 155.763259 341.57033 
L 159.539773 343.351362 
L 163.316287 333.975762 
L 167.0928 335.556258 
L 178.422341 329.563984 
L 182.198855 332.466193 
L 185.975369 330.295718 
L 189.751882 338.522117 
L 193.528396 337.002419 
L 204.857937 335.526839 
L 208.634451 333.985475 
L 212.410964 338.442828 
L 216.187478 309.81046 
L 219.963992 329.818889 
L 231.293533 328.009883 
L 235.070046 332.626351 
L 238.84656 286.287079 
L 242.623074 324.802322 
L 246.399587 350.539457 
L 257.729128 334.493424 
L 261.505642 353.372052 
L 265.282156 335.810052 
L 269.058669 317.69197 
L 272.835183 335.37055 
L 284.164724 335.819181 
L 287.941238 328.472676 
L 291.717751 310.528585 
L 295.494265 338.828199 
L 299.270779 334.71344 
L 310.60032 331.993056 
L 314.376833 340.430538 
L 318.153347 344.389931 
L 321.929861 344.196288 
L 325.706374 333.478898 
L 337.035915 331.914814 
L 340.812429 334.716477 
L 344.588943 353.978227 
L 348.365456 332.030978 
L 352.14197 330.248021 
L 363.471511 314.939423 
L 367.248025 336.745881 
L 371.024538 327.710313 
L 374.801052 340.990303 
L 378.577566 344.532347 
L 389.907107 322.603357 
L 393.68362 321.468294 
L 397.460134 342.630358 
L 405.013161 330.649272 
L 416.342702 347.781597 
L 420.119216 333.746339 
L 423.89573 337.495162 
L 427.672243 332.66427 
L 431.448757 338.640459 
L 442.778298 344.325556 
L 446.554812 305.783732 
L 454.107839 332.064691 
L 457.884353 323.893704 
L 469.213894 337.224835 
L 472.990407 338.700832 
L 476.766921 335.952595 
L 480.543435 338.57761 
L 484.319948 329.242175 
L 495.649489 319.802559 
L 499.426003 329.705385 
L 503.202517 334.442008 
L 506.97903 322.448647 
L 510.755544 327.762921 
L 522.085085 312.754037 
L 529.638112 351.635089 
L 533.414626 336.063368 
L 537.19114 340.366575 
L 548.520681 345.731293 
L 556.073708 343.924676 
L 559.850222 323.919335 
L 563.626735 351.964265 
L 574.956276 334.339512 
L 578.73279 339.203605 
L 582.509304 337.064787 
L 586.285817 337.07427 
L 590.062331 341.802725 
L 601.391872 329.141306 
L 605.168386 337.142423 
L 608.944899 331.850079 
L 612.721413 340.081533 
L 616.497927 336.019398 
L 631.603981 315.975505 
L 635.380495 341.184649 
L 639.157009 337.978268 
L 642.933522 342.968469 
L 654.263063 325.321831 
L 658.039577 332.932328 
L 661.816091 342.861498 
L 665.592604 341.204694 
L 669.369118 337.285352 
L 680.698659 337.225332 
L 684.475173 335.556494 
L 688.251686 335.77906 
L 692.0282 327.389197 
L 695.804714 338.792597 
L 707.134255 332.699516 
L 710.910768 338.146872 
L 714.687282 332.879795 
L 718.463796 330.451355 
L 722.240309 343.291205 
L 737.346364 334.662467 
L 741.122878 340.774563 
L 744.899391 331.003357 
L 748.675905 341.640454 
L 760.005446 323.574427 
L 763.78196 332.080948 
L 767.558473 337.836663 
L 771.334987 333.84572 
L 775.111501 343.412047 
L 786.441042 325.883276 
L 790.217555 333.618189 
L 793.994069 327.008635 
L 797.770583 328.525062 
L 801.547096 338.008414 
L 812.876637 346.183866 
L 816.653151 338.723797 
L 820.429665 337.306529 
L 824.206178 333.706653 
L 827.982692 339.474016 
L 839.312233 332.570506 
L 843.088747 330.594585 
L 846.86526 331.613927 
L 850.641774 336.647545 
L 854.418288 311.531621 
L 865.747829 335.439289 
L 869.524342 345.512863 
L 873.300856 330.934043 
L 877.07737 339.649196 
L 880.853883 339.909014 
L 892.183424 336.919474 
L 895.959938 334.769076 
L 899.736452 331.325555 
L 903.512965 335.717908 
L 907.289479 340.573939 
L 918.61902 331.365218 
L 922.395534 325.297493 
L 922.6 326.199701 
L 922.6 326.199701 
" style="fill:none;stroke:#000000;stroke-linecap:square;stroke-width:0.5;"/>
   </g>
   <g id="patch_3">
    <path d="M 115.2 444.0744 
L 115.2 59.8752 
" style="fill:none;stroke:#000000;stroke-linecap:square;stroke-linejoin:miter;stroke-width:0.8;"/>
   </g>
   <g id="patch_4">
    <path d="M 829.44 444.0744 
L 829.44 59.8752 
" style="fill:none;stroke:#000000;stroke-linecap:square;stroke-linejoin:miter;stroke-width:0.8;"/>
   </g>
   <g id="patch_5">
    <path d="M 115.2 444.0744 
L 829.44 444.0744 
" style="fill:none;stroke:#000000;stroke-linecap:square;stroke-linejoin:miter;stroke-width:0.8;"/>
   </g>
   <g id="patch_6">
    <path d="M 115.2 59.8752 
L 829.44 59.8752 
" style="fill:none;stroke:#000000;stroke-linecap:square;stroke-linejoin:miter;stroke-width:0.8;"/>
   </g>
   <g id="legend_1">
    <g id="patch_7">
     <path d="M 122.2 317.403325 
L 212.315625 317.403325 
Q 214.315625 317.403325 214.315625 315.403325 
L 214.315625 66.8752 
Q 214.315625 64.8752 212.315625 64.8752 
L 122.2 64.8752 
Q 120.2 64.8752 120.2 66.8752 
L 120.2 315.403325 
Q 120.2 317.403325 122.2 317.403325 
z
" style="fill:#ffffff;opacity:0.8;stroke:#cccccc;stroke-linejoin:miter;"/>
    </g>
    <g id="line2d_46">
     <path d="M 124.2 72.973638 
L 144.2 72.973638 
" style="fill:none;stroke:#1f77b4;stroke-linecap:square;stroke-opacity:0.75;"/>
    </g>
    <g id="line2d_47"/>
    <g id="text_15">
     <!-- 2018-12-31 -->
     <g transform="translate(152.2 76.473638)scale(0.1 -0.1)">
      <use xlink:href="#DejaVuSans-50"/>
      <use x="63.623047" xlink:href="#DejaVuSans-48"/>
      <use x="127.246094" xlink:href="#DejaVuSans-49"/>
      <use x="190.869141" xlink:href="#DejaVuSans-56"/>
      <use x="254.492188" xlink:href="#DejaVuSans-45"/>
      <use x="290.576172" xlink:href="#DejaVuSans-49"/>
      <use x="354.199219" xlink:href="#DejaVuSans-50"/>
      <use x="417.822266" xlink:href="#DejaVuSans-45"/>
      <use x="453.90625" xlink:href="#DejaVuSans-51"/>
      <use x="517.529297" xlink:href="#DejaVuSans-49"/>
     </g>
    </g>
    <g id="line2d_48">
     <path d="M 124.2 87.651763 
L 144.2 87.651763 
" style="fill:none;stroke:#ff7f0e;stroke-linecap:square;stroke-opacity:0.75;"/>
    </g>
    <g id="line2d_49"/>
    <g id="text_16">
     <!-- 2019-01-18 -->
     <g transform="translate(152.2 91.151763)scale(0.1 -0.1)">
      <use xlink:href="#DejaVuSans-50"/>
      <use x="63.623047" xlink:href="#DejaVuSans-48"/>
      <use x="127.246094" xlink:href="#DejaVuSans-49"/>
      <use x="190.869141" xlink:href="#DejaVuSans-57"/>
      <use x="254.492188" xlink:href="#DejaVuSans-45"/>
      <use x="290.576172" xlink:href="#DejaVuSans-48"/>
      <use x="354.199219" xlink:href="#DejaVuSans-49"/>
      <use x="417.822266" xlink:href="#DejaVuSans-45"/>
      <use x="453.90625" xlink:href="#DejaVuSans-49"/>
      <use x="517.529297" xlink:href="#DejaVuSans-56"/>
     </g>
    </g>
    <g id="line2d_50">
     <path d="M 124.2 102.329888 
L 144.2 102.329888 
" style="fill:none;stroke:#2ca02c;stroke-linecap:square;stroke-opacity:0.75;"/>
    </g>
    <g id="line2d_51"/>
    <g id="text_17">
     <!-- 2019-03-15 -->
     <g transform="translate(152.2 105.829888)scale(0.1 -0.1)">
      <use xlink:href="#DejaVuSans-50"/>
      <use x="63.623047" xlink:href="#DejaVuSans-48"/>
      <use x="127.246094" xlink:href="#DejaVuSans-49"/>
      <use x="190.869141" xlink:href="#DejaVuSans-57"/>
      <use x="254.492188" xlink:href="#DejaVuSans-45"/>
      <use x="290.576172" xlink:href="#DejaVuSans-48"/>
      <use x="354.199219" xlink:href="#DejaVuSans-51"/>
      <use x="417.822266" xlink:href="#DejaVuSans-45"/>
      <use x="453.90625" xlink:href="#DejaVuSans-49"/>
      <use x="517.529297" xlink:href="#DejaVuSans-53"/>
     </g>
    </g>
    <g id="line2d_52">
     <path d="M 124.2 117.008013 
L 144.2 117.008013 
" style="fill:none;stroke:#d62728;stroke-linecap:square;stroke-opacity:0.75;"/>
    </g>
    <g id="line2d_53"/>
    <g id="text_18">
     <!-- 2019-06-21 -->
     <defs>
      <path d="M 33.015625 40.375 
Q 26.375 40.375 22.484375 35.828125 
Q 18.609375 31.296875 18.609375 23.390625 
Q 18.609375 15.53125 22.484375 10.953125 
Q 26.375 6.390625 33.015625 6.390625 
Q 39.65625 6.390625 43.53125 10.953125 
Q 47.40625 15.53125 47.40625 23.390625 
Q 47.40625 31.296875 43.53125 35.828125 
Q 39.65625 40.375 33.015625 40.375 
z
M 52.59375 71.296875 
L 52.59375 62.3125 
Q 48.875 64.0625 45.09375 64.984375 
Q 41.3125 65.921875 37.59375 65.921875 
Q 27.828125 65.921875 22.671875 59.328125 
Q 17.53125 52.734375 16.796875 39.40625 
Q 19.671875 43.65625 24.015625 45.921875 
Q 28.375 48.1875 33.59375 48.1875 
Q 44.578125 48.1875 50.953125 41.515625 
Q 57.328125 34.859375 57.328125 23.390625 
Q 57.328125 12.15625 50.6875 5.359375 
Q 44.046875 -1.421875 33.015625 -1.421875 
Q 20.359375 -1.421875 13.671875 8.265625 
Q 6.984375 17.96875 6.984375 36.375 
Q 6.984375 53.65625 15.1875 63.9375 
Q 23.390625 74.21875 37.203125 74.21875 
Q 40.921875 74.21875 44.703125 73.484375 
Q 48.484375 72.75 52.59375 71.296875 
z
" id="DejaVuSans-54"/>
     </defs>
     <g transform="translate(152.2 120.508013)scale(0.1 -0.1)">
      <use xlink:href="#DejaVuSans-50"/>
      <use x="63.623047" xlink:href="#DejaVuSans-48"/>
      <use x="127.246094" xlink:href="#DejaVuSans-49"/>
      <use x="190.869141" xlink:href="#DejaVuSans-57"/>
      <use x="254.492188" xlink:href="#DejaVuSans-45"/>
      <use x="290.576172" xlink:href="#DejaVuSans-48"/>
      <use x="354.199219" xlink:href="#DejaVuSans-54"/>
      <use x="417.822266" xlink:href="#DejaVuSans-45"/>
      <use x="453.90625" xlink:href="#DejaVuSans-50"/>
      <use x="517.529297" xlink:href="#DejaVuSans-49"/>
     </g>
    </g>
    <g id="line2d_54">
     <path d="M 124.2 131.686138 
L 144.2 131.686138 
" style="fill:none;stroke:#9467bd;stroke-linecap:square;stroke-opacity:0.75;"/>
    </g>
    <g id="line2d_55"/>
    <g id="text_19">
     <!-- 2019-09-20 -->
     <g transform="translate(152.2 135.186138)scale(0.1 -0.1)">
      <use xlink:href="#DejaVuSans-50"/>
      <use x="63.623047" xlink:href="#DejaVuSans-48"/>
      <use x="127.246094" xlink:href="#DejaVuSans-49"/>
      <use x="190.869141" xlink:href="#DejaVuSans-57"/>
      <use x="254.492188" xlink:href="#DejaVuSans-45"/>
      <use x="290.576172" xlink:href="#DejaVuSans-48"/>
      <use x="354.199219" xlink:href="#DejaVuSans-57"/>
      <use x="417.822266" xlink:href="#DejaVuSans-45"/>
      <use x="453.90625" xlink:href="#DejaVuSans-50"/>
      <use x="517.529297" xlink:href="#DejaVuSans-48"/>
     </g>
    </g>
    <g id="line2d_56">
     <path d="M 124.2 146.364263 
L 144.2 146.364263 
" style="fill:none;stroke:#8c564b;stroke-linecap:square;stroke-opacity:0.75;"/>
    </g>
    <g id="line2d_57"/>
    <g id="text_20">
     <!-- 2019-12-20 -->
     <g transform="translate(152.2 149.864263)scale(0.1 -0.1)">
      <use xlink:href="#DejaVuSans-50"/>
      <use x="63.623047" xlink:href="#DejaVuSans-48"/>
      <use x="127.246094" xlink:href="#DejaVuSans-49"/>
      <use x="190.869141" xlink:href="#DejaVuSans-57"/>
      <use x="254.492188" xlink:href="#DejaVuSans-45"/>
      <use x="290.576172" xlink:href="#DejaVuSans-49"/>
      <use x="354.199219" xlink:href="#DejaVuSans-50"/>
      <use x="417.822266" xlink:href="#DejaVuSans-45"/>
      <use x="453.90625" xlink:href="#DejaVuSans-50"/>
      <use x="517.529297" xlink:href="#DejaVuSans-48"/>
     </g>
    </g>
    <g id="line2d_58">
     <path d="M 124.2 161.042388 
L 144.2 161.042388 
" style="fill:none;stroke:#e377c2;stroke-linecap:square;stroke-opacity:0.75;"/>
    </g>
    <g id="line2d_59"/>
    <g id="text_21">
     <!-- 2020-01-17 -->
     <defs>
      <path d="M 8.203125 72.90625 
L 55.078125 72.90625 
L 55.078125 68.703125 
L 28.609375 0 
L 18.3125 0 
L 43.21875 64.59375 
L 8.203125 64.59375 
z
" id="DejaVuSans-55"/>
     </defs>
     <g transform="translate(152.2 164.542388)scale(0.1 -0.1)">
      <use xlink:href="#DejaVuSans-50"/>
      <use x="63.623047" xlink:href="#DejaVuSans-48"/>
      <use x="127.246094" xlink:href="#DejaVuSans-50"/>
      <use x="190.869141" xlink:href="#DejaVuSans-48"/>
      <use x="254.492188" xlink:href="#DejaVuSans-45"/>
      <use x="290.576172" xlink:href="#DejaVuSans-48"/>
      <use x="354.199219" xlink:href="#DejaVuSans-49"/>
      <use x="417.822266" xlink:href="#DejaVuSans-45"/>
      <use x="453.90625" xlink:href="#DejaVuSans-49"/>
      <use x="517.529297" xlink:href="#DejaVuSans-55"/>
     </g>
    </g>
    <g id="line2d_60">
     <path d="M 124.2 175.720513 
L 144.2 175.720513 
" style="fill:none;stroke:#7f7f7f;stroke-linecap:square;stroke-opacity:0.75;"/>
    </g>
    <g id="line2d_61"/>
    <g id="text_22">
     <!-- 2020-03-20 -->
     <g transform="translate(152.2 179.220513)scale(0.1 -0.1)">
      <use xlink:href="#DejaVuSans-50"/>
      <use x="63.623047" xlink:href="#DejaVuSans-48"/>
      <use x="127.246094" xlink:href="#DejaVuSans-50"/>
      <use x="190.869141" xlink:href="#DejaVuSans-48"/>
      <use x="254.492188" xlink:href="#DejaVuSans-45"/>
      <use x="290.576172" xlink:href="#DejaVuSans-48"/>
      <use x="354.199219" xlink:href="#DejaVuSans-51"/>
      <use x="417.822266" xlink:href="#DejaVuSans-45"/>
      <use x="453.90625" xlink:href="#DejaVuSans-50"/>
      <use x="517.529297" xlink:href="#DejaVuSans-48"/>
     </g>
    </g>
    <g id="line2d_62">
     <path d="M 124.2 190.398638 
L 144.2 190.398638 
" style="fill:none;stroke:#bcbd22;stroke-linecap:square;stroke-opacity:0.75;"/>
    </g>
    <g id="line2d_63"/>
    <g id="text_23">
     <!-- 2020-06-19 -->
     <g transform="translate(152.2 193.898638)scale(0.1 -0.1)">
      <use xlink:href="#DejaVuSans-50"/>
      <use x="63.623047" xlink:href="#DejaVuSans-48"/>
      <use x="127.246094" xlink:href="#DejaVuSans-50"/>
      <use x="190.869141" xlink:href="#DejaVuSans-48"/>
      <use x="254.492188" xlink:href="#DejaVuSans-45"/>
      <use x="290.576172" xlink:href="#DejaVuSans-48"/>
      <use x="354.199219" xlink:href="#DejaVuSans-54"/>
      <use x="417.822266" xlink:href="#DejaVuSans-45"/>
      <use x="453.90625" xlink:href="#DejaVuSans-49"/>
      <use x="517.529297" xlink:href="#DejaVuSans-57"/>
     </g>
    </g>
    <g id="line2d_64">
     <path d="M 124.2 205.076763 
L 144.2 205.076763 
" style="fill:none;stroke:#17becf;stroke-linecap:square;stroke-opacity:0.75;"/>
    </g>
    <g id="line2d_65"/>
    <g id="text_24">
     <!-- 2020-09-18 -->
     <g transform="translate(152.2 208.576763)scale(0.1 -0.1)">
      <use xlink:href="#DejaVuSans-50"/>
      <use x="63.623047" xlink:href="#DejaVuSans-48"/>
      <use x="127.246094" xlink:href="#DejaVuSans-50"/>
      <use x="190.869141" xlink:href="#DejaVuSans-48"/>
      <use x="254.492188" xlink:href="#DejaVuSans-45"/>
      <use x="290.576172" xlink:href="#DejaVuSans-48"/>
      <use x="354.199219" xlink:href="#DejaVuSans-57"/>
      <use x="417.822266" xlink:href="#DejaVuSans-45"/>
      <use x="453.90625" xlink:href="#DejaVuSans-49"/>
      <use x="517.529297" xlink:href="#DejaVuSans-56"/>
     </g>
    </g>
    <g id="line2d_66">
     <path d="M 124.2 219.754888 
L 144.2 219.754888 
" style="fill:none;stroke:#1f77b4;stroke-dasharray:7.4,3.2;stroke-dashoffset:0;stroke-opacity:0.5;stroke-width:2;"/>
    </g>
    <g id="line2d_67"/>
    <g id="text_25">
     <!-- 2020-12-18 -->
     <g transform="translate(152.2 223.254888)scale(0.1 -0.1)">
      <use xlink:href="#DejaVuSans-50"/>
      <use x="63.623047" xlink:href="#DejaVuSans-48"/>
      <use x="127.246094" xlink:href="#DejaVuSans-50"/>
      <use x="190.869141" xlink:href="#DejaVuSans-48"/>
      <use x="254.492188" xlink:href="#DejaVuSans-45"/>
      <use x="290.576172" xlink:href="#DejaVuSans-49"/>
      <use x="354.199219" xlink:href="#DejaVuSans-50"/>
      <use x="417.822266" xlink:href="#DejaVuSans-45"/>
      <use x="453.90625" xlink:href="#DejaVuSans-49"/>
      <use x="517.529297" xlink:href="#DejaVuSans-56"/>
     </g>
    </g>
    <g id="line2d_68">
     <path d="M 124.2 234.433013 
L 144.2 234.433013 
" style="fill:none;stroke:#ff7f0e;stroke-dasharray:7.4,3.2;stroke-dashoffset:0;stroke-opacity:0.5;stroke-width:2;"/>
    </g>
    <g id="line2d_69"/>
    <g id="text_26">
     <!-- 2021-01-15 -->
     <g transform="translate(152.2 237.933013)scale(0.1 -0.1)">
      <use xlink:href="#DejaVuSans-50"/>
      <use x="63.623047" xlink:href="#DejaVuSans-48"/>
      <use x="127.246094" xlink:href="#DejaVuSans-50"/>
      <use x="190.869141" xlink:href="#DejaVuSans-49"/>
      <use x="254.492188" xlink:href="#DejaVuSans-45"/>
      <use x="290.576172" xlink:href="#DejaVuSans-48"/>
      <use x="354.199219" xlink:href="#DejaVuSans-49"/>
      <use x="417.822266" xlink:href="#DejaVuSans-45"/>
      <use x="453.90625" xlink:href="#DejaVuSans-49"/>
      <use x="517.529297" xlink:href="#DejaVuSans-53"/>
     </g>
    </g>
    <g id="line2d_70">
     <path d="M 124.2 249.111138 
L 144.2 249.111138 
" style="fill:none;stroke:#2ca02c;stroke-dasharray:7.4,3.2;stroke-dashoffset:0;stroke-opacity:0.5;stroke-width:2;"/>
    </g>
    <g id="line2d_71"/>
    <g id="text_27">
     <!-- 2021-03-19 -->
     <g transform="translate(152.2 252.611138)scale(0.1 -0.1)">
      <use xlink:href="#DejaVuSans-50"/>
      <use x="63.623047" xlink:href="#DejaVuSans-48"/>
      <use x="127.246094" xlink:href="#DejaVuSans-50"/>
      <use x="190.869141" xlink:href="#DejaVuSans-49"/>
      <use x="254.492188" xlink:href="#DejaVuSans-45"/>
      <use x="290.576172" xlink:href="#DejaVuSans-48"/>
      <use x="354.199219" xlink:href="#DejaVuSans-51"/>
      <use x="417.822266" xlink:href="#DejaVuSans-45"/>
      <use x="453.90625" xlink:href="#DejaVuSans-49"/>
      <use x="517.529297" xlink:href="#DejaVuSans-57"/>
     </g>
    </g>
    <g id="line2d_72">
     <path d="M 124.2 263.789263 
L 144.2 263.789263 
" style="fill:none;stroke:#d62728;stroke-dasharray:7.4,3.2;stroke-dashoffset:0;stroke-opacity:0.5;stroke-width:2;"/>
    </g>
    <g id="line2d_73"/>
    <g id="text_28">
     <!-- 2021-06-18 -->
     <g transform="translate(152.2 267.289263)scale(0.1 -0.1)">
      <use xlink:href="#DejaVuSans-50"/>
      <use x="63.623047" xlink:href="#DejaVuSans-48"/>
      <use x="127.246094" xlink:href="#DejaVuSans-50"/>
      <use x="190.869141" xlink:href="#DejaVuSans-49"/>
      <use x="254.492188" xlink:href="#DejaVuSans-45"/>
      <use x="290.576172" xlink:href="#DejaVuSans-48"/>
      <use x="354.199219" xlink:href="#DejaVuSans-54"/>
      <use x="417.822266" xlink:href="#DejaVuSans-45"/>
      <use x="453.90625" xlink:href="#DejaVuSans-49"/>
      <use x="517.529297" xlink:href="#DejaVuSans-56"/>
     </g>
    </g>
    <g id="line2d_74">
     <path d="M 124.2 278.467387 
L 144.2 278.467387 
" style="fill:none;stroke:#9467bd;stroke-dasharray:7.4,3.2;stroke-dashoffset:0;stroke-opacity:0.5;stroke-width:2;"/>
    </g>
    <g id="line2d_75"/>
    <g id="text_29">
     <!-- 2021-09-17 -->
     <g transform="translate(152.2 281.967387)scale(0.1 -0.1)">
      <use xlink:href="#DejaVuSans-50"/>
      <use x="63.623047" xlink:href="#DejaVuSans-48"/>
      <use x="127.246094" xlink:href="#DejaVuSans-50"/>
      <use x="190.869141" xlink:href="#DejaVuSans-49"/>
      <use x="254.492188" xlink:href="#DejaVuSans-45"/>
      <use x="290.576172" xlink:href="#DejaVuSans-48"/>
      <use x="354.199219" xlink:href="#DejaVuSans-57"/>
      <use x="417.822266" xlink:href="#DejaVuSans-45"/>
      <use x="453.90625" xlink:href="#DejaVuSans-49"/>
      <use x="517.529297" xlink:href="#DejaVuSans-55"/>
     </g>
    </g>
    <g id="line2d_76">
     <path d="M 124.2 293.145512 
L 144.2 293.145512 
" style="fill:none;stroke:#8c564b;stroke-dasharray:7.4,3.2;stroke-dashoffset:0;stroke-opacity:0.5;stroke-width:2;"/>
    </g>
    <g id="line2d_77"/>
    <g id="text_30">
     <!-- 2021-12-17 -->
     <g transform="translate(152.2 296.645512)scale(0.1 -0.1)">
      <use xlink:href="#DejaVuSans-50"/>
      <use x="63.623047" xlink:href="#DejaVuSans-48"/>
      <use x="127.246094" xlink:href="#DejaVuSans-50"/>
      <use x="190.869141" xlink:href="#DejaVuSans-49"/>
      <use x="254.492188" xlink:href="#DejaVuSans-45"/>
      <use x="290.576172" xlink:href="#DejaVuSans-49"/>
      <use x="354.199219" xlink:href="#DejaVuSans-50"/>
      <use x="417.822266" xlink:href="#DejaVuSans-45"/>
      <use x="453.90625" xlink:href="#DejaVuSans-49"/>
      <use x="517.529297" xlink:href="#DejaVuSans-55"/>
     </g>
    </g>
    <g id="line2d_78">
     <path d="M 124.2 307.823638 
L 144.2 307.823638 
" style="fill:none;stroke:#000000;stroke-linecap:square;stroke-width:0.5;"/>
    </g>
    <g id="line2d_79"/>
    <g id="text_31">
     <!-- vix -->
     <defs>
      <path d="M 2.984375 54.6875 
L 12.5 54.6875 
L 29.59375 8.796875 
L 46.6875 54.6875 
L 56.203125 54.6875 
L 35.6875 0 
L 23.484375 0 
z
" id="DejaVuSans-118"/>
      <path d="M 9.421875 54.6875 
L 18.40625 54.6875 
L 18.40625 0 
L 9.421875 0 
z
M 9.421875 75.984375 
L 18.40625 75.984375 
L 18.40625 64.59375 
L 9.421875 64.59375 
z
" id="DejaVuSans-105"/>
      <path d="M 54.890625 54.6875 
L 35.109375 28.078125 
L 55.90625 0 
L 45.3125 0 
L 29.390625 21.484375 
L 13.484375 0 
L 2.875 0 
L 24.125 28.609375 
L 4.6875 54.6875 
L 15.28125 54.6875 
L 29.78125 35.203125 
L 44.28125 54.6875 
z
" id="DejaVuSans-120"/>
     </defs>
     <g transform="translate(152.2 311.323638)scale(0.1 -0.1)">
      <use xlink:href="#DejaVuSans-118"/>
      <use x="59.179688" xlink:href="#DejaVuSans-105"/>
      <use x="86.962891" xlink:href="#DejaVuSans-120"/>
     </g>
    </g>
   </g>
  </g>
 </g>
 <defs>
  <clipPath id="pc85f35c749">
   <rect height="384.1992" width="714.24" x="115.2" y="59.8752"/>
  </clipPath>
 </defs>
</svg>
